G04 #@! TF.GenerationSoftware,KiCad,Pcbnew,(6.0.4-0)*
G04 #@! TF.CreationDate,2022-04-11T19:30:25+03:00*
G04 #@! TF.ProjectId,rpi_motor_pcb,7270695f-6d6f-4746-9f72-5f7063622e6b,rev?*
G04 #@! TF.SameCoordinates,Original*
G04 #@! TF.FileFunction,Legend,Top*
G04 #@! TF.FilePolarity,Positive*
%FSLAX46Y46*%
G04 Gerber Fmt 4.6, Leading zero omitted, Abs format (unit mm)*
G04 Created by KiCad (PCBNEW (6.0.4-0)) date 2022-04-11 19:30:25*
%MOMM*%
%LPD*%
G01*
G04 APERTURE LIST*
%ADD10C,0.150000*%
%ADD11C,0.120000*%
G04 APERTURE END LIST*
D10*
G04 #@! TO.C,J3*
X40166666Y-56377380D02*
X40166666Y-57091666D01*
X40119047Y-57234523D01*
X40023809Y-57329761D01*
X39880952Y-57377380D01*
X39785714Y-57377380D01*
X40547619Y-56377380D02*
X41166666Y-56377380D01*
X40833333Y-56758333D01*
X40976190Y-56758333D01*
X41071428Y-56805952D01*
X41119047Y-56853571D01*
X41166666Y-56948809D01*
X41166666Y-57186904D01*
X41119047Y-57282142D01*
X41071428Y-57329761D01*
X40976190Y-57377380D01*
X40690476Y-57377380D01*
X40595238Y-57329761D01*
X40547619Y-57282142D01*
G04 #@! TO.C,J4*
X60416666Y-64502380D02*
X60416666Y-65216666D01*
X60369047Y-65359523D01*
X60273809Y-65454761D01*
X60130952Y-65502380D01*
X60035714Y-65502380D01*
X61321428Y-64835714D02*
X61321428Y-65502380D01*
X61083333Y-64454761D02*
X60845238Y-65169047D01*
X61464285Y-65169047D01*
G04 #@! TO.C,A2*
X87596666Y-45224285D02*
X87596666Y-44748095D01*
X87882380Y-45319523D02*
X86882380Y-44986190D01*
X87882380Y-44652857D01*
X86977619Y-44367142D02*
X86930000Y-44319523D01*
X86882380Y-44224285D01*
X86882380Y-43986190D01*
X86930000Y-43890952D01*
X86977619Y-43843333D01*
X87072857Y-43795714D01*
X87168095Y-43795714D01*
X87310952Y-43843333D01*
X87882380Y-44414761D01*
X87882380Y-43795714D01*
G04 #@! TO.C,A1*
X56596666Y-45224285D02*
X56596666Y-44748095D01*
X56882380Y-45319523D02*
X55882380Y-44986190D01*
X56882380Y-44652857D01*
X56882380Y-43795714D02*
X56882380Y-44367142D01*
X56882380Y-44081428D02*
X55882380Y-44081428D01*
X56025238Y-44176666D01*
X56120476Y-44271904D01*
X56168095Y-44367142D01*
G04 #@! TO.C,J2*
X80166666Y-56402380D02*
X80166666Y-57116666D01*
X80119047Y-57259523D01*
X80023809Y-57354761D01*
X79880952Y-57402380D01*
X79785714Y-57402380D01*
X80595238Y-56497619D02*
X80642857Y-56450000D01*
X80738095Y-56402380D01*
X80976190Y-56402380D01*
X81071428Y-56450000D01*
X81119047Y-56497619D01*
X81166666Y-56592857D01*
X81166666Y-56688095D01*
X81119047Y-56830952D01*
X80547619Y-57402380D01*
X81166666Y-57402380D01*
D11*
G04 #@! TO.C,J3*
X37250000Y-58775000D02*
X37250000Y-58025000D01*
X43750000Y-58025000D02*
X43750000Y-58775000D01*
X45560000Y-58015000D02*
X35440000Y-58015000D01*
X36200000Y-63225000D02*
X40500000Y-63225000D01*
X35450000Y-58775000D02*
X37250000Y-58775000D01*
X35450000Y-58025000D02*
X35450000Y-58775000D01*
X37250000Y-58025000D02*
X35450000Y-58025000D01*
X35440000Y-58015000D02*
X35440000Y-63985000D01*
X43750000Y-58775000D02*
X45550000Y-58775000D01*
X44800000Y-63225000D02*
X40500000Y-63225000D01*
X35450000Y-60275000D02*
X36200000Y-60275000D01*
X38750000Y-58775000D02*
X42250000Y-58775000D01*
X45550000Y-58775000D02*
X45550000Y-58025000D01*
X45550000Y-60275000D02*
X44800000Y-60275000D01*
X45560000Y-63985000D02*
X45560000Y-58015000D01*
X35440000Y-63985000D02*
X45560000Y-63985000D01*
X45550000Y-58025000D02*
X43750000Y-58025000D01*
X42250000Y-58775000D02*
X42250000Y-58025000D01*
X36200000Y-60275000D02*
X36200000Y-63225000D01*
X38750000Y-58025000D02*
X38750000Y-58775000D01*
X36400000Y-57725000D02*
X35150000Y-57725000D01*
X44800000Y-60275000D02*
X44800000Y-63225000D01*
X35150000Y-57725000D02*
X35150000Y-58975000D01*
X42250000Y-58025000D02*
X38750000Y-58025000D01*
G04 #@! TO.C,J4*
X56940000Y-63960000D02*
X64560000Y-63960000D01*
X61250000Y-63200000D02*
X60250000Y-63200000D01*
X62750000Y-63950000D02*
X64550000Y-63950000D01*
X56950000Y-63950000D02*
X58750000Y-63950000D01*
X56950000Y-63200000D02*
X56950000Y-63950000D01*
X60250000Y-63200000D02*
X60250000Y-63950000D01*
X64550000Y-63950000D02*
X64550000Y-63200000D01*
X61250000Y-63950000D02*
X61250000Y-63200000D01*
X64550000Y-63200000D02*
X62750000Y-63200000D01*
X63800000Y-61700000D02*
X63800000Y-58750000D01*
X58750000Y-63950000D02*
X58750000Y-63200000D01*
X63800000Y-58750000D02*
X60750000Y-58750000D01*
X56950000Y-61700000D02*
X57700000Y-61700000D01*
X62750000Y-63200000D02*
X62750000Y-63950000D01*
X63600000Y-64250000D02*
X64850000Y-64250000D01*
X64850000Y-64250000D02*
X64850000Y-63000000D01*
X57700000Y-58750000D02*
X60750000Y-58750000D01*
X57700000Y-61700000D02*
X57700000Y-58750000D01*
X56940000Y-57990000D02*
X56940000Y-63960000D01*
X64560000Y-63960000D02*
X64560000Y-57990000D01*
X64550000Y-61700000D02*
X63800000Y-61700000D01*
X60250000Y-63950000D02*
X61250000Y-63950000D01*
X64560000Y-57990000D02*
X56940000Y-57990000D01*
X58750000Y-63200000D02*
X56950000Y-63200000D01*
G04 #@! TO.C,A2*
X65710000Y-52260000D02*
X86290000Y-52260000D01*
X86290000Y-49590000D02*
X65710000Y-49590000D01*
X86290000Y-38160000D02*
X86290000Y-36760000D01*
X83620000Y-36760000D02*
X65710000Y-36760000D01*
X86290000Y-36760000D02*
X84890000Y-36760000D01*
X83620000Y-39430000D02*
X83620000Y-36760000D01*
X86290000Y-52260000D02*
X86290000Y-39430000D01*
X83620000Y-39430000D02*
X65710000Y-39430000D01*
X86290000Y-39430000D02*
X83620000Y-39430000D01*
X65710000Y-36760000D02*
X65710000Y-52260000D01*
G04 #@! TO.C,A1*
X52620000Y-39430000D02*
X34710000Y-39430000D01*
X34710000Y-52260000D02*
X55290000Y-52260000D01*
X52620000Y-36760000D02*
X34710000Y-36760000D01*
X52620000Y-39430000D02*
X52620000Y-36760000D01*
X34710000Y-36760000D02*
X34710000Y-52260000D01*
X55290000Y-36760000D02*
X53890000Y-36760000D01*
X55290000Y-39430000D02*
X52620000Y-39430000D01*
X55290000Y-52260000D02*
X55290000Y-39430000D01*
X55290000Y-49590000D02*
X34710000Y-49590000D01*
X55290000Y-38160000D02*
X55290000Y-36760000D01*
G04 #@! TO.C,J2*
X76400000Y-57750000D02*
X75150000Y-57750000D01*
X75450000Y-58050000D02*
X75450000Y-58800000D01*
X82250000Y-58800000D02*
X82250000Y-58050000D01*
X85560000Y-64010000D02*
X85560000Y-58040000D01*
X77250000Y-58050000D02*
X75450000Y-58050000D01*
X85550000Y-58800000D02*
X85550000Y-58050000D01*
X85550000Y-60300000D02*
X84800000Y-60300000D01*
X78750000Y-58050000D02*
X78750000Y-58800000D01*
X75440000Y-64010000D02*
X85560000Y-64010000D01*
X75440000Y-58040000D02*
X75440000Y-64010000D01*
X82250000Y-58050000D02*
X78750000Y-58050000D01*
X85550000Y-58050000D02*
X83750000Y-58050000D01*
X83750000Y-58050000D02*
X83750000Y-58800000D01*
X84800000Y-63250000D02*
X80500000Y-63250000D01*
X85560000Y-58040000D02*
X75440000Y-58040000D01*
X76200000Y-63250000D02*
X80500000Y-63250000D01*
X75450000Y-58800000D02*
X77250000Y-58800000D01*
X75150000Y-57750000D02*
X75150000Y-59000000D01*
X78750000Y-58800000D02*
X82250000Y-58800000D01*
X76200000Y-60300000D02*
X76200000Y-63250000D01*
X77250000Y-58800000D02*
X77250000Y-58050000D01*
X84800000Y-60300000D02*
X84800000Y-63250000D01*
X75450000Y-60300000D02*
X76200000Y-60300000D01*
X83750000Y-58800000D02*
X85550000Y-58800000D01*
G04 #@! TD*
M02*
