G04 #@! TF.GenerationSoftware,KiCad,Pcbnew,(6.0.4-0)*
G04 #@! TF.CreationDate,2022-04-11T19:30:25+03:00*
G04 #@! TF.ProjectId,rpi_motor_pcb,7270695f-6d6f-4746-9f72-5f7063622e6b,rev?*
G04 #@! TF.SameCoordinates,Original*
G04 #@! TF.FileFunction,Copper,L2,Bot*
G04 #@! TF.FilePolarity,Positive*
%FSLAX46Y46*%
G04 Gerber Fmt 4.6, Leading zero omitted, Abs format (unit mm)*
G04 Created by KiCad (PCBNEW (6.0.4-0)) date 2022-04-11 19:30:25*
%MOMM*%
%LPD*%
G01*
G04 APERTURE LIST*
G04 Aperture macros list*
%AMRoundRect*
0 Rectangle with rounded corners*
0 $1 Rounding radius*
0 $2 $3 $4 $5 $6 $7 $8 $9 X,Y pos of 4 corners*
0 Add a 4 corners polygon primitive as box body*
4,1,4,$2,$3,$4,$5,$6,$7,$8,$9,$2,$3,0*
0 Add four circle primitives for the rounded corners*
1,1,$1+$1,$2,$3*
1,1,$1+$1,$4,$5*
1,1,$1+$1,$6,$7*
1,1,$1+$1,$8,$9*
0 Add four rect primitives between the rounded corners*
20,1,$1+$1,$2,$3,$4,$5,0*
20,1,$1+$1,$4,$5,$6,$7,0*
20,1,$1+$1,$6,$7,$8,$9,0*
20,1,$1+$1,$8,$9,$2,$3,0*%
G04 Aperture macros list end*
G04 #@! TA.AperFunction,ComponentPad*
%ADD10RoundRect,0.250000X-0.600000X-0.725000X0.600000X-0.725000X0.600000X0.725000X-0.600000X0.725000X0*%
G04 #@! TD*
G04 #@! TA.AperFunction,ComponentPad*
%ADD11O,1.700000X1.950000*%
G04 #@! TD*
G04 #@! TA.AperFunction,ComponentPad*
%ADD12RoundRect,0.250000X0.600000X0.750000X-0.600000X0.750000X-0.600000X-0.750000X0.600000X-0.750000X0*%
G04 #@! TD*
G04 #@! TA.AperFunction,ComponentPad*
%ADD13O,1.700000X2.000000*%
G04 #@! TD*
G04 #@! TA.AperFunction,ComponentPad*
%ADD14R,1.600000X1.600000*%
G04 #@! TD*
G04 #@! TA.AperFunction,ComponentPad*
%ADD15O,1.600000X1.600000*%
G04 #@! TD*
G04 #@! TA.AperFunction,ComponentPad*
%ADD16R,1.700000X1.700000*%
G04 #@! TD*
G04 #@! TA.AperFunction,ComponentPad*
%ADD17O,1.700000X1.700000*%
G04 #@! TD*
G04 #@! TA.AperFunction,ViaPad*
%ADD18C,0.800000*%
G04 #@! TD*
G04 #@! TA.AperFunction,Conductor*
%ADD19C,0.250000*%
G04 #@! TD*
G04 #@! TA.AperFunction,Conductor*
%ADD20C,2.000000*%
G04 #@! TD*
G04 APERTURE END LIST*
D10*
G04 #@! TO.P,J3,1,Pin_1*
G04 #@! TO.N,Net-(J1-Pad2)*
X38000000Y-60475000D03*
D11*
G04 #@! TO.P,J3,2,Pin_2*
G04 #@! TO.N,Net-(J1-Pad20)*
X40500000Y-60475000D03*
G04 #@! TO.P,J3,3,Pin_3*
G04 #@! TO.N,/Y+*
X43000000Y-60475000D03*
G04 #@! TD*
D12*
G04 #@! TO.P,J4,1,Pin_1*
G04 #@! TO.N,/Vmot*
X62000000Y-61500000D03*
D13*
G04 #@! TO.P,J4,2,Pin_2*
G04 #@! TO.N,Net-(A1-Pad1)*
X59500000Y-61500000D03*
G04 #@! TD*
D14*
G04 #@! TO.P,A2,1,GND*
G04 #@! TO.N,Net-(A1-Pad1)*
X84890000Y-38160000D03*
D15*
G04 #@! TO.P,A2,2,VDD*
G04 #@! TO.N,Net-(J1-Pad2)*
X82350000Y-38160000D03*
G04 #@! TO.P,A2,3,1B*
G04 #@! TO.N,unconnected-(A2-Pad3)*
X79810000Y-38160000D03*
G04 #@! TO.P,A2,4,1A*
G04 #@! TO.N,unconnected-(A2-Pad4)*
X77270000Y-38160000D03*
G04 #@! TO.P,A2,5,2A*
G04 #@! TO.N,unconnected-(A2-Pad5)*
X74730000Y-38160000D03*
G04 #@! TO.P,A2,6,2B*
G04 #@! TO.N,unconnected-(A2-Pad6)*
X72190000Y-38160000D03*
G04 #@! TO.P,A2,7,GND*
G04 #@! TO.N,Net-(A1-Pad1)*
X69650000Y-38160000D03*
G04 #@! TO.P,A2,8,VMOT*
G04 #@! TO.N,/Vmot*
X67110000Y-38160000D03*
G04 #@! TO.P,A2,9,~{ENABLE}*
G04 #@! TO.N,/MotY En*
X67110000Y-50860000D03*
G04 #@! TO.P,A2,10,MS1*
G04 #@! TO.N,unconnected-(A2-Pad10)*
X69650000Y-50860000D03*
G04 #@! TO.P,A2,11,MS2*
G04 #@! TO.N,unconnected-(A2-Pad11)*
X72190000Y-50860000D03*
G04 #@! TO.P,A2,12,MS3*
G04 #@! TO.N,unconnected-(A2-Pad12)*
X74730000Y-50860000D03*
G04 #@! TO.P,A2,13,~{RESET}*
G04 #@! TO.N,unconnected-(A2-Pad13)*
X77270000Y-50860000D03*
G04 #@! TO.P,A2,14,~{SLEEP}*
G04 #@! TO.N,unconnected-(A2-Pad14)*
X79810000Y-50860000D03*
G04 #@! TO.P,A2,15,STEP*
G04 #@! TO.N,/MotY Step*
X82350000Y-50860000D03*
G04 #@! TO.P,A2,16,DIR*
G04 #@! TO.N,/MotY DIR*
X84890000Y-50860000D03*
G04 #@! TD*
D14*
G04 #@! TO.P,A1,1,GND*
G04 #@! TO.N,Net-(A1-Pad1)*
X53890000Y-38160000D03*
D15*
G04 #@! TO.P,A1,2,VDD*
G04 #@! TO.N,Net-(J1-Pad2)*
X51350000Y-38160000D03*
G04 #@! TO.P,A1,3,1B*
G04 #@! TO.N,unconnected-(A1-Pad3)*
X48810000Y-38160000D03*
G04 #@! TO.P,A1,4,1A*
G04 #@! TO.N,unconnected-(A1-Pad4)*
X46270000Y-38160000D03*
G04 #@! TO.P,A1,5,2A*
G04 #@! TO.N,unconnected-(A1-Pad5)*
X43730000Y-38160000D03*
G04 #@! TO.P,A1,6,2B*
G04 #@! TO.N,unconnected-(A1-Pad6)*
X41190000Y-38160000D03*
G04 #@! TO.P,A1,7,GND*
G04 #@! TO.N,Net-(A1-Pad1)*
X38650000Y-38160000D03*
G04 #@! TO.P,A1,8,VMOT*
G04 #@! TO.N,/Vmot*
X36110000Y-38160000D03*
G04 #@! TO.P,A1,9,~{ENABLE}*
G04 #@! TO.N,/MotX En*
X36110000Y-50860000D03*
G04 #@! TO.P,A1,10,MS1*
G04 #@! TO.N,unconnected-(A1-Pad10)*
X38650000Y-50860000D03*
G04 #@! TO.P,A1,11,MS2*
G04 #@! TO.N,unconnected-(A1-Pad11)*
X41190000Y-50860000D03*
G04 #@! TO.P,A1,12,MS3*
G04 #@! TO.N,unconnected-(A1-Pad12)*
X43730000Y-50860000D03*
G04 #@! TO.P,A1,13,~{RESET}*
G04 #@! TO.N,unconnected-(A1-Pad13)*
X46270000Y-50860000D03*
G04 #@! TO.P,A1,14,~{SLEEP}*
G04 #@! TO.N,unconnected-(A1-Pad14)*
X48810000Y-50860000D03*
G04 #@! TO.P,A1,15,STEP*
G04 #@! TO.N,/MotX Step*
X51350000Y-50860000D03*
G04 #@! TO.P,A1,16,DIR*
G04 #@! TO.N,/MotX DIR*
X53890000Y-50860000D03*
G04 #@! TD*
D10*
G04 #@! TO.P,J2,1,Pin_1*
G04 #@! TO.N,Net-(J1-Pad2)*
X78000000Y-60500000D03*
D11*
G04 #@! TO.P,J2,2,Pin_2*
G04 #@! TO.N,Net-(J1-Pad20)*
X80500000Y-60500000D03*
G04 #@! TO.P,J2,3,Pin_3*
G04 #@! TO.N,/X+*
X83000000Y-60500000D03*
G04 #@! TD*
D16*
G04 #@! TO.P,J1,1,3V3*
G04 #@! TO.N,unconnected-(J1-Pad1)*
X36500000Y-31000000D03*
D17*
G04 #@! TO.P,J1,2,5V*
G04 #@! TO.N,Net-(J1-Pad2)*
X36500000Y-28460000D03*
G04 #@! TO.P,J1,3,SDA/GPIO2*
G04 #@! TO.N,unconnected-(J1-Pad3)*
X39040000Y-31000000D03*
G04 #@! TO.P,J1,4,5V*
G04 #@! TO.N,Net-(J1-Pad2)*
X39040000Y-28460000D03*
G04 #@! TO.P,J1,5,SCL/GPIO3*
G04 #@! TO.N,unconnected-(J1-Pad5)*
X41580000Y-31000000D03*
G04 #@! TO.P,J1,6,GND*
G04 #@! TO.N,Net-(J1-Pad20)*
X41580000Y-28460000D03*
G04 #@! TO.P,J1,7,GCLK0/GPIO4*
G04 #@! TO.N,unconnected-(J1-Pad7)*
X44120000Y-31000000D03*
G04 #@! TO.P,J1,8,GPIO14/TXD*
G04 #@! TO.N,unconnected-(J1-Pad8)*
X44120000Y-28460000D03*
G04 #@! TO.P,J1,9,GND*
G04 #@! TO.N,Net-(J1-Pad20)*
X46660000Y-31000000D03*
G04 #@! TO.P,J1,10,GPIO15/RXD*
G04 #@! TO.N,unconnected-(J1-Pad10)*
X46660000Y-28460000D03*
G04 #@! TO.P,J1,11,GPIO17*
G04 #@! TO.N,/MotX Step*
X49200000Y-31000000D03*
G04 #@! TO.P,J1,12,GPIO18/PWM0*
G04 #@! TO.N,unconnected-(J1-Pad12)*
X49200000Y-28460000D03*
G04 #@! TO.P,J1,13,GPIO27*
G04 #@! TO.N,unconnected-(J1-Pad13)*
X51740000Y-31000000D03*
G04 #@! TO.P,J1,14,GND*
G04 #@! TO.N,Net-(J1-Pad20)*
X51740000Y-28460000D03*
G04 #@! TO.P,J1,15,GPIO22*
G04 #@! TO.N,/MotX DIR*
X54280000Y-31000000D03*
G04 #@! TO.P,J1,16,GPIO23*
G04 #@! TO.N,/MotX En*
X54280000Y-28460000D03*
G04 #@! TO.P,J1,17,3V3*
G04 #@! TO.N,unconnected-(J1-Pad17)*
X56820000Y-31000000D03*
G04 #@! TO.P,J1,18,GPIO24*
G04 #@! TO.N,/MotY DIR*
X56820000Y-28460000D03*
G04 #@! TO.P,J1,19,MOSI0/GPIO10*
G04 #@! TO.N,unconnected-(J1-Pad19)*
X59360000Y-31000000D03*
G04 #@! TO.P,J1,20,GND*
G04 #@! TO.N,Net-(J1-Pad20)*
X59360000Y-28460000D03*
G04 #@! TO.P,J1,21,MISO0/GPIO9*
G04 #@! TO.N,unconnected-(J1-Pad21)*
X61900000Y-31000000D03*
G04 #@! TO.P,J1,22,GPIO25*
G04 #@! TO.N,/MotY Step*
X61900000Y-28460000D03*
G04 #@! TO.P,J1,23,SCLK0/GPIO11*
G04 #@! TO.N,unconnected-(J1-Pad23)*
X64440000Y-31000000D03*
G04 #@! TO.P,J1,24,~{CE0}/GPIO8*
G04 #@! TO.N,unconnected-(J1-Pad24)*
X64440000Y-28460000D03*
G04 #@! TO.P,J1,25,GND*
G04 #@! TO.N,Net-(J1-Pad20)*
X66980000Y-31000000D03*
G04 #@! TO.P,J1,26,~{CE1}/GPIO7*
G04 #@! TO.N,unconnected-(J1-Pad26)*
X66980000Y-28460000D03*
G04 #@! TO.P,J1,27,ID_SD/GPIO0*
G04 #@! TO.N,unconnected-(J1-Pad27)*
X69520000Y-31000000D03*
G04 #@! TO.P,J1,28,ID_SC/GPIO1*
G04 #@! TO.N,unconnected-(J1-Pad28)*
X69520000Y-28460000D03*
G04 #@! TO.P,J1,29,GCLK1/GPIO5*
G04 #@! TO.N,unconnected-(J1-Pad29)*
X72060000Y-31000000D03*
G04 #@! TO.P,J1,30,GND*
G04 #@! TO.N,Net-(J1-Pad20)*
X72060000Y-28460000D03*
G04 #@! TO.P,J1,31,GCLK2/GPIO6*
G04 #@! TO.N,unconnected-(J1-Pad31)*
X74600000Y-31000000D03*
G04 #@! TO.P,J1,32,PWM0/GPIO12*
G04 #@! TO.N,/MotY En*
X74600000Y-28460000D03*
G04 #@! TO.P,J1,33,PWM1/GPIO13*
G04 #@! TO.N,unconnected-(J1-Pad33)*
X77140000Y-31000000D03*
G04 #@! TO.P,J1,34,GND*
G04 #@! TO.N,Net-(J1-Pad20)*
X77140000Y-28460000D03*
G04 #@! TO.P,J1,35,GPIO19/MISO1*
G04 #@! TO.N,unconnected-(J1-Pad35)*
X79680000Y-31000000D03*
G04 #@! TO.P,J1,36,GPIO16*
G04 #@! TO.N,unconnected-(J1-Pad36)*
X79680000Y-28460000D03*
G04 #@! TO.P,J1,37,GPIO26*
G04 #@! TO.N,unconnected-(J1-Pad37)*
X82220000Y-31000000D03*
G04 #@! TO.P,J1,38,GPIO20/MOSI1*
G04 #@! TO.N,/X+*
X82220000Y-28460000D03*
G04 #@! TO.P,J1,39,GND*
G04 #@! TO.N,Net-(J1-Pad20)*
X84760000Y-31000000D03*
G04 #@! TO.P,J1,40,GPIO21/SCLK1*
G04 #@! TO.N,/Y+*
X84760000Y-28460000D03*
G04 #@! TD*
D18*
G04 #@! TO.N,/MotX En*
X48500000Y-35800000D03*
X34600000Y-45000000D03*
X50400000Y-32700000D03*
G04 #@! TO.N,/MotX Step*
X37500000Y-44300000D03*
X38100000Y-34700000D03*
G04 #@! TO.N,/MotX DIR*
X52000000Y-46400000D03*
X52800000Y-41400000D03*
X57900000Y-37900000D03*
G04 #@! TO.N,/MotY En*
X82500000Y-53500000D03*
G04 #@! TO.N,/X+*
X87224500Y-48600000D03*
G04 #@! TO.N,Net-(J1-Pad20)*
X40700000Y-32200000D03*
G04 #@! TD*
D19*
G04 #@! TO.N,Net-(A1-Pad1)*
X68325480Y-36835480D02*
X39974520Y-36835480D01*
X39974520Y-36835480D02*
X38650000Y-38160000D01*
X69650000Y-38160000D02*
X68325480Y-36835480D01*
X55214520Y-36835480D02*
X53890000Y-38160000D01*
X68325480Y-36835480D02*
X55214520Y-36835480D01*
D20*
G04 #@! TO.N,/Vmot*
X40338151Y-43519521D02*
X36110000Y-39291370D01*
X61750479Y-43519521D02*
X67110000Y-38160000D01*
X61750479Y-43519521D02*
X40338151Y-43519521D01*
X62000000Y-61500000D02*
X62000000Y-43769042D01*
X36110000Y-39291370D02*
X36110000Y-38160000D01*
X62000000Y-43769042D02*
X61750479Y-43519521D01*
D19*
G04 #@! TO.N,/MotX En*
X48500000Y-35800000D02*
X36596846Y-35800000D01*
X54280000Y-28460000D02*
X53105489Y-27285489D01*
X51214511Y-27285489D02*
X50374511Y-28125489D01*
X50374511Y-28946499D02*
X50374511Y-32674511D01*
X50374511Y-28125489D02*
X50374511Y-28946499D01*
X53105489Y-27285489D02*
X51214511Y-27285489D01*
X34600000Y-37796846D02*
X34600000Y-45000000D01*
X50374511Y-32674511D02*
X50400000Y-32700000D01*
X36596846Y-35800000D02*
X34600000Y-37796846D01*
G04 #@! TO.N,/MotX Step*
X38100000Y-34700000D02*
X45500000Y-34700000D01*
X38199700Y-52000000D02*
X50210000Y-52000000D01*
X45500000Y-34700000D02*
X49200000Y-31000000D01*
X37525489Y-50025489D02*
X37525489Y-44325489D01*
X37525489Y-50025489D02*
X37525489Y-51325789D01*
X37525489Y-44325489D02*
X37500000Y-44300000D01*
X37525489Y-51325789D02*
X38199700Y-52000000D01*
X50210000Y-52000000D02*
X51350000Y-50860000D01*
G04 #@! TO.N,/MotX DIR*
X52012621Y-46412621D02*
X52000000Y-46400000D01*
X53890000Y-50860000D02*
X52012621Y-48982621D01*
X55100000Y-41400000D02*
X57900000Y-38600000D01*
X52012621Y-48982621D02*
X52012621Y-46412621D01*
X57900000Y-38600000D02*
X57900000Y-37900000D01*
X52800000Y-41400000D02*
X55100000Y-41400000D01*
G04 #@! TO.N,/MotY En*
X74600000Y-28460000D02*
X75774511Y-29634511D01*
X85000000Y-33000000D02*
X86014511Y-34014511D01*
X75774511Y-31774511D02*
X77000000Y-33000000D01*
X85000000Y-53500000D02*
X83000000Y-53500000D01*
X83000000Y-53500000D02*
X82500000Y-53500000D01*
X85500000Y-53000000D02*
X85000000Y-53500000D01*
X75774511Y-29634511D02*
X75774511Y-31774511D01*
X77000000Y-33000000D02*
X85000000Y-33000000D01*
X86014511Y-34014511D02*
X86014511Y-52485489D01*
X86014511Y-52485489D02*
X85500000Y-53000000D01*
G04 #@! TO.N,/MotY DIR*
X71538014Y-39389292D02*
X70774511Y-38625789D01*
X81884211Y-37035489D02*
X81225489Y-37694211D01*
X58873501Y-32174511D02*
X58000000Y-31301010D01*
X58000000Y-31301010D02*
X58000000Y-29640000D01*
X80484991Y-39389292D02*
X71538014Y-39389292D01*
X70774511Y-38625789D02*
X70774511Y-37694211D01*
X70774511Y-37694211D02*
X65254811Y-32174511D01*
X83474511Y-37694211D02*
X82815789Y-37035489D01*
X65254811Y-32174511D02*
X58873501Y-32174511D01*
X84890000Y-50860000D02*
X83474511Y-49444511D01*
X81225489Y-38648794D02*
X80484991Y-39389292D01*
X83474511Y-49444511D02*
X83474511Y-37694211D01*
X82815789Y-37035489D02*
X81884211Y-37035489D01*
X58000000Y-29640000D02*
X56820000Y-28460000D01*
X81225489Y-37694211D02*
X81225489Y-38648794D01*
G04 #@! TO.N,/X+*
X87224500Y-48600000D02*
X87224500Y-56275500D01*
X87224500Y-56275500D02*
X83000000Y-60500000D01*
G04 #@! TO.N,Net-(J1-Pad20)*
X70885489Y-27285489D02*
X68842523Y-27285489D01*
X65805489Y-27805489D02*
X65000000Y-27000000D01*
X86500000Y-32740000D02*
X84760000Y-31000000D01*
X80854511Y-28854511D02*
X80854511Y-27854511D01*
X59360000Y-28460000D02*
X58185489Y-27285489D01*
X86500000Y-54500000D02*
X86500000Y-32740000D01*
X68154511Y-29825489D02*
X66980000Y-31000000D01*
X65000000Y-27000000D02*
X60820000Y-27000000D01*
X52914511Y-29634511D02*
X51740000Y-28460000D01*
X55454511Y-28045489D02*
X55454511Y-29045489D01*
X56214511Y-27285489D02*
X55454511Y-28045489D01*
X54865489Y-29634511D02*
X52914511Y-29634511D01*
X60820000Y-27000000D02*
X59360000Y-28460000D01*
X80854511Y-27854511D02*
X80285489Y-27285489D01*
X84760000Y-31000000D02*
X83881010Y-31000000D01*
X68154511Y-27973501D02*
X68154511Y-29825489D01*
X80500000Y-60500000D02*
X86500000Y-54500000D01*
X68842523Y-27285489D02*
X68154511Y-27973501D01*
X45460000Y-32200000D02*
X46660000Y-31000000D01*
X72060000Y-28460000D02*
X70885489Y-27285489D01*
X78314511Y-27285489D02*
X77140000Y-28460000D01*
X75965489Y-27285489D02*
X73234511Y-27285489D01*
X40700000Y-32200000D02*
X45460000Y-32200000D01*
X65805489Y-29825489D02*
X65805489Y-27805489D01*
X66980000Y-31000000D02*
X65805489Y-29825489D01*
X80285489Y-27285489D02*
X78314511Y-27285489D01*
X55454511Y-29045489D02*
X54865489Y-29634511D01*
X81634511Y-29634511D02*
X80854511Y-28854511D01*
X73234511Y-27285489D02*
X72060000Y-28460000D01*
X82515521Y-29634511D02*
X81634511Y-29634511D01*
X83881010Y-31000000D02*
X82515521Y-29634511D01*
X77140000Y-28460000D02*
X75965489Y-27285489D01*
X58185489Y-27285489D02*
X56214511Y-27285489D01*
G04 #@! TO.N,Net-(J1-Pad2)*
X78000000Y-60500000D02*
X80934511Y-57565489D01*
X80934511Y-39575489D02*
X82350000Y-38160000D01*
X80934511Y-57565489D02*
X80934511Y-39575489D01*
G04 #@! TD*
G04 #@! TA.AperFunction,Conductor*
G04 #@! TO.N,/Vmot*
G36*
X50580846Y-26807182D02*
G01*
X50627339Y-26860838D01*
X50637443Y-26931112D01*
X50607949Y-26995692D01*
X50601820Y-27002275D01*
X50215267Y-27388828D01*
X50152955Y-27422854D01*
X50082140Y-27417789D01*
X50048084Y-27398618D01*
X49954359Y-27324598D01*
X49758789Y-27216638D01*
X49753920Y-27214914D01*
X49753916Y-27214912D01*
X49553087Y-27143795D01*
X49553083Y-27143794D01*
X49548212Y-27142069D01*
X49543119Y-27141162D01*
X49543116Y-27141161D01*
X49333373Y-27103800D01*
X49333367Y-27103799D01*
X49328284Y-27102894D01*
X49254452Y-27101992D01*
X49110081Y-27100228D01*
X49110079Y-27100228D01*
X49104911Y-27100165D01*
X48884091Y-27133955D01*
X48671756Y-27203357D01*
X48641443Y-27219137D01*
X48495545Y-27295087D01*
X48473607Y-27306507D01*
X48469474Y-27309610D01*
X48469471Y-27309612D01*
X48299100Y-27437530D01*
X48294965Y-27440635D01*
X48140629Y-27602138D01*
X48033201Y-27759621D01*
X47978293Y-27804621D01*
X47907768Y-27812792D01*
X47844021Y-27781538D01*
X47823324Y-27757054D01*
X47742822Y-27632617D01*
X47742820Y-27632614D01*
X47740014Y-27628277D01*
X47589670Y-27463051D01*
X47585619Y-27459852D01*
X47585615Y-27459848D01*
X47418414Y-27327800D01*
X47418408Y-27327796D01*
X47414359Y-27324598D01*
X47218789Y-27216638D01*
X47213920Y-27214914D01*
X47213916Y-27214912D01*
X47013087Y-27143795D01*
X47013083Y-27143794D01*
X47008212Y-27142069D01*
X47003119Y-27141162D01*
X47003116Y-27141161D01*
X46793373Y-27103800D01*
X46793367Y-27103799D01*
X46788284Y-27102894D01*
X46714452Y-27101992D01*
X46570081Y-27100228D01*
X46570079Y-27100228D01*
X46564911Y-27100165D01*
X46344091Y-27133955D01*
X46131756Y-27203357D01*
X46101443Y-27219137D01*
X45955545Y-27295087D01*
X45933607Y-27306507D01*
X45929474Y-27309610D01*
X45929471Y-27309612D01*
X45759100Y-27437530D01*
X45754965Y-27440635D01*
X45600629Y-27602138D01*
X45493201Y-27759621D01*
X45438293Y-27804621D01*
X45367768Y-27812792D01*
X45304021Y-27781538D01*
X45283324Y-27757054D01*
X45202822Y-27632617D01*
X45202820Y-27632614D01*
X45200014Y-27628277D01*
X45049670Y-27463051D01*
X45045619Y-27459852D01*
X45045615Y-27459848D01*
X44878414Y-27327800D01*
X44878408Y-27327796D01*
X44874359Y-27324598D01*
X44678789Y-27216638D01*
X44673920Y-27214914D01*
X44673916Y-27214912D01*
X44473087Y-27143795D01*
X44473083Y-27143794D01*
X44468212Y-27142069D01*
X44463119Y-27141162D01*
X44463116Y-27141161D01*
X44253373Y-27103800D01*
X44253367Y-27103799D01*
X44248284Y-27102894D01*
X44174452Y-27101992D01*
X44030081Y-27100228D01*
X44030079Y-27100228D01*
X44024911Y-27100165D01*
X43804091Y-27133955D01*
X43591756Y-27203357D01*
X43561443Y-27219137D01*
X43415545Y-27295087D01*
X43393607Y-27306507D01*
X43389474Y-27309610D01*
X43389471Y-27309612D01*
X43219100Y-27437530D01*
X43214965Y-27440635D01*
X43060629Y-27602138D01*
X42953201Y-27759621D01*
X42898293Y-27804621D01*
X42827768Y-27812792D01*
X42764021Y-27781538D01*
X42743324Y-27757054D01*
X42662822Y-27632617D01*
X42662820Y-27632614D01*
X42660014Y-27628277D01*
X42509670Y-27463051D01*
X42505619Y-27459852D01*
X42505615Y-27459848D01*
X42338414Y-27327800D01*
X42338408Y-27327796D01*
X42334359Y-27324598D01*
X42138789Y-27216638D01*
X42133920Y-27214914D01*
X42133916Y-27214912D01*
X41933087Y-27143795D01*
X41933083Y-27143794D01*
X41928212Y-27142069D01*
X41923119Y-27141162D01*
X41923116Y-27141161D01*
X41713373Y-27103800D01*
X41713367Y-27103799D01*
X41708284Y-27102894D01*
X41634452Y-27101992D01*
X41490081Y-27100228D01*
X41490079Y-27100228D01*
X41484911Y-27100165D01*
X41264091Y-27133955D01*
X41051756Y-27203357D01*
X41021443Y-27219137D01*
X40875545Y-27295087D01*
X40853607Y-27306507D01*
X40849474Y-27309610D01*
X40849471Y-27309612D01*
X40679100Y-27437530D01*
X40674965Y-27440635D01*
X40520629Y-27602138D01*
X40413201Y-27759621D01*
X40358293Y-27804621D01*
X40287768Y-27812792D01*
X40224021Y-27781538D01*
X40203324Y-27757054D01*
X40122822Y-27632617D01*
X40122820Y-27632614D01*
X40120014Y-27628277D01*
X39969670Y-27463051D01*
X39965619Y-27459852D01*
X39965615Y-27459848D01*
X39798414Y-27327800D01*
X39798408Y-27327796D01*
X39794359Y-27324598D01*
X39598789Y-27216638D01*
X39593920Y-27214914D01*
X39593916Y-27214912D01*
X39393087Y-27143795D01*
X39393083Y-27143794D01*
X39388212Y-27142069D01*
X39383119Y-27141162D01*
X39383116Y-27141161D01*
X39173373Y-27103800D01*
X39173367Y-27103799D01*
X39168284Y-27102894D01*
X39094452Y-27101992D01*
X38950081Y-27100228D01*
X38950079Y-27100228D01*
X38944911Y-27100165D01*
X38724091Y-27133955D01*
X38511756Y-27203357D01*
X38481443Y-27219137D01*
X38335545Y-27295087D01*
X38313607Y-27306507D01*
X38309474Y-27309610D01*
X38309471Y-27309612D01*
X38139100Y-27437530D01*
X38134965Y-27440635D01*
X37980629Y-27602138D01*
X37873201Y-27759621D01*
X37818293Y-27804621D01*
X37747768Y-27812792D01*
X37684021Y-27781538D01*
X37663324Y-27757054D01*
X37582822Y-27632617D01*
X37582820Y-27632614D01*
X37580014Y-27628277D01*
X37429670Y-27463051D01*
X37425619Y-27459852D01*
X37425615Y-27459848D01*
X37258414Y-27327800D01*
X37258408Y-27327796D01*
X37254359Y-27324598D01*
X37058789Y-27216638D01*
X37053920Y-27214914D01*
X37053916Y-27214912D01*
X36853087Y-27143795D01*
X36853083Y-27143794D01*
X36848212Y-27142069D01*
X36843119Y-27141162D01*
X36843116Y-27141161D01*
X36633373Y-27103800D01*
X36633367Y-27103799D01*
X36628284Y-27102894D01*
X36554452Y-27101992D01*
X36410081Y-27100228D01*
X36410079Y-27100228D01*
X36404911Y-27100165D01*
X36184091Y-27133955D01*
X35971756Y-27203357D01*
X35941443Y-27219137D01*
X35795545Y-27295087D01*
X35773607Y-27306507D01*
X35769474Y-27309610D01*
X35769471Y-27309612D01*
X35599100Y-27437530D01*
X35594965Y-27440635D01*
X35440629Y-27602138D01*
X35314743Y-27786680D01*
X35220688Y-27989305D01*
X35160989Y-28204570D01*
X35137251Y-28426695D01*
X35137548Y-28431848D01*
X35137548Y-28431851D01*
X35143011Y-28526590D01*
X35150110Y-28649715D01*
X35151247Y-28654761D01*
X35151248Y-28654767D01*
X35168082Y-28729464D01*
X35199222Y-28867639D01*
X35283266Y-29074616D01*
X35329996Y-29150873D01*
X35397291Y-29260688D01*
X35399987Y-29265088D01*
X35546250Y-29433938D01*
X35550230Y-29437242D01*
X35554981Y-29441187D01*
X35594616Y-29500090D01*
X35596113Y-29571071D01*
X35558997Y-29631593D01*
X35518725Y-29656112D01*
X35430095Y-29689338D01*
X35403295Y-29699385D01*
X35286739Y-29786739D01*
X35199385Y-29903295D01*
X35148255Y-30039684D01*
X35141500Y-30101866D01*
X35141500Y-31898134D01*
X35148255Y-31960316D01*
X35199385Y-32096705D01*
X35286739Y-32213261D01*
X35403295Y-32300615D01*
X35539684Y-32351745D01*
X35601866Y-32358500D01*
X37398134Y-32358500D01*
X37460316Y-32351745D01*
X37596705Y-32300615D01*
X37713261Y-32213261D01*
X37800615Y-32096705D01*
X37823220Y-32036407D01*
X37844598Y-31979382D01*
X37887240Y-31922618D01*
X37953802Y-31897918D01*
X38023150Y-31913126D01*
X38057817Y-31941114D01*
X38086250Y-31973938D01*
X38258126Y-32116632D01*
X38451000Y-32229338D01*
X38455825Y-32231180D01*
X38455826Y-32231181D01*
X38488317Y-32243588D01*
X38659692Y-32309030D01*
X38664760Y-32310061D01*
X38664763Y-32310062D01*
X38772017Y-32331883D01*
X38878597Y-32353567D01*
X38883772Y-32353757D01*
X38883774Y-32353757D01*
X39096673Y-32361564D01*
X39096677Y-32361564D01*
X39101837Y-32361753D01*
X39106957Y-32361097D01*
X39106959Y-32361097D01*
X39318288Y-32334025D01*
X39318289Y-32334025D01*
X39323416Y-32333368D01*
X39337919Y-32329017D01*
X39532429Y-32270661D01*
X39532434Y-32270659D01*
X39537384Y-32269174D01*
X39619317Y-32229036D01*
X39689288Y-32217030D01*
X39754645Y-32244760D01*
X39794635Y-32303423D01*
X39800056Y-32329017D01*
X39805307Y-32378973D01*
X39806458Y-32389928D01*
X39865473Y-32571556D01*
X39868776Y-32577278D01*
X39868777Y-32577279D01*
X39875843Y-32589517D01*
X39960960Y-32736944D01*
X39965378Y-32741851D01*
X39965379Y-32741852D01*
X40047452Y-32833003D01*
X40088747Y-32878866D01*
X40243248Y-32991118D01*
X40249276Y-32993802D01*
X40249278Y-32993803D01*
X40409799Y-33065271D01*
X40417712Y-33068794D01*
X40511113Y-33088647D01*
X40598056Y-33107128D01*
X40598061Y-33107128D01*
X40604513Y-33108500D01*
X40795487Y-33108500D01*
X40801939Y-33107128D01*
X40801944Y-33107128D01*
X40888887Y-33088647D01*
X40982288Y-33068794D01*
X40990201Y-33065271D01*
X41150722Y-32993803D01*
X41150724Y-32993802D01*
X41156752Y-32991118D01*
X41311253Y-32878866D01*
X41315668Y-32873963D01*
X41320580Y-32869540D01*
X41321705Y-32870789D01*
X41375014Y-32837949D01*
X41408200Y-32833500D01*
X45381233Y-32833500D01*
X45392416Y-32834027D01*
X45399909Y-32835702D01*
X45407835Y-32835453D01*
X45407836Y-32835453D01*
X45467986Y-32833562D01*
X45471945Y-32833500D01*
X45499856Y-32833500D01*
X45503791Y-32833003D01*
X45503856Y-32832995D01*
X45515693Y-32832062D01*
X45547951Y-32831048D01*
X45551970Y-32830922D01*
X45559889Y-32830673D01*
X45579343Y-32825021D01*
X45598700Y-32821013D01*
X45610930Y-32819468D01*
X45610931Y-32819468D01*
X45618797Y-32818474D01*
X45626168Y-32815555D01*
X45626170Y-32815555D01*
X45659912Y-32802196D01*
X45671142Y-32798351D01*
X45705983Y-32788229D01*
X45705984Y-32788229D01*
X45713593Y-32786018D01*
X45720412Y-32781985D01*
X45720417Y-32781983D01*
X45731028Y-32775707D01*
X45748776Y-32767012D01*
X45767617Y-32759552D01*
X45803387Y-32733564D01*
X45813307Y-32727048D01*
X45844535Y-32708580D01*
X45844538Y-32708578D01*
X45851362Y-32704542D01*
X45865683Y-32690221D01*
X45880717Y-32677380D01*
X45890694Y-32670131D01*
X45897107Y-32665472D01*
X45925298Y-32631395D01*
X45933288Y-32622616D01*
X46204549Y-32351355D01*
X46266861Y-32317329D01*
X46318762Y-32316979D01*
X46498597Y-32353567D01*
X46503771Y-32353757D01*
X46503773Y-32353757D01*
X46571293Y-32356233D01*
X46645649Y-32358959D01*
X46712990Y-32381443D01*
X46757486Y-32436767D01*
X46765008Y-32507364D01*
X46730126Y-32573969D01*
X45274500Y-34029595D01*
X45212188Y-34063621D01*
X45185405Y-34066500D01*
X38808200Y-34066500D01*
X38740079Y-34046498D01*
X38720853Y-34030157D01*
X38720580Y-34030460D01*
X38715668Y-34026037D01*
X38711253Y-34021134D01*
X38556752Y-33908882D01*
X38550724Y-33906198D01*
X38550722Y-33906197D01*
X38388319Y-33833891D01*
X38388318Y-33833891D01*
X38382288Y-33831206D01*
X38288888Y-33811353D01*
X38201944Y-33792872D01*
X38201939Y-33792872D01*
X38195487Y-33791500D01*
X38004513Y-33791500D01*
X37998061Y-33792872D01*
X37998056Y-33792872D01*
X37911112Y-33811353D01*
X37817712Y-33831206D01*
X37811682Y-33833891D01*
X37811681Y-33833891D01*
X37649278Y-33906197D01*
X37649276Y-33906198D01*
X37643248Y-33908882D01*
X37488747Y-34021134D01*
X37484326Y-34026044D01*
X37484325Y-34026045D01*
X37450492Y-34063621D01*
X37360960Y-34163056D01*
X37302686Y-34263990D01*
X37280555Y-34302322D01*
X37265473Y-34328444D01*
X37206458Y-34510072D01*
X37186496Y-34700000D01*
X37206458Y-34889928D01*
X37208498Y-34896206D01*
X37242731Y-35001564D01*
X37244759Y-35072531D01*
X37208096Y-35133329D01*
X37144384Y-35164655D01*
X37122898Y-35166500D01*
X36675614Y-35166500D01*
X36664431Y-35165973D01*
X36656938Y-35164298D01*
X36649012Y-35164547D01*
X36649011Y-35164547D01*
X36588848Y-35166438D01*
X36584890Y-35166500D01*
X36556990Y-35166500D01*
X36553000Y-35167004D01*
X36541166Y-35167936D01*
X36496957Y-35169326D01*
X36489343Y-35171538D01*
X36489338Y-35171539D01*
X36477505Y-35174977D01*
X36458142Y-35178988D01*
X36438049Y-35181526D01*
X36430682Y-35184443D01*
X36430677Y-35184444D01*
X36396938Y-35197802D01*
X36385711Y-35201646D01*
X36343253Y-35213982D01*
X36336427Y-35218019D01*
X36325818Y-35224293D01*
X36308070Y-35232988D01*
X36289229Y-35240448D01*
X36282813Y-35245110D01*
X36282812Y-35245110D01*
X36253459Y-35266436D01*
X36243539Y-35272952D01*
X36212311Y-35291420D01*
X36212308Y-35291422D01*
X36205484Y-35295458D01*
X36191163Y-35309779D01*
X36176130Y-35322619D01*
X36159739Y-35334528D01*
X36154688Y-35340634D01*
X36131548Y-35368605D01*
X36123558Y-35377384D01*
X34207747Y-37293194D01*
X34199461Y-37300734D01*
X34192982Y-37304846D01*
X34187557Y-37310623D01*
X34146357Y-37354497D01*
X34143602Y-37357339D01*
X34123865Y-37377076D01*
X34121385Y-37380273D01*
X34113682Y-37389293D01*
X34083414Y-37421525D01*
X34079595Y-37428471D01*
X34079593Y-37428474D01*
X34073652Y-37439280D01*
X34062801Y-37455799D01*
X34050386Y-37471805D01*
X34047241Y-37479074D01*
X34047238Y-37479078D01*
X34032826Y-37512383D01*
X34027609Y-37523033D01*
X34006305Y-37561786D01*
X34004334Y-37569461D01*
X34004334Y-37569462D01*
X34001267Y-37581408D01*
X33994863Y-37600112D01*
X33986819Y-37618701D01*
X33985580Y-37626524D01*
X33985577Y-37626534D01*
X33979901Y-37662370D01*
X33977495Y-37673990D01*
X33968472Y-37709135D01*
X33966500Y-37716816D01*
X33966500Y-37737070D01*
X33964949Y-37756780D01*
X33961780Y-37776789D01*
X33962526Y-37784681D01*
X33965941Y-37820807D01*
X33966500Y-37832665D01*
X33966500Y-44297476D01*
X33946498Y-44365597D01*
X33934142Y-44381779D01*
X33860960Y-44463056D01*
X33765473Y-44628444D01*
X33706458Y-44810072D01*
X33705768Y-44816633D01*
X33705768Y-44816635D01*
X33698262Y-44888055D01*
X33686496Y-45000000D01*
X33706458Y-45189928D01*
X33765473Y-45371556D01*
X33768776Y-45377278D01*
X33768777Y-45377279D01*
X33784865Y-45405144D01*
X33860960Y-45536944D01*
X33865378Y-45541851D01*
X33865379Y-45541852D01*
X33925733Y-45608882D01*
X33988747Y-45678866D01*
X34143248Y-45791118D01*
X34149276Y-45793802D01*
X34149278Y-45793803D01*
X34304824Y-45863056D01*
X34317712Y-45868794D01*
X34411112Y-45888647D01*
X34498056Y-45907128D01*
X34498061Y-45907128D01*
X34504513Y-45908500D01*
X34695487Y-45908500D01*
X34701939Y-45907128D01*
X34701944Y-45907128D01*
X34788888Y-45888647D01*
X34882288Y-45868794D01*
X34895176Y-45863056D01*
X35050722Y-45793803D01*
X35050724Y-45793802D01*
X35056752Y-45791118D01*
X35211253Y-45678866D01*
X35274267Y-45608882D01*
X35334621Y-45541852D01*
X35334622Y-45541851D01*
X35339040Y-45536944D01*
X35415135Y-45405144D01*
X35431223Y-45377279D01*
X35431224Y-45377278D01*
X35434527Y-45371556D01*
X35493542Y-45189928D01*
X35513504Y-45000000D01*
X35501738Y-44888055D01*
X35494232Y-44816635D01*
X35494232Y-44816633D01*
X35493542Y-44810072D01*
X35434527Y-44628444D01*
X35339040Y-44463056D01*
X35265863Y-44381785D01*
X35235147Y-44317779D01*
X35233500Y-44297476D01*
X35233500Y-39385085D01*
X35253502Y-39316964D01*
X35307158Y-39270471D01*
X35377432Y-39260367D01*
X35431770Y-39281871D01*
X35448996Y-39293932D01*
X35458489Y-39299414D01*
X35655947Y-39391490D01*
X35666239Y-39395236D01*
X35838503Y-39441394D01*
X35852599Y-39441058D01*
X35856000Y-39433116D01*
X35856000Y-38032000D01*
X35876002Y-37963879D01*
X35929658Y-37917386D01*
X35982000Y-37906000D01*
X36238000Y-37906000D01*
X36306121Y-37926002D01*
X36352614Y-37979658D01*
X36364000Y-38032000D01*
X36364000Y-39427967D01*
X36367973Y-39441498D01*
X36376522Y-39442727D01*
X36553761Y-39395236D01*
X36564053Y-39391490D01*
X36761511Y-39299414D01*
X36771007Y-39293931D01*
X36949467Y-39168972D01*
X36957875Y-39161916D01*
X37111916Y-39007875D01*
X37118972Y-38999467D01*
X37243931Y-38821007D01*
X37249414Y-38811511D01*
X37265529Y-38776951D01*
X37312446Y-38723666D01*
X37380723Y-38704205D01*
X37448683Y-38724747D01*
X37493919Y-38776951D01*
X37510151Y-38811762D01*
X37510154Y-38811767D01*
X37512477Y-38816749D01*
X37559891Y-38884463D01*
X37623511Y-38975321D01*
X37643802Y-39004300D01*
X37805700Y-39166198D01*
X37810208Y-39169355D01*
X37810211Y-39169357D01*
X37851542Y-39198297D01*
X37993251Y-39297523D01*
X37998233Y-39299846D01*
X37998238Y-39299849D01*
X38194765Y-39391490D01*
X38200757Y-39394284D01*
X38206065Y-39395706D01*
X38206067Y-39395707D01*
X38416598Y-39452119D01*
X38416600Y-39452119D01*
X38421913Y-39453543D01*
X38650000Y-39473498D01*
X38878087Y-39453543D01*
X38883400Y-39452119D01*
X38883402Y-39452119D01*
X39093933Y-39395707D01*
X39093935Y-39395706D01*
X39099243Y-39394284D01*
X39105235Y-39391490D01*
X39301762Y-39299849D01*
X39301767Y-39299846D01*
X39306749Y-39297523D01*
X39448458Y-39198297D01*
X39489789Y-39169357D01*
X39489792Y-39169355D01*
X39494300Y-39166198D01*
X39656198Y-39004300D01*
X39676490Y-38975321D01*
X39740109Y-38884463D01*
X39787523Y-38816749D01*
X39789846Y-38811767D01*
X39789849Y-38811762D01*
X39805805Y-38777543D01*
X39852722Y-38724258D01*
X39920999Y-38704797D01*
X39988959Y-38725339D01*
X40034195Y-38777543D01*
X40050151Y-38811762D01*
X40050154Y-38811767D01*
X40052477Y-38816749D01*
X40099891Y-38884463D01*
X40163511Y-38975321D01*
X40183802Y-39004300D01*
X40345700Y-39166198D01*
X40350208Y-39169355D01*
X40350211Y-39169357D01*
X40391542Y-39198297D01*
X40533251Y-39297523D01*
X40538233Y-39299846D01*
X40538238Y-39299849D01*
X40734765Y-39391490D01*
X40740757Y-39394284D01*
X40746065Y-39395706D01*
X40746067Y-39395707D01*
X40956598Y-39452119D01*
X40956600Y-39452119D01*
X40961913Y-39453543D01*
X41190000Y-39473498D01*
X41418087Y-39453543D01*
X41423400Y-39452119D01*
X41423402Y-39452119D01*
X41633933Y-39395707D01*
X41633935Y-39395706D01*
X41639243Y-39394284D01*
X41645235Y-39391490D01*
X41841762Y-39299849D01*
X41841767Y-39299846D01*
X41846749Y-39297523D01*
X41988458Y-39198297D01*
X42029789Y-39169357D01*
X42029792Y-39169355D01*
X42034300Y-39166198D01*
X42196198Y-39004300D01*
X42216490Y-38975321D01*
X42280109Y-38884463D01*
X42327523Y-38816749D01*
X42329846Y-38811767D01*
X42329849Y-38811762D01*
X42345805Y-38777543D01*
X42392722Y-38724258D01*
X42460999Y-38704797D01*
X42528959Y-38725339D01*
X42574195Y-38777543D01*
X42590151Y-38811762D01*
X42590154Y-38811767D01*
X42592477Y-38816749D01*
X42639891Y-38884463D01*
X42703511Y-38975321D01*
X42723802Y-39004300D01*
X42885700Y-39166198D01*
X42890208Y-39169355D01*
X42890211Y-39169357D01*
X42931542Y-39198297D01*
X43073251Y-39297523D01*
X43078233Y-39299846D01*
X43078238Y-39299849D01*
X43274765Y-39391490D01*
X43280757Y-39394284D01*
X43286065Y-39395706D01*
X43286067Y-39395707D01*
X43496598Y-39452119D01*
X43496600Y-39452119D01*
X43501913Y-39453543D01*
X43730000Y-39473498D01*
X43958087Y-39453543D01*
X43963400Y-39452119D01*
X43963402Y-39452119D01*
X44173933Y-39395707D01*
X44173935Y-39395706D01*
X44179243Y-39394284D01*
X44185235Y-39391490D01*
X44381762Y-39299849D01*
X44381767Y-39299846D01*
X44386749Y-39297523D01*
X44528458Y-39198297D01*
X44569789Y-39169357D01*
X44569792Y-39169355D01*
X44574300Y-39166198D01*
X44736198Y-39004300D01*
X44756490Y-38975321D01*
X44820109Y-38884463D01*
X44867523Y-38816749D01*
X44869846Y-38811767D01*
X44869849Y-38811762D01*
X44885805Y-38777543D01*
X44932722Y-38724258D01*
X45000999Y-38704797D01*
X45068959Y-38725339D01*
X45114195Y-38777543D01*
X45130151Y-38811762D01*
X45130154Y-38811767D01*
X45132477Y-38816749D01*
X45179891Y-38884463D01*
X45243511Y-38975321D01*
X45263802Y-39004300D01*
X45425700Y-39166198D01*
X45430208Y-39169355D01*
X45430211Y-39169357D01*
X45471542Y-39198297D01*
X45613251Y-39297523D01*
X45618233Y-39299846D01*
X45618238Y-39299849D01*
X45814765Y-39391490D01*
X45820757Y-39394284D01*
X45826065Y-39395706D01*
X45826067Y-39395707D01*
X46036598Y-39452119D01*
X46036600Y-39452119D01*
X46041913Y-39453543D01*
X46270000Y-39473498D01*
X46498087Y-39453543D01*
X46503400Y-39452119D01*
X46503402Y-39452119D01*
X46713933Y-39395707D01*
X46713935Y-39395706D01*
X46719243Y-39394284D01*
X46725235Y-39391490D01*
X46921762Y-39299849D01*
X46921767Y-39299846D01*
X46926749Y-39297523D01*
X47068458Y-39198297D01*
X47109789Y-39169357D01*
X47109792Y-39169355D01*
X47114300Y-39166198D01*
X47276198Y-39004300D01*
X47296490Y-38975321D01*
X47360109Y-38884463D01*
X47407523Y-38816749D01*
X47409846Y-38811767D01*
X47409849Y-38811762D01*
X47425805Y-38777543D01*
X47472722Y-38724258D01*
X47540999Y-38704797D01*
X47608959Y-38725339D01*
X47654195Y-38777543D01*
X47670151Y-38811762D01*
X47670154Y-38811767D01*
X47672477Y-38816749D01*
X47719891Y-38884463D01*
X47783511Y-38975321D01*
X47803802Y-39004300D01*
X47965700Y-39166198D01*
X47970208Y-39169355D01*
X47970211Y-39169357D01*
X48011542Y-39198297D01*
X48153251Y-39297523D01*
X48158233Y-39299846D01*
X48158238Y-39299849D01*
X48354765Y-39391490D01*
X48360757Y-39394284D01*
X48366065Y-39395706D01*
X48366067Y-39395707D01*
X48576598Y-39452119D01*
X48576600Y-39452119D01*
X48581913Y-39453543D01*
X48810000Y-39473498D01*
X49038087Y-39453543D01*
X49043400Y-39452119D01*
X49043402Y-39452119D01*
X49253933Y-39395707D01*
X49253935Y-39395706D01*
X49259243Y-39394284D01*
X49265235Y-39391490D01*
X49461762Y-39299849D01*
X49461767Y-39299846D01*
X49466749Y-39297523D01*
X49608458Y-39198297D01*
X49649789Y-39169357D01*
X49649792Y-39169355D01*
X49654300Y-39166198D01*
X49816198Y-39004300D01*
X49836490Y-38975321D01*
X49900109Y-38884463D01*
X49947523Y-38816749D01*
X49949846Y-38811767D01*
X49949849Y-38811762D01*
X49965805Y-38777543D01*
X50012722Y-38724258D01*
X50080999Y-38704797D01*
X50148959Y-38725339D01*
X50194195Y-38777543D01*
X50210151Y-38811762D01*
X50210154Y-38811767D01*
X50212477Y-38816749D01*
X50259891Y-38884463D01*
X50323511Y-38975321D01*
X50343802Y-39004300D01*
X50505700Y-39166198D01*
X50510208Y-39169355D01*
X50510211Y-39169357D01*
X50551542Y-39198297D01*
X50693251Y-39297523D01*
X50698233Y-39299846D01*
X50698238Y-39299849D01*
X50894765Y-39391490D01*
X50900757Y-39394284D01*
X50906065Y-39395706D01*
X50906067Y-39395707D01*
X51116598Y-39452119D01*
X51116600Y-39452119D01*
X51121913Y-39453543D01*
X51350000Y-39473498D01*
X51578087Y-39453543D01*
X51583400Y-39452119D01*
X51583402Y-39452119D01*
X51793933Y-39395707D01*
X51793935Y-39395706D01*
X51799243Y-39394284D01*
X51805235Y-39391490D01*
X52001762Y-39299849D01*
X52001767Y-39299846D01*
X52006749Y-39297523D01*
X52148458Y-39198297D01*
X52189789Y-39169357D01*
X52189792Y-39169355D01*
X52194300Y-39166198D01*
X52356198Y-39004300D01*
X52359357Y-38999789D01*
X52362892Y-38995576D01*
X52364026Y-38996527D01*
X52414071Y-38956529D01*
X52484690Y-38949224D01*
X52548049Y-38981258D01*
X52584030Y-39042462D01*
X52587082Y-39059517D01*
X52588255Y-39070316D01*
X52639385Y-39206705D01*
X52726739Y-39323261D01*
X52843295Y-39410615D01*
X52979684Y-39461745D01*
X53041866Y-39468500D01*
X54738134Y-39468500D01*
X54800316Y-39461745D01*
X54936705Y-39410615D01*
X55053261Y-39323261D01*
X55140615Y-39206705D01*
X55191745Y-39070316D01*
X55198500Y-39008134D01*
X55198500Y-37799594D01*
X55218502Y-37731473D01*
X55235405Y-37710499D01*
X55440019Y-37505885D01*
X55502331Y-37471859D01*
X55529114Y-37468980D01*
X56911370Y-37468980D01*
X56979491Y-37488982D01*
X57025984Y-37542638D01*
X57036088Y-37612912D01*
X57031204Y-37633911D01*
X57006458Y-37710072D01*
X57005768Y-37716633D01*
X57005768Y-37716635D01*
X56987704Y-37888503D01*
X56986496Y-37900000D01*
X56987186Y-37906565D01*
X57003234Y-38059250D01*
X57006458Y-38089928D01*
X57065473Y-38271556D01*
X57068776Y-38277278D01*
X57068777Y-38277279D01*
X57114885Y-38357140D01*
X57131623Y-38426135D01*
X57108403Y-38493227D01*
X57094861Y-38509235D01*
X54874500Y-40729595D01*
X54812188Y-40763621D01*
X54785405Y-40766500D01*
X53508200Y-40766500D01*
X53440079Y-40746498D01*
X53420853Y-40730157D01*
X53420580Y-40730460D01*
X53415668Y-40726037D01*
X53411253Y-40721134D01*
X53256752Y-40608882D01*
X53250724Y-40606198D01*
X53250722Y-40606197D01*
X53088319Y-40533891D01*
X53088318Y-40533891D01*
X53082288Y-40531206D01*
X52988888Y-40511353D01*
X52901944Y-40492872D01*
X52901939Y-40492872D01*
X52895487Y-40491500D01*
X52704513Y-40491500D01*
X52698061Y-40492872D01*
X52698056Y-40492872D01*
X52611112Y-40511353D01*
X52517712Y-40531206D01*
X52511682Y-40533891D01*
X52511681Y-40533891D01*
X52349278Y-40606197D01*
X52349276Y-40606198D01*
X52343248Y-40608882D01*
X52188747Y-40721134D01*
X52184326Y-40726044D01*
X52184325Y-40726045D01*
X52150492Y-40763621D01*
X52060960Y-40863056D01*
X51965473Y-41028444D01*
X51906458Y-41210072D01*
X51886496Y-41400000D01*
X51906458Y-41589928D01*
X51965473Y-41771556D01*
X52060960Y-41936944D01*
X52065378Y-41941851D01*
X52065379Y-41941852D01*
X52147452Y-42033003D01*
X52188747Y-42078866D01*
X52343248Y-42191118D01*
X52349276Y-42193802D01*
X52349278Y-42193803D01*
X52511681Y-42266109D01*
X52517712Y-42268794D01*
X52611113Y-42288647D01*
X52698056Y-42307128D01*
X52698061Y-42307128D01*
X52704513Y-42308500D01*
X52895487Y-42308500D01*
X52901939Y-42307128D01*
X52901944Y-42307128D01*
X52988887Y-42288647D01*
X53082288Y-42268794D01*
X53088319Y-42266109D01*
X53250722Y-42193803D01*
X53250724Y-42193802D01*
X53256752Y-42191118D01*
X53411253Y-42078866D01*
X53415668Y-42073963D01*
X53420580Y-42069540D01*
X53421705Y-42070789D01*
X53475014Y-42037949D01*
X53508200Y-42033500D01*
X55021233Y-42033500D01*
X55032416Y-42034027D01*
X55039909Y-42035702D01*
X55047835Y-42035453D01*
X55047836Y-42035453D01*
X55107986Y-42033562D01*
X55111945Y-42033500D01*
X55139856Y-42033500D01*
X55143791Y-42033003D01*
X55143856Y-42032995D01*
X55155693Y-42032062D01*
X55187951Y-42031048D01*
X55191970Y-42030922D01*
X55199889Y-42030673D01*
X55219343Y-42025021D01*
X55238700Y-42021013D01*
X55250930Y-42019468D01*
X55250931Y-42019468D01*
X55258797Y-42018474D01*
X55266168Y-42015555D01*
X55266170Y-42015555D01*
X55299912Y-42002196D01*
X55311142Y-41998351D01*
X55345983Y-41988229D01*
X55345984Y-41988229D01*
X55353593Y-41986018D01*
X55360412Y-41981985D01*
X55360417Y-41981983D01*
X55371028Y-41975707D01*
X55388776Y-41967012D01*
X55407617Y-41959552D01*
X55443387Y-41933564D01*
X55453307Y-41927048D01*
X55484535Y-41908580D01*
X55484538Y-41908578D01*
X55491362Y-41904542D01*
X55505683Y-41890221D01*
X55520717Y-41877380D01*
X55530694Y-41870131D01*
X55537107Y-41865472D01*
X55565298Y-41831395D01*
X55573288Y-41822616D01*
X58292253Y-39103652D01*
X58300539Y-39096112D01*
X58307018Y-39092000D01*
X58327381Y-39070316D01*
X58353643Y-39042349D01*
X58356398Y-39039507D01*
X58376135Y-39019770D01*
X58378615Y-39016573D01*
X58386320Y-39007551D01*
X58393609Y-38999789D01*
X58416586Y-38975321D01*
X58420405Y-38968375D01*
X58420407Y-38968372D01*
X58426348Y-38957566D01*
X58437199Y-38941047D01*
X58444758Y-38931301D01*
X58449614Y-38925041D01*
X58452759Y-38917772D01*
X58452762Y-38917768D01*
X58467174Y-38884463D01*
X58472391Y-38873813D01*
X58493695Y-38835060D01*
X58498733Y-38815437D01*
X58505137Y-38796734D01*
X58510033Y-38785420D01*
X58510033Y-38785419D01*
X58513181Y-38778145D01*
X58514420Y-38770322D01*
X58514423Y-38770312D01*
X58520099Y-38734476D01*
X58522505Y-38722856D01*
X58531528Y-38687711D01*
X58531528Y-38687710D01*
X58533500Y-38680030D01*
X58533500Y-38659776D01*
X58535051Y-38640065D01*
X58536980Y-38627886D01*
X58538220Y-38620057D01*
X58537339Y-38610740D01*
X58537554Y-38609633D01*
X58537723Y-38604242D01*
X58538593Y-38604269D01*
X58550841Y-38541040D01*
X58569140Y-38514576D01*
X58639040Y-38436944D01*
X58645057Y-38426522D01*
X65827273Y-38426522D01*
X65874764Y-38603761D01*
X65878510Y-38614053D01*
X65970586Y-38811511D01*
X65976069Y-38821007D01*
X66101028Y-38999467D01*
X66108084Y-39007875D01*
X66262125Y-39161916D01*
X66270533Y-39168972D01*
X66448993Y-39293931D01*
X66458489Y-39299414D01*
X66655947Y-39391490D01*
X66666239Y-39395236D01*
X66838503Y-39441394D01*
X66852599Y-39441058D01*
X66856000Y-39433116D01*
X66856000Y-38432115D01*
X66851525Y-38416876D01*
X66850135Y-38415671D01*
X66842452Y-38414000D01*
X65842033Y-38414000D01*
X65828502Y-38417973D01*
X65827273Y-38426522D01*
X58645057Y-38426522D01*
X58734527Y-38271556D01*
X58793542Y-38089928D01*
X58796767Y-38059250D01*
X58812814Y-37906565D01*
X58813504Y-37900000D01*
X58812296Y-37888503D01*
X58794232Y-37716635D01*
X58794232Y-37716633D01*
X58793542Y-37710072D01*
X58768797Y-37633915D01*
X58766769Y-37562949D01*
X58803432Y-37502151D01*
X58867144Y-37470826D01*
X58888630Y-37468980D01*
X65791229Y-37468980D01*
X65859350Y-37488982D01*
X65905843Y-37542638D01*
X65915947Y-37612912D01*
X65905424Y-37648230D01*
X65878510Y-37705947D01*
X65874764Y-37716239D01*
X65828606Y-37888503D01*
X65828942Y-37902599D01*
X65836884Y-37906000D01*
X67238000Y-37906000D01*
X67306121Y-37926002D01*
X67352614Y-37979658D01*
X67364000Y-38032000D01*
X67364000Y-39427967D01*
X67367973Y-39441498D01*
X67376522Y-39442727D01*
X67553761Y-39395236D01*
X67564053Y-39391490D01*
X67761511Y-39299414D01*
X67771007Y-39293931D01*
X67949467Y-39168972D01*
X67957875Y-39161916D01*
X68111916Y-39007875D01*
X68118972Y-38999467D01*
X68243931Y-38821007D01*
X68249414Y-38811511D01*
X68265529Y-38776951D01*
X68312446Y-38723666D01*
X68380723Y-38704205D01*
X68448683Y-38724747D01*
X68493919Y-38776951D01*
X68510151Y-38811762D01*
X68510154Y-38811767D01*
X68512477Y-38816749D01*
X68559891Y-38884463D01*
X68623511Y-38975321D01*
X68643802Y-39004300D01*
X68805700Y-39166198D01*
X68810208Y-39169355D01*
X68810211Y-39169357D01*
X68851542Y-39198297D01*
X68993251Y-39297523D01*
X68998233Y-39299846D01*
X68998238Y-39299849D01*
X69194765Y-39391490D01*
X69200757Y-39394284D01*
X69206065Y-39395706D01*
X69206067Y-39395707D01*
X69416598Y-39452119D01*
X69416600Y-39452119D01*
X69421913Y-39453543D01*
X69650000Y-39473498D01*
X69878087Y-39453543D01*
X69883400Y-39452119D01*
X69883402Y-39452119D01*
X70093933Y-39395707D01*
X70093935Y-39395706D01*
X70099243Y-39394284D01*
X70105235Y-39391490D01*
X70301762Y-39299849D01*
X70301767Y-39299846D01*
X70306749Y-39297523D01*
X70311878Y-39293932D01*
X70363415Y-39257845D01*
X70430689Y-39235157D01*
X70499550Y-39252442D01*
X70524781Y-39271963D01*
X71034357Y-39781539D01*
X71041901Y-39789829D01*
X71046014Y-39796310D01*
X71051791Y-39801735D01*
X71095681Y-39842950D01*
X71098523Y-39845705D01*
X71118244Y-39865426D01*
X71121439Y-39867904D01*
X71130461Y-39875610D01*
X71162693Y-39905878D01*
X71169642Y-39909698D01*
X71180446Y-39915638D01*
X71196970Y-39926491D01*
X71212973Y-39938905D01*
X71253557Y-39956468D01*
X71264187Y-39961675D01*
X71302954Y-39982987D01*
X71310631Y-39984958D01*
X71310636Y-39984960D01*
X71322572Y-39988024D01*
X71341280Y-39994429D01*
X71359869Y-40002473D01*
X71367697Y-40003713D01*
X71367704Y-40003715D01*
X71403538Y-40009391D01*
X71415158Y-40011797D01*
X71450303Y-40020820D01*
X71457984Y-40022792D01*
X71478238Y-40022792D01*
X71497948Y-40024343D01*
X71517957Y-40027512D01*
X71525849Y-40026766D01*
X71561975Y-40023351D01*
X71573833Y-40022792D01*
X80175011Y-40022792D01*
X80243132Y-40042794D01*
X80289625Y-40096450D01*
X80301011Y-40148792D01*
X80301011Y-49472701D01*
X80281009Y-49540822D01*
X80227353Y-49587315D01*
X80157079Y-49597419D01*
X80142407Y-49594410D01*
X80038087Y-49566457D01*
X79810000Y-49546502D01*
X79581913Y-49566457D01*
X79576600Y-49567881D01*
X79576598Y-49567881D01*
X79366067Y-49624293D01*
X79366065Y-49624294D01*
X79360757Y-49625716D01*
X79355776Y-49628039D01*
X79355775Y-49628039D01*
X79158238Y-49720151D01*
X79158233Y-49720154D01*
X79153251Y-49722477D01*
X79048389Y-49795902D01*
X78970211Y-49850643D01*
X78970208Y-49850645D01*
X78965700Y-49853802D01*
X78803802Y-50015700D01*
X78672477Y-50203251D01*
X78670154Y-50208233D01*
X78670151Y-50208238D01*
X78654195Y-50242457D01*
X78607278Y-50295742D01*
X78539001Y-50315203D01*
X78471041Y-50294661D01*
X78425805Y-50242457D01*
X78409849Y-50208238D01*
X78409846Y-50208233D01*
X78407523Y-50203251D01*
X78276198Y-50015700D01*
X78114300Y-49853802D01*
X78109792Y-49850645D01*
X78109789Y-49850643D01*
X78031611Y-49795902D01*
X77926749Y-49722477D01*
X77921767Y-49720154D01*
X77921762Y-49720151D01*
X77724225Y-49628039D01*
X77724224Y-49628039D01*
X77719243Y-49625716D01*
X77713935Y-49624294D01*
X77713933Y-49624293D01*
X77503402Y-49567881D01*
X77503400Y-49567881D01*
X77498087Y-49566457D01*
X77270000Y-49546502D01*
X77041913Y-49566457D01*
X77036600Y-49567881D01*
X77036598Y-49567881D01*
X76826067Y-49624293D01*
X76826065Y-49624294D01*
X76820757Y-49625716D01*
X76815776Y-49628039D01*
X76815775Y-49628039D01*
X76618238Y-49720151D01*
X76618233Y-49720154D01*
X76613251Y-49722477D01*
X76508389Y-49795902D01*
X76430211Y-49850643D01*
X76430208Y-49850645D01*
X76425700Y-49853802D01*
X76263802Y-50015700D01*
X76132477Y-50203251D01*
X76130154Y-50208233D01*
X76130151Y-50208238D01*
X76114195Y-50242457D01*
X76067278Y-50295742D01*
X75999001Y-50315203D01*
X75931041Y-50294661D01*
X75885805Y-50242457D01*
X75869849Y-50208238D01*
X75869846Y-50208233D01*
X75867523Y-50203251D01*
X75736198Y-50015700D01*
X75574300Y-49853802D01*
X75569792Y-49850645D01*
X75569789Y-49850643D01*
X75491611Y-49795902D01*
X75386749Y-49722477D01*
X75381767Y-49720154D01*
X75381762Y-49720151D01*
X75184225Y-49628039D01*
X75184224Y-49628039D01*
X75179243Y-49625716D01*
X75173935Y-49624294D01*
X75173933Y-49624293D01*
X74963402Y-49567881D01*
X74963400Y-49567881D01*
X74958087Y-49566457D01*
X74730000Y-49546502D01*
X74501913Y-49566457D01*
X74496600Y-49567881D01*
X74496598Y-49567881D01*
X74286067Y-49624293D01*
X74286065Y-49624294D01*
X74280757Y-49625716D01*
X74275776Y-49628039D01*
X74275775Y-49628039D01*
X74078238Y-49720151D01*
X74078233Y-49720154D01*
X74073251Y-49722477D01*
X73968389Y-49795902D01*
X73890211Y-49850643D01*
X73890208Y-49850645D01*
X73885700Y-49853802D01*
X73723802Y-50015700D01*
X73592477Y-50203251D01*
X73590154Y-50208233D01*
X73590151Y-50208238D01*
X73574195Y-50242457D01*
X73527278Y-50295742D01*
X73459001Y-50315203D01*
X73391041Y-50294661D01*
X73345805Y-50242457D01*
X73329849Y-50208238D01*
X73329846Y-50208233D01*
X73327523Y-50203251D01*
X73196198Y-50015700D01*
X73034300Y-49853802D01*
X73029792Y-49850645D01*
X73029789Y-49850643D01*
X72951611Y-49795902D01*
X72846749Y-49722477D01*
X72841767Y-49720154D01*
X72841762Y-49720151D01*
X72644225Y-49628039D01*
X72644224Y-49628039D01*
X72639243Y-49625716D01*
X72633935Y-49624294D01*
X72633933Y-49624293D01*
X72423402Y-49567881D01*
X72423400Y-49567881D01*
X72418087Y-49566457D01*
X72190000Y-49546502D01*
X71961913Y-49566457D01*
X71956600Y-49567881D01*
X71956598Y-49567881D01*
X71746067Y-49624293D01*
X71746065Y-49624294D01*
X71740757Y-49625716D01*
X71735776Y-49628039D01*
X71735775Y-49628039D01*
X71538238Y-49720151D01*
X71538233Y-49720154D01*
X71533251Y-49722477D01*
X71428389Y-49795902D01*
X71350211Y-49850643D01*
X71350208Y-49850645D01*
X71345700Y-49853802D01*
X71183802Y-50015700D01*
X71052477Y-50203251D01*
X71050154Y-50208233D01*
X71050151Y-50208238D01*
X71034195Y-50242457D01*
X70987278Y-50295742D01*
X70919001Y-50315203D01*
X70851041Y-50294661D01*
X70805805Y-50242457D01*
X70789849Y-50208238D01*
X70789846Y-50208233D01*
X70787523Y-50203251D01*
X70656198Y-50015700D01*
X70494300Y-49853802D01*
X70489792Y-49850645D01*
X70489789Y-49850643D01*
X70411611Y-49795902D01*
X70306749Y-49722477D01*
X70301767Y-49720154D01*
X70301762Y-49720151D01*
X70104225Y-49628039D01*
X70104224Y-49628039D01*
X70099243Y-49625716D01*
X70093935Y-49624294D01*
X70093933Y-49624293D01*
X69883402Y-49567881D01*
X69883400Y-49567881D01*
X69878087Y-49566457D01*
X69650000Y-49546502D01*
X69421913Y-49566457D01*
X69416600Y-49567881D01*
X69416598Y-49567881D01*
X69206067Y-49624293D01*
X69206065Y-49624294D01*
X69200757Y-49625716D01*
X69195776Y-49628039D01*
X69195775Y-49628039D01*
X68998238Y-49720151D01*
X68998233Y-49720154D01*
X68993251Y-49722477D01*
X68888389Y-49795902D01*
X68810211Y-49850643D01*
X68810208Y-49850645D01*
X68805700Y-49853802D01*
X68643802Y-50015700D01*
X68512477Y-50203251D01*
X68510154Y-50208233D01*
X68510151Y-50208238D01*
X68494195Y-50242457D01*
X68447278Y-50295742D01*
X68379001Y-50315203D01*
X68311041Y-50294661D01*
X68265805Y-50242457D01*
X68249849Y-50208238D01*
X68249846Y-50208233D01*
X68247523Y-50203251D01*
X68116198Y-50015700D01*
X67954300Y-49853802D01*
X67949792Y-49850645D01*
X67949789Y-49850643D01*
X67871611Y-49795902D01*
X67766749Y-49722477D01*
X67761767Y-49720154D01*
X67761762Y-49720151D01*
X67564225Y-49628039D01*
X67564224Y-49628039D01*
X67559243Y-49625716D01*
X67553935Y-49624294D01*
X67553933Y-49624293D01*
X67343402Y-49567881D01*
X67343400Y-49567881D01*
X67338087Y-49566457D01*
X67110000Y-49546502D01*
X66881913Y-49566457D01*
X66876600Y-49567881D01*
X66876598Y-49567881D01*
X66666067Y-49624293D01*
X66666065Y-49624294D01*
X66660757Y-49625716D01*
X66655776Y-49628039D01*
X66655775Y-49628039D01*
X66458238Y-49720151D01*
X66458233Y-49720154D01*
X66453251Y-49722477D01*
X66348389Y-49795902D01*
X66270211Y-49850643D01*
X66270208Y-49850645D01*
X66265700Y-49853802D01*
X66103802Y-50015700D01*
X65972477Y-50203251D01*
X65970154Y-50208233D01*
X65970151Y-50208238D01*
X65954195Y-50242457D01*
X65875716Y-50410757D01*
X65816457Y-50631913D01*
X65796502Y-50860000D01*
X65816457Y-51088087D01*
X65875716Y-51309243D01*
X65878039Y-51314224D01*
X65878039Y-51314225D01*
X65970151Y-51511762D01*
X65970154Y-51511767D01*
X65972477Y-51516749D01*
X66103802Y-51704300D01*
X66265700Y-51866198D01*
X66270208Y-51869355D01*
X66270211Y-51869357D01*
X66328011Y-51909829D01*
X66453251Y-51997523D01*
X66458233Y-51999846D01*
X66458238Y-51999849D01*
X66606067Y-52068782D01*
X66660757Y-52094284D01*
X66666065Y-52095706D01*
X66666067Y-52095707D01*
X66876598Y-52152119D01*
X66876600Y-52152119D01*
X66881913Y-52153543D01*
X67110000Y-52173498D01*
X67338087Y-52153543D01*
X67343400Y-52152119D01*
X67343402Y-52152119D01*
X67553933Y-52095707D01*
X67553935Y-52095706D01*
X67559243Y-52094284D01*
X67613933Y-52068782D01*
X67761762Y-51999849D01*
X67761767Y-51999846D01*
X67766749Y-51997523D01*
X67891989Y-51909829D01*
X67949789Y-51869357D01*
X67949792Y-51869355D01*
X67954300Y-51866198D01*
X68116198Y-51704300D01*
X68247523Y-51516749D01*
X68249846Y-51511767D01*
X68249849Y-51511762D01*
X68265805Y-51477543D01*
X68312722Y-51424258D01*
X68380999Y-51404797D01*
X68448959Y-51425339D01*
X68494195Y-51477543D01*
X68510151Y-51511762D01*
X68510154Y-51511767D01*
X68512477Y-51516749D01*
X68643802Y-51704300D01*
X68805700Y-51866198D01*
X68810208Y-51869355D01*
X68810211Y-51869357D01*
X68868011Y-51909829D01*
X68993251Y-51997523D01*
X68998233Y-51999846D01*
X68998238Y-51999849D01*
X69146067Y-52068782D01*
X69200757Y-52094284D01*
X69206065Y-52095706D01*
X69206067Y-52095707D01*
X69416598Y-52152119D01*
X69416600Y-52152119D01*
X69421913Y-52153543D01*
X69650000Y-52173498D01*
X69878087Y-52153543D01*
X69883400Y-52152119D01*
X69883402Y-52152119D01*
X70093933Y-52095707D01*
X70093935Y-52095706D01*
X70099243Y-52094284D01*
X70153933Y-52068782D01*
X70301762Y-51999849D01*
X70301767Y-51999846D01*
X70306749Y-51997523D01*
X70431989Y-51909829D01*
X70489789Y-51869357D01*
X70489792Y-51869355D01*
X70494300Y-51866198D01*
X70656198Y-51704300D01*
X70787523Y-51516749D01*
X70789846Y-51511767D01*
X70789849Y-51511762D01*
X70805805Y-51477543D01*
X70852722Y-51424258D01*
X70920999Y-51404797D01*
X70988959Y-51425339D01*
X71034195Y-51477543D01*
X71050151Y-51511762D01*
X71050154Y-51511767D01*
X71052477Y-51516749D01*
X71183802Y-51704300D01*
X71345700Y-51866198D01*
X71350208Y-51869355D01*
X71350211Y-51869357D01*
X71408011Y-51909829D01*
X71533251Y-51997523D01*
X71538233Y-51999846D01*
X71538238Y-51999849D01*
X71686067Y-52068782D01*
X71740757Y-52094284D01*
X71746065Y-52095706D01*
X71746067Y-52095707D01*
X71956598Y-52152119D01*
X71956600Y-52152119D01*
X71961913Y-52153543D01*
X72190000Y-52173498D01*
X72418087Y-52153543D01*
X72423400Y-52152119D01*
X72423402Y-52152119D01*
X72633933Y-52095707D01*
X72633935Y-52095706D01*
X72639243Y-52094284D01*
X72693933Y-52068782D01*
X72841762Y-51999849D01*
X72841767Y-51999846D01*
X72846749Y-51997523D01*
X72971989Y-51909829D01*
X73029789Y-51869357D01*
X73029792Y-51869355D01*
X73034300Y-51866198D01*
X73196198Y-51704300D01*
X73327523Y-51516749D01*
X73329846Y-51511767D01*
X73329849Y-51511762D01*
X73345805Y-51477543D01*
X73392722Y-51424258D01*
X73460999Y-51404797D01*
X73528959Y-51425339D01*
X73574195Y-51477543D01*
X73590151Y-51511762D01*
X73590154Y-51511767D01*
X73592477Y-51516749D01*
X73723802Y-51704300D01*
X73885700Y-51866198D01*
X73890208Y-51869355D01*
X73890211Y-51869357D01*
X73948011Y-51909829D01*
X74073251Y-51997523D01*
X74078233Y-51999846D01*
X74078238Y-51999849D01*
X74226067Y-52068782D01*
X74280757Y-52094284D01*
X74286065Y-52095706D01*
X74286067Y-52095707D01*
X74496598Y-52152119D01*
X74496600Y-52152119D01*
X74501913Y-52153543D01*
X74730000Y-52173498D01*
X74958087Y-52153543D01*
X74963400Y-52152119D01*
X74963402Y-52152119D01*
X75173933Y-52095707D01*
X75173935Y-52095706D01*
X75179243Y-52094284D01*
X75233933Y-52068782D01*
X75381762Y-51999849D01*
X75381767Y-51999846D01*
X75386749Y-51997523D01*
X75511989Y-51909829D01*
X75569789Y-51869357D01*
X75569792Y-51869355D01*
X75574300Y-51866198D01*
X75736198Y-51704300D01*
X75867523Y-51516749D01*
X75869846Y-51511767D01*
X75869849Y-51511762D01*
X75885805Y-51477543D01*
X75932722Y-51424258D01*
X76000999Y-51404797D01*
X76068959Y-51425339D01*
X76114195Y-51477543D01*
X76130151Y-51511762D01*
X76130154Y-51511767D01*
X76132477Y-51516749D01*
X76263802Y-51704300D01*
X76425700Y-51866198D01*
X76430208Y-51869355D01*
X76430211Y-51869357D01*
X76488011Y-51909829D01*
X76613251Y-51997523D01*
X76618233Y-51999846D01*
X76618238Y-51999849D01*
X76766067Y-52068782D01*
X76820757Y-52094284D01*
X76826065Y-52095706D01*
X76826067Y-52095707D01*
X77036598Y-52152119D01*
X77036600Y-52152119D01*
X77041913Y-52153543D01*
X77270000Y-52173498D01*
X77498087Y-52153543D01*
X77503400Y-52152119D01*
X77503402Y-52152119D01*
X77713933Y-52095707D01*
X77713935Y-52095706D01*
X77719243Y-52094284D01*
X77773933Y-52068782D01*
X77921762Y-51999849D01*
X77921767Y-51999846D01*
X77926749Y-51997523D01*
X78051989Y-51909829D01*
X78109789Y-51869357D01*
X78109792Y-51869355D01*
X78114300Y-51866198D01*
X78276198Y-51704300D01*
X78407523Y-51516749D01*
X78409846Y-51511767D01*
X78409849Y-51511762D01*
X78425805Y-51477543D01*
X78472722Y-51424258D01*
X78540999Y-51404797D01*
X78608959Y-51425339D01*
X78654195Y-51477543D01*
X78670151Y-51511762D01*
X78670154Y-51511767D01*
X78672477Y-51516749D01*
X78803802Y-51704300D01*
X78965700Y-51866198D01*
X78970208Y-51869355D01*
X78970211Y-51869357D01*
X79028011Y-51909829D01*
X79153251Y-51997523D01*
X79158233Y-51999846D01*
X79158238Y-51999849D01*
X79306067Y-52068782D01*
X79360757Y-52094284D01*
X79366065Y-52095706D01*
X79366067Y-52095707D01*
X79576598Y-52152119D01*
X79576600Y-52152119D01*
X79581913Y-52153543D01*
X79810000Y-52173498D01*
X80038087Y-52153543D01*
X80142401Y-52125592D01*
X80213376Y-52127282D01*
X80272172Y-52167076D01*
X80300120Y-52232340D01*
X80301011Y-52247299D01*
X80301011Y-57250894D01*
X80281009Y-57319015D01*
X80264106Y-57339989D01*
X78624500Y-58979595D01*
X78562188Y-59013621D01*
X78535405Y-59016500D01*
X77349600Y-59016500D01*
X77346354Y-59016837D01*
X77346350Y-59016837D01*
X77250692Y-59026762D01*
X77250688Y-59026763D01*
X77243834Y-59027474D01*
X77237298Y-59029655D01*
X77237296Y-59029655D01*
X77139430Y-59062306D01*
X77076054Y-59083450D01*
X76925652Y-59176522D01*
X76800695Y-59301697D01*
X76796855Y-59307927D01*
X76796854Y-59307928D01*
X76727136Y-59421032D01*
X76707885Y-59452262D01*
X76652203Y-59620139D01*
X76641500Y-59724600D01*
X76641500Y-61275400D01*
X76641837Y-61278646D01*
X76641837Y-61278650D01*
X76650875Y-61365752D01*
X76652474Y-61381166D01*
X76654655Y-61387702D01*
X76654655Y-61387704D01*
X76685504Y-61480168D01*
X76708450Y-61548946D01*
X76801522Y-61699348D01*
X76926697Y-61824305D01*
X76932927Y-61828145D01*
X76932928Y-61828146D01*
X77070090Y-61912694D01*
X77077262Y-61917115D01*
X77157005Y-61943564D01*
X77238611Y-61970632D01*
X77238613Y-61970632D01*
X77245139Y-61972797D01*
X77251975Y-61973497D01*
X77251978Y-61973498D01*
X77287663Y-61977154D01*
X77349600Y-61983500D01*
X78650400Y-61983500D01*
X78653646Y-61983163D01*
X78653650Y-61983163D01*
X78749308Y-61973238D01*
X78749312Y-61973237D01*
X78756166Y-61972526D01*
X78762702Y-61970345D01*
X78762704Y-61970345D01*
X78894806Y-61926272D01*
X78923946Y-61916550D01*
X79074348Y-61823478D01*
X79113613Y-61784145D01*
X79194134Y-61703483D01*
X79199305Y-61698303D01*
X79210883Y-61679521D01*
X79249250Y-61617278D01*
X79289081Y-61552660D01*
X79341852Y-61505168D01*
X79411924Y-61493744D01*
X79477048Y-61522018D01*
X79487510Y-61531805D01*
X79529215Y-61575523D01*
X79596576Y-61646135D01*
X79600854Y-61649318D01*
X79640053Y-61678483D01*
X79781542Y-61783754D01*
X79786293Y-61786170D01*
X79786297Y-61786172D01*
X79849481Y-61818296D01*
X79987051Y-61888240D01*
X79992145Y-61889822D01*
X79992148Y-61889823D01*
X80128972Y-61932308D01*
X80207227Y-61956607D01*
X80212516Y-61957308D01*
X80430489Y-61986198D01*
X80430494Y-61986198D01*
X80435774Y-61986898D01*
X80441103Y-61986698D01*
X80441105Y-61986698D01*
X80550966Y-61982574D01*
X80666158Y-61978249D01*
X80688802Y-61973498D01*
X80886572Y-61932002D01*
X80891791Y-61930907D01*
X80896750Y-61928949D01*
X80896752Y-61928948D01*
X81101256Y-61848185D01*
X81101258Y-61848184D01*
X81106221Y-61846224D01*
X81117179Y-61839575D01*
X81298757Y-61729390D01*
X81298756Y-61729390D01*
X81303317Y-61726623D01*
X81343134Y-61692072D01*
X81473412Y-61579023D01*
X81473414Y-61579021D01*
X81477445Y-61575523D01*
X81544500Y-61493744D01*
X81620240Y-61401373D01*
X81620244Y-61401367D01*
X81623624Y-61397245D01*
X81641552Y-61365750D01*
X81692632Y-61316445D01*
X81762262Y-61302583D01*
X81828333Y-61328566D01*
X81855573Y-61357716D01*
X81937441Y-61479319D01*
X82096576Y-61646135D01*
X82100854Y-61649318D01*
X82140053Y-61678483D01*
X82281542Y-61783754D01*
X82286293Y-61786170D01*
X82286297Y-61786172D01*
X82349481Y-61818296D01*
X82487051Y-61888240D01*
X82492145Y-61889822D01*
X82492148Y-61889823D01*
X82628972Y-61932308D01*
X82707227Y-61956607D01*
X82712516Y-61957308D01*
X82930489Y-61986198D01*
X82930494Y-61986198D01*
X82935774Y-61986898D01*
X82941103Y-61986698D01*
X82941105Y-61986698D01*
X83050966Y-61982574D01*
X83166158Y-61978249D01*
X83188802Y-61973498D01*
X83386572Y-61932002D01*
X83391791Y-61930907D01*
X83396750Y-61928949D01*
X83396752Y-61928948D01*
X83601256Y-61848185D01*
X83601258Y-61848184D01*
X83606221Y-61846224D01*
X83617179Y-61839575D01*
X83798757Y-61729390D01*
X83798756Y-61729390D01*
X83803317Y-61726623D01*
X83843134Y-61692072D01*
X83973412Y-61579023D01*
X83973414Y-61579021D01*
X83977445Y-61575523D01*
X84044500Y-61493744D01*
X84120240Y-61401373D01*
X84120244Y-61401367D01*
X84123624Y-61397245D01*
X84140494Y-61367610D01*
X84235032Y-61201529D01*
X84237675Y-61196886D01*
X84316337Y-60980175D01*
X84320858Y-60955175D01*
X84356623Y-60757392D01*
X84356624Y-60757385D01*
X84357361Y-60753308D01*
X84358197Y-60735586D01*
X84358430Y-60730644D01*
X84358430Y-60730637D01*
X84358500Y-60729156D01*
X84358500Y-60317110D01*
X84343920Y-60145280D01*
X84342581Y-60140121D01*
X84341681Y-60134857D01*
X84343006Y-60134630D01*
X84345052Y-60070023D01*
X84375669Y-60020235D01*
X87616747Y-56779157D01*
X87625037Y-56771613D01*
X87631518Y-56767500D01*
X87678159Y-56717832D01*
X87680913Y-56714991D01*
X87700634Y-56695270D01*
X87703112Y-56692075D01*
X87710818Y-56683053D01*
X87735658Y-56656601D01*
X87741086Y-56650821D01*
X87750846Y-56633068D01*
X87761699Y-56616545D01*
X87769253Y-56606806D01*
X87774113Y-56600541D01*
X87791676Y-56559957D01*
X87796883Y-56549327D01*
X87818195Y-56510560D01*
X87820166Y-56502883D01*
X87820168Y-56502878D01*
X87823232Y-56490942D01*
X87829638Y-56472230D01*
X87834533Y-56460919D01*
X87837681Y-56453645D01*
X87838921Y-56445817D01*
X87838923Y-56445810D01*
X87844599Y-56409976D01*
X87847005Y-56398356D01*
X87856028Y-56363211D01*
X87856028Y-56363210D01*
X87858000Y-56355530D01*
X87858000Y-56335276D01*
X87859551Y-56315565D01*
X87861480Y-56303386D01*
X87862720Y-56295557D01*
X87858559Y-56251538D01*
X87858000Y-56239681D01*
X87858000Y-49302524D01*
X87878002Y-49234403D01*
X87890358Y-49218221D01*
X87963540Y-49136944D01*
X88059027Y-48971556D01*
X88118042Y-48789928D01*
X88128040Y-48694808D01*
X88137314Y-48606565D01*
X88138004Y-48600000D01*
X88118042Y-48410072D01*
X88059027Y-48228444D01*
X87963540Y-48063056D01*
X87835753Y-47921134D01*
X87681252Y-47808882D01*
X87675224Y-47806198D01*
X87675222Y-47806197D01*
X87512819Y-47733891D01*
X87512818Y-47733891D01*
X87506788Y-47731206D01*
X87413387Y-47711353D01*
X87326444Y-47692872D01*
X87326439Y-47692872D01*
X87319987Y-47691500D01*
X87259500Y-47691500D01*
X87191379Y-47671498D01*
X87144886Y-47617842D01*
X87133500Y-47565500D01*
X87133500Y-32818768D01*
X87134027Y-32807585D01*
X87135702Y-32800092D01*
X87135060Y-32779648D01*
X87133562Y-32732002D01*
X87133500Y-32728044D01*
X87133500Y-32700144D01*
X87132996Y-32696153D01*
X87132063Y-32684311D01*
X87132029Y-32683207D01*
X87130674Y-32640111D01*
X87126815Y-32626827D01*
X87125021Y-32620652D01*
X87121012Y-32601293D01*
X87120846Y-32599983D01*
X87118474Y-32581203D01*
X87115558Y-32573837D01*
X87115556Y-32573831D01*
X87102200Y-32540098D01*
X87098355Y-32528868D01*
X87088230Y-32494017D01*
X87088230Y-32494016D01*
X87086019Y-32486407D01*
X87075705Y-32468966D01*
X87067008Y-32451213D01*
X87062472Y-32439758D01*
X87059552Y-32432383D01*
X87033563Y-32396612D01*
X87027047Y-32386692D01*
X87004542Y-32348638D01*
X86990221Y-32334317D01*
X86977380Y-32319283D01*
X86972217Y-32312177D01*
X86965472Y-32302893D01*
X86959368Y-32297843D01*
X86959363Y-32297838D01*
X86931402Y-32274707D01*
X86922621Y-32266717D01*
X86111217Y-31455312D01*
X86077192Y-31393000D01*
X86079755Y-31329590D01*
X86092370Y-31288069D01*
X86121529Y-31066590D01*
X86123156Y-31000000D01*
X86104852Y-30777361D01*
X86050431Y-30560702D01*
X85961354Y-30355840D01*
X85904535Y-30268011D01*
X85842822Y-30172617D01*
X85842820Y-30172614D01*
X85840014Y-30168277D01*
X85689670Y-30003051D01*
X85685619Y-29999852D01*
X85685615Y-29999848D01*
X85518414Y-29867800D01*
X85518410Y-29867798D01*
X85514359Y-29864598D01*
X85473053Y-29841796D01*
X85423084Y-29791364D01*
X85408312Y-29721921D01*
X85433428Y-29655516D01*
X85460780Y-29628909D01*
X85504603Y-29597650D01*
X85639860Y-29501173D01*
X85662605Y-29478508D01*
X85750288Y-29391130D01*
X85798096Y-29343489D01*
X85857594Y-29260689D01*
X85925435Y-29166277D01*
X85928453Y-29162077D01*
X85933991Y-29150873D01*
X86025136Y-28966453D01*
X86025137Y-28966451D01*
X86027430Y-28961811D01*
X86092370Y-28748069D01*
X86121529Y-28526590D01*
X86122483Y-28487532D01*
X86123074Y-28463365D01*
X86123074Y-28463361D01*
X86123156Y-28460000D01*
X86104852Y-28237361D01*
X86050431Y-28020702D01*
X85961354Y-27815840D01*
X85840014Y-27628277D01*
X85689670Y-27463051D01*
X85685619Y-27459852D01*
X85685615Y-27459848D01*
X85518414Y-27327800D01*
X85518408Y-27327796D01*
X85514359Y-27324598D01*
X85318789Y-27216638D01*
X85313920Y-27214914D01*
X85313916Y-27214912D01*
X85113087Y-27143795D01*
X85113083Y-27143794D01*
X85108212Y-27142069D01*
X85103119Y-27141162D01*
X85103116Y-27141161D01*
X84893373Y-27103800D01*
X84893367Y-27103799D01*
X84888284Y-27102894D01*
X84814452Y-27101992D01*
X84670081Y-27100228D01*
X84670079Y-27100228D01*
X84664911Y-27100165D01*
X84444091Y-27133955D01*
X84231756Y-27203357D01*
X84201443Y-27219137D01*
X84055545Y-27295087D01*
X84033607Y-27306507D01*
X84029474Y-27309610D01*
X84029471Y-27309612D01*
X83859100Y-27437530D01*
X83854965Y-27440635D01*
X83700629Y-27602138D01*
X83593201Y-27759621D01*
X83538293Y-27804621D01*
X83467768Y-27812792D01*
X83404021Y-27781538D01*
X83383324Y-27757054D01*
X83302822Y-27632617D01*
X83302820Y-27632614D01*
X83300014Y-27628277D01*
X83149670Y-27463051D01*
X83145619Y-27459852D01*
X83145615Y-27459848D01*
X82978414Y-27327800D01*
X82978408Y-27327796D01*
X82974359Y-27324598D01*
X82778789Y-27216638D01*
X82773920Y-27214914D01*
X82773916Y-27214912D01*
X82573087Y-27143795D01*
X82573083Y-27143794D01*
X82568212Y-27142069D01*
X82563119Y-27141162D01*
X82563116Y-27141161D01*
X82353373Y-27103800D01*
X82353367Y-27103799D01*
X82348284Y-27102894D01*
X82274452Y-27101992D01*
X82130081Y-27100228D01*
X82130079Y-27100228D01*
X82124911Y-27100165D01*
X81904091Y-27133955D01*
X81691756Y-27203357D01*
X81661443Y-27219137D01*
X81515545Y-27295087D01*
X81493607Y-27306507D01*
X81489474Y-27309610D01*
X81489471Y-27309612D01*
X81414723Y-27365735D01*
X81348238Y-27390641D01*
X81278843Y-27375649D01*
X81249974Y-27354070D01*
X80898180Y-27002275D01*
X80864155Y-26939963D01*
X80869220Y-26869147D01*
X80911767Y-26812312D01*
X80978287Y-26787501D01*
X80987276Y-26787180D01*
X88151370Y-26787180D01*
X88219491Y-26807182D01*
X88265984Y-26860838D01*
X88276088Y-26931112D01*
X88246594Y-26995692D01*
X88212936Y-27023115D01*
X87934498Y-27179047D01*
X87934493Y-27179050D01*
X87931381Y-27180793D01*
X87928485Y-27182878D01*
X87928480Y-27182881D01*
X87881589Y-27216638D01*
X87645605Y-27386523D01*
X87642969Y-27388917D01*
X87642967Y-27388919D01*
X87465733Y-27549907D01*
X87384954Y-27623281D01*
X87152781Y-27888023D01*
X87150749Y-27890952D01*
X87150746Y-27890956D01*
X87085777Y-27984610D01*
X86952071Y-28177347D01*
X86950380Y-28180494D01*
X86950377Y-28180499D01*
X86934683Y-28209707D01*
X86785402Y-28487532D01*
X86654919Y-28814590D01*
X86562299Y-29154317D01*
X86561757Y-29157839D01*
X86511185Y-29486410D01*
X86508732Y-29502345D01*
X86508592Y-29505909D01*
X86497210Y-29795621D01*
X86494908Y-29854200D01*
X86504073Y-29977530D01*
X86518935Y-30177510D01*
X86521004Y-30205358D01*
X86586684Y-30551304D01*
X86587742Y-30554713D01*
X86587744Y-30554719D01*
X86589602Y-30560702D01*
X86691104Y-30887592D01*
X86692545Y-30890867D01*
X86771325Y-31069908D01*
X86832921Y-31209897D01*
X87010313Y-31514076D01*
X87220999Y-31796219D01*
X87223443Y-31798817D01*
X87223448Y-31798823D01*
X87454250Y-32044172D01*
X87462270Y-32052697D01*
X87562941Y-32137921D01*
X87724519Y-32274707D01*
X87731024Y-32280214D01*
X87733988Y-32282194D01*
X87733990Y-32282196D01*
X88000740Y-32460432D01*
X88023807Y-32475845D01*
X88026989Y-32477484D01*
X88026991Y-32477485D01*
X88333670Y-32635436D01*
X88333675Y-32635438D01*
X88336853Y-32637075D01*
X88340194Y-32638341D01*
X88340199Y-32638343D01*
X88533849Y-32711710D01*
X88666139Y-32761830D01*
X88669603Y-32762710D01*
X88669607Y-32762711D01*
X89003963Y-32847627D01*
X89003971Y-32847629D01*
X89007430Y-32848507D01*
X89161976Y-32869540D01*
X89353347Y-32895585D01*
X89353354Y-32895586D01*
X89356340Y-32895992D01*
X89471081Y-32900500D01*
X89689198Y-32900500D01*
X89830756Y-32892462D01*
X89947992Y-32885805D01*
X89947999Y-32885804D01*
X89951560Y-32885602D01*
X90089883Y-32861834D01*
X90295082Y-32826575D01*
X90295090Y-32826573D01*
X90298600Y-32825970D01*
X90302025Y-32824972D01*
X90302028Y-32824971D01*
X90633221Y-32728436D01*
X90636659Y-32727434D01*
X90674157Y-32711710D01*
X90958092Y-32592646D01*
X90961390Y-32591263D01*
X91135036Y-32494017D01*
X91265502Y-32420953D01*
X91265507Y-32420950D01*
X91268619Y-32419207D01*
X91271515Y-32417122D01*
X91271520Y-32417119D01*
X91433353Y-32300615D01*
X91554395Y-32213477D01*
X91562538Y-32206081D01*
X91812405Y-31979118D01*
X91812406Y-31979117D01*
X91815046Y-31976719D01*
X92047219Y-31711977D01*
X92056655Y-31698376D01*
X92148139Y-31566500D01*
X92247929Y-31422653D01*
X92263863Y-31393000D01*
X92364009Y-31206618D01*
X92414598Y-31112468D01*
X92427150Y-31081006D01*
X92470971Y-31025147D01*
X92538035Y-31001846D01*
X92607050Y-31018502D01*
X92656104Y-31069826D01*
X92670180Y-31127696D01*
X92670180Y-77479745D01*
X92650178Y-77547866D01*
X92596522Y-77594359D01*
X92526248Y-77604463D01*
X92461668Y-77574969D01*
X92428851Y-77530491D01*
X92368522Y-77393382D01*
X92368520Y-77393379D01*
X92367079Y-77390103D01*
X92189687Y-77085924D01*
X91979001Y-76803781D01*
X91976557Y-76801183D01*
X91976552Y-76801177D01*
X91740180Y-76549907D01*
X91740176Y-76549904D01*
X91737730Y-76547303D01*
X91547809Y-76386523D01*
X91471698Y-76322090D01*
X91471694Y-76322087D01*
X91468976Y-76319786D01*
X91176193Y-76124155D01*
X91173009Y-76122515D01*
X90866330Y-75964564D01*
X90866325Y-75964562D01*
X90863147Y-75962925D01*
X90859806Y-75961659D01*
X90859801Y-75961657D01*
X90537205Y-75839437D01*
X90537206Y-75839437D01*
X90533861Y-75838170D01*
X90530397Y-75837290D01*
X90530393Y-75837289D01*
X90196037Y-75752373D01*
X90196029Y-75752371D01*
X90192570Y-75751493D01*
X90020848Y-75728122D01*
X89846653Y-75704415D01*
X89846646Y-75704414D01*
X89843660Y-75704008D01*
X89728919Y-75699500D01*
X89510802Y-75699500D01*
X89369244Y-75707538D01*
X89252008Y-75714195D01*
X89252001Y-75714196D01*
X89248440Y-75714398D01*
X89110117Y-75738166D01*
X88904918Y-75773425D01*
X88904910Y-75773427D01*
X88901400Y-75774030D01*
X88897975Y-75775028D01*
X88897972Y-75775029D01*
X88684370Y-75837289D01*
X88563341Y-75872566D01*
X88238610Y-76008737D01*
X88084996Y-76094765D01*
X87934498Y-76179047D01*
X87934493Y-76179050D01*
X87931381Y-76180793D01*
X87928485Y-76182878D01*
X87928480Y-76182881D01*
X87781761Y-76288504D01*
X87645605Y-76386523D01*
X87642969Y-76388917D01*
X87642967Y-76388919D01*
X87465733Y-76549907D01*
X87384954Y-76623281D01*
X87152781Y-76888023D01*
X86952071Y-77177347D01*
X86950381Y-77180492D01*
X86950377Y-77180499D01*
X86901746Y-77271006D01*
X86785402Y-77487532D01*
X86654919Y-77814590D01*
X86562299Y-78154317D01*
X86547772Y-78248698D01*
X86539469Y-78302648D01*
X86508732Y-78502345D01*
X86508592Y-78505909D01*
X86498969Y-78750847D01*
X86494908Y-78854200D01*
X86521004Y-79205358D01*
X86586684Y-79551304D01*
X86691104Y-79887592D01*
X86832921Y-80209897D01*
X87010313Y-80514076D01*
X87220999Y-80796219D01*
X87223443Y-80798817D01*
X87223448Y-80798823D01*
X87459820Y-81050093D01*
X87462270Y-81052697D01*
X87464999Y-81055007D01*
X87672008Y-81230253D01*
X87731024Y-81280214D01*
X88023807Y-81475845D01*
X88026989Y-81477484D01*
X88026991Y-81477485D01*
X88133157Y-81532164D01*
X88184559Y-81581137D01*
X88201325Y-81650125D01*
X88178131Y-81717226D01*
X88122341Y-81761136D01*
X88075465Y-81770180D01*
X33124769Y-81770180D01*
X33056648Y-81750178D01*
X33010155Y-81696522D01*
X33000051Y-81626248D01*
X33029545Y-81561668D01*
X33063203Y-81534245D01*
X33265502Y-81420953D01*
X33265507Y-81420950D01*
X33268619Y-81419207D01*
X33271515Y-81417122D01*
X33271520Y-81417119D01*
X33418239Y-81311496D01*
X33554395Y-81213477D01*
X33728858Y-81055007D01*
X33812405Y-80979118D01*
X33812406Y-80979117D01*
X33815046Y-80976719D01*
X34047219Y-80711977D01*
X34059685Y-80694008D01*
X34238293Y-80436543D01*
X34247929Y-80422653D01*
X34414598Y-80112468D01*
X34545081Y-79785410D01*
X34637701Y-79445683D01*
X34665338Y-79266125D01*
X34690726Y-79101178D01*
X34690726Y-79101174D01*
X34691268Y-79097655D01*
X34700833Y-78854200D01*
X34704952Y-78749370D01*
X34704952Y-78749365D01*
X34705092Y-78745800D01*
X34678996Y-78394642D01*
X34655788Y-78272404D01*
X71664989Y-78272404D01*
X71665810Y-78278680D01*
X71665515Y-78278680D01*
X71684145Y-78515391D01*
X71739575Y-78746274D01*
X71741468Y-78750845D01*
X71741469Y-78750847D01*
X71785754Y-78857760D01*
X71830440Y-78965643D01*
X71833026Y-78969863D01*
X71951921Y-79163882D01*
X71951925Y-79163888D01*
X71954504Y-79168096D01*
X72108711Y-79348649D01*
X72289264Y-79502856D01*
X72293472Y-79505435D01*
X72293478Y-79505439D01*
X72485292Y-79622983D01*
X72491717Y-79626920D01*
X72496287Y-79628813D01*
X72496291Y-79628815D01*
X72706513Y-79715891D01*
X72711086Y-79717785D01*
X72791289Y-79737040D01*
X72937156Y-79772060D01*
X72937162Y-79772061D01*
X72941969Y-79773215D01*
X73178680Y-79791845D01*
X73415391Y-79773215D01*
X73420198Y-79772061D01*
X73420204Y-79772060D01*
X73566071Y-79737040D01*
X73646274Y-79717785D01*
X73650847Y-79715891D01*
X73861069Y-79628815D01*
X73861073Y-79628813D01*
X73865643Y-79626920D01*
X73872068Y-79622983D01*
X74063882Y-79505439D01*
X74063888Y-79505435D01*
X74068096Y-79502856D01*
X74248649Y-79348649D01*
X74402856Y-79168096D01*
X74405435Y-79163888D01*
X74405439Y-79163882D01*
X74524334Y-78969863D01*
X74526920Y-78965643D01*
X74571607Y-78857760D01*
X74615891Y-78750847D01*
X74615892Y-78750845D01*
X74617785Y-78746274D01*
X74673215Y-78515391D01*
X74689192Y-78312384D01*
X74690551Y-78301364D01*
X74691448Y-78296036D01*
X74691448Y-78296031D01*
X74692256Y-78291232D01*
X74692409Y-78278680D01*
X74688453Y-78251056D01*
X74687180Y-78233194D01*
X74687180Y-63331930D01*
X74688926Y-63311025D01*
X74691450Y-63296024D01*
X74691450Y-63296021D01*
X74692256Y-63291232D01*
X74692409Y-63278680D01*
X74691719Y-63273862D01*
X74691716Y-63273815D01*
X74690842Y-63265936D01*
X74682185Y-63155945D01*
X74673215Y-63041969D01*
X74664659Y-63006328D01*
X74631558Y-62868456D01*
X74617785Y-62811086D01*
X74615891Y-62806513D01*
X74528815Y-62596291D01*
X74528813Y-62596287D01*
X74526920Y-62591717D01*
X74507049Y-62559290D01*
X74405439Y-62393478D01*
X74405435Y-62393472D01*
X74402856Y-62389264D01*
X74248649Y-62208711D01*
X74068096Y-62054504D01*
X74063888Y-62051925D01*
X74063882Y-62051921D01*
X73869863Y-61933026D01*
X73865643Y-61930440D01*
X73861073Y-61928547D01*
X73861069Y-61928545D01*
X73650847Y-61841469D01*
X73650845Y-61841468D01*
X73646274Y-61839575D01*
X73558307Y-61818456D01*
X73420204Y-61785300D01*
X73420198Y-61785299D01*
X73415391Y-61784145D01*
X73178680Y-61765515D01*
X72941969Y-61784145D01*
X72937162Y-61785299D01*
X72937156Y-61785300D01*
X72799053Y-61818456D01*
X72711086Y-61839575D01*
X72706515Y-61841468D01*
X72706513Y-61841469D01*
X72496291Y-61928545D01*
X72496287Y-61928547D01*
X72491717Y-61930440D01*
X72487497Y-61933026D01*
X72293478Y-62051921D01*
X72293472Y-62051925D01*
X72289264Y-62054504D01*
X72108711Y-62208711D01*
X71954504Y-62389264D01*
X71951925Y-62393472D01*
X71951921Y-62393478D01*
X71850311Y-62559290D01*
X71830440Y-62591717D01*
X71828547Y-62596287D01*
X71828545Y-62596291D01*
X71741469Y-62806513D01*
X71739575Y-62811086D01*
X71725802Y-62868456D01*
X71692702Y-63006328D01*
X71684145Y-63041969D01*
X71669289Y-63230735D01*
X71667426Y-63254400D01*
X71666465Y-63262601D01*
X71666501Y-63262691D01*
X71664989Y-63272404D01*
X71665626Y-63277273D01*
X71665515Y-63278680D01*
X71665810Y-63278680D01*
X71667060Y-63288240D01*
X71667060Y-63288242D01*
X71669116Y-63303963D01*
X71670180Y-63320300D01*
X71670180Y-78229313D01*
X71668680Y-78248698D01*
X71664989Y-78272404D01*
X34655788Y-78272404D01*
X34613316Y-78048696D01*
X34508896Y-77712408D01*
X34461399Y-77604463D01*
X34368522Y-77393382D01*
X34368520Y-77393379D01*
X34367079Y-77390103D01*
X34189687Y-77085924D01*
X33979001Y-76803781D01*
X33976557Y-76801183D01*
X33976552Y-76801177D01*
X33740180Y-76549907D01*
X33740176Y-76549904D01*
X33737730Y-76547303D01*
X33547809Y-76386523D01*
X33471698Y-76322090D01*
X33471694Y-76322087D01*
X33468976Y-76319786D01*
X33176193Y-76124155D01*
X33173009Y-76122515D01*
X32866330Y-75964564D01*
X32866325Y-75964562D01*
X32863147Y-75962925D01*
X32859806Y-75961659D01*
X32859801Y-75961657D01*
X32537205Y-75839437D01*
X32537206Y-75839437D01*
X32533861Y-75838170D01*
X32530397Y-75837290D01*
X32530393Y-75837289D01*
X32196037Y-75752373D01*
X32196029Y-75752371D01*
X32192570Y-75751493D01*
X32020848Y-75728122D01*
X31846653Y-75704415D01*
X31846646Y-75704414D01*
X31843660Y-75704008D01*
X31728919Y-75699500D01*
X31510802Y-75699500D01*
X31369244Y-75707538D01*
X31252008Y-75714195D01*
X31252001Y-75714196D01*
X31248440Y-75714398D01*
X31110117Y-75738166D01*
X30904918Y-75773425D01*
X30904910Y-75773427D01*
X30901400Y-75774030D01*
X30897975Y-75775028D01*
X30897972Y-75775029D01*
X30684370Y-75837289D01*
X30563341Y-75872566D01*
X30238610Y-76008737D01*
X30084996Y-76094765D01*
X29934498Y-76179047D01*
X29934493Y-76179050D01*
X29931381Y-76180793D01*
X29928485Y-76182878D01*
X29928480Y-76182881D01*
X29781761Y-76288504D01*
X29645605Y-76386523D01*
X29642969Y-76388917D01*
X29642967Y-76388919D01*
X29465733Y-76549907D01*
X29384954Y-76623281D01*
X29152781Y-76888023D01*
X28952071Y-77177347D01*
X28932131Y-77214458D01*
X28924172Y-77229270D01*
X28874309Y-77279809D01*
X28805038Y-77295368D01*
X28738352Y-77271006D01*
X28695424Y-77214458D01*
X28687180Y-77169631D01*
X28687180Y-63828049D01*
X28688681Y-63808661D01*
X28690989Y-63793841D01*
X28690989Y-63793840D01*
X28692371Y-63784966D01*
X28691207Y-63776063D01*
X28691207Y-63776059D01*
X28691191Y-63775937D01*
X28690921Y-63745494D01*
X28697915Y-63683431D01*
X28704193Y-63655924D01*
X28731170Y-63578831D01*
X28743412Y-63553412D01*
X28786863Y-63484260D01*
X28804455Y-63462201D01*
X28862201Y-63404455D01*
X28884260Y-63386863D01*
X28953412Y-63343412D01*
X28978831Y-63331170D01*
X29055923Y-63304193D01*
X29083424Y-63297916D01*
X29138918Y-63291662D01*
X29154560Y-63291650D01*
X29154569Y-63290880D01*
X29163539Y-63290989D01*
X29172414Y-63292371D01*
X29203969Y-63288244D01*
X29220310Y-63287180D01*
X32125427Y-63287180D01*
X32146332Y-63288927D01*
X32151344Y-63289770D01*
X32161315Y-63291448D01*
X32161317Y-63291448D01*
X32166118Y-63292256D01*
X32172636Y-63292335D01*
X32173810Y-63292350D01*
X32173813Y-63292350D01*
X32178670Y-63292409D01*
X32183480Y-63291720D01*
X32183482Y-63291720D01*
X32193445Y-63290293D01*
X32202318Y-63289342D01*
X32389415Y-63275964D01*
X32389416Y-63275964D01*
X32393903Y-63275643D01*
X32604755Y-63229778D01*
X32731030Y-63182681D01*
X32802716Y-63155945D01*
X32802718Y-63155944D01*
X32806933Y-63154372D01*
X32996322Y-63050960D01*
X33169065Y-62921647D01*
X33321647Y-62769065D01*
X33450960Y-62596322D01*
X33453475Y-62591717D01*
X33552215Y-62410883D01*
X33554372Y-62406933D01*
X33629778Y-62204755D01*
X33675643Y-61993903D01*
X33677982Y-61961198D01*
X33688140Y-61819135D01*
X33689564Y-61807223D01*
X33691344Y-61796642D01*
X33692256Y-61791222D01*
X33692409Y-61778670D01*
X33690581Y-61765903D01*
X33688453Y-61751050D01*
X33687180Y-61733185D01*
X33687180Y-61250400D01*
X36641500Y-61250400D01*
X36641837Y-61253646D01*
X36641837Y-61253650D01*
X36650875Y-61340752D01*
X36652474Y-61356166D01*
X36654655Y-61362702D01*
X36654655Y-61362704D01*
X36686508Y-61458178D01*
X36708450Y-61523946D01*
X36801522Y-61674348D01*
X36926697Y-61799305D01*
X36932927Y-61803145D01*
X36932928Y-61803146D01*
X37070976Y-61888240D01*
X37077262Y-61892115D01*
X37112938Y-61903948D01*
X37238611Y-61945632D01*
X37238613Y-61945632D01*
X37245139Y-61947797D01*
X37251975Y-61948497D01*
X37251978Y-61948498D01*
X37287663Y-61952154D01*
X37349600Y-61958500D01*
X38650400Y-61958500D01*
X38653646Y-61958163D01*
X38653650Y-61958163D01*
X38749308Y-61948238D01*
X38749312Y-61948237D01*
X38756166Y-61947526D01*
X38762702Y-61945345D01*
X38762704Y-61945345D01*
X38894806Y-61901272D01*
X38923946Y-61891550D01*
X39074348Y-61798478D01*
X39199305Y-61673303D01*
X39289081Y-61527660D01*
X39341852Y-61480168D01*
X39411924Y-61468744D01*
X39477048Y-61497018D01*
X39487510Y-61506805D01*
X39526559Y-61547738D01*
X39596576Y-61621135D01*
X39781542Y-61758754D01*
X39786293Y-61761170D01*
X39786297Y-61761172D01*
X39830713Y-61783754D01*
X39987051Y-61863240D01*
X39992145Y-61864822D01*
X39992148Y-61864823D01*
X40192020Y-61926885D01*
X40207227Y-61931607D01*
X40212516Y-61932308D01*
X40430489Y-61961198D01*
X40430494Y-61961198D01*
X40435774Y-61961898D01*
X40441103Y-61961698D01*
X40441105Y-61961698D01*
X40558038Y-61957308D01*
X40666158Y-61953249D01*
X40688802Y-61948498D01*
X40783898Y-61928545D01*
X40891791Y-61905907D01*
X40896750Y-61903949D01*
X40896752Y-61903948D01*
X41101256Y-61823185D01*
X41101258Y-61823184D01*
X41106221Y-61821224D01*
X41111047Y-61818296D01*
X41298757Y-61704390D01*
X41298756Y-61704390D01*
X41303317Y-61701623D01*
X41343134Y-61667072D01*
X41473412Y-61554023D01*
X41473414Y-61554021D01*
X41477445Y-61550523D01*
X41544500Y-61468744D01*
X41620240Y-61376373D01*
X41620244Y-61376367D01*
X41623624Y-61372245D01*
X41641552Y-61340750D01*
X41692632Y-61291445D01*
X41762262Y-61277583D01*
X41828333Y-61303566D01*
X41855573Y-61332716D01*
X41937441Y-61454319D01*
X41941120Y-61458176D01*
X41941122Y-61458178D01*
X41961290Y-61479319D01*
X42096576Y-61621135D01*
X42281542Y-61758754D01*
X42286293Y-61761170D01*
X42286297Y-61761172D01*
X42330713Y-61783754D01*
X42487051Y-61863240D01*
X42492145Y-61864822D01*
X42492148Y-61864823D01*
X42692020Y-61926885D01*
X42707227Y-61931607D01*
X42712516Y-61932308D01*
X42930489Y-61961198D01*
X42930494Y-61961198D01*
X42935774Y-61961898D01*
X42941103Y-61961698D01*
X42941105Y-61961698D01*
X43058038Y-61957308D01*
X43166158Y-61953249D01*
X43188802Y-61948498D01*
X43283898Y-61928545D01*
X43391791Y-61905907D01*
X43396750Y-61903949D01*
X43396752Y-61903948D01*
X43601256Y-61823185D01*
X43601258Y-61823184D01*
X43606221Y-61821224D01*
X43611047Y-61818296D01*
X43792989Y-61707890D01*
X58141500Y-61707890D01*
X58146562Y-61767548D01*
X58154682Y-61863240D01*
X58156080Y-61879720D01*
X58157418Y-61884875D01*
X58157419Y-61884881D01*
X58212657Y-62097703D01*
X58213999Y-62102872D01*
X58216191Y-62107738D01*
X58216192Y-62107741D01*
X58263368Y-62212467D01*
X58308688Y-62313075D01*
X58437441Y-62504319D01*
X58596576Y-62671135D01*
X58781542Y-62808754D01*
X58786293Y-62811170D01*
X58786297Y-62811172D01*
X58884296Y-62860997D01*
X58987051Y-62913240D01*
X58992145Y-62914822D01*
X58992148Y-62914823D01*
X59140997Y-62961042D01*
X59207227Y-62981607D01*
X59212516Y-62982308D01*
X59430489Y-63011198D01*
X59430494Y-63011198D01*
X59435774Y-63011898D01*
X59441103Y-63011698D01*
X59441105Y-63011698D01*
X59550966Y-63007574D01*
X59666158Y-63003249D01*
X59671468Y-63002135D01*
X59886572Y-62957002D01*
X59891791Y-62955907D01*
X59896750Y-62953949D01*
X59896752Y-62953948D01*
X60101256Y-62873185D01*
X60101258Y-62873184D01*
X60106221Y-62871224D01*
X60136206Y-62853029D01*
X60269325Y-62772250D01*
X60303317Y-62751623D01*
X60343493Y-62716760D01*
X60473412Y-62604023D01*
X60473414Y-62604021D01*
X60477445Y-62600523D01*
X60507006Y-62564471D01*
X60565666Y-62524476D01*
X60636636Y-62522545D01*
X60697384Y-62559290D01*
X60711584Y-62578059D01*
X60798063Y-62717807D01*
X60807099Y-62729208D01*
X60921829Y-62843739D01*
X60933240Y-62852751D01*
X61071243Y-62937816D01*
X61084424Y-62943963D01*
X61238710Y-62995138D01*
X61252086Y-62998005D01*
X61346438Y-63007672D01*
X61352854Y-63008000D01*
X61727885Y-63008000D01*
X61743124Y-63003525D01*
X61744329Y-63002135D01*
X61746000Y-62994452D01*
X61746000Y-62989884D01*
X62254000Y-62989884D01*
X62258475Y-63005123D01*
X62259865Y-63006328D01*
X62267548Y-63007999D01*
X62647095Y-63007999D01*
X62653614Y-63007662D01*
X62749206Y-62997743D01*
X62762600Y-62994851D01*
X62916784Y-62943412D01*
X62929962Y-62937239D01*
X63067807Y-62851937D01*
X63079208Y-62842901D01*
X63193739Y-62728171D01*
X63202751Y-62716760D01*
X63287816Y-62578757D01*
X63293963Y-62565576D01*
X63345138Y-62411290D01*
X63348005Y-62397914D01*
X63357672Y-62303562D01*
X63358000Y-62297146D01*
X63358000Y-61772115D01*
X63353525Y-61756876D01*
X63352135Y-61755671D01*
X63344452Y-61754000D01*
X62272115Y-61754000D01*
X62256876Y-61758475D01*
X62255671Y-61759865D01*
X62254000Y-61767548D01*
X62254000Y-62989884D01*
X61746000Y-62989884D01*
X61746000Y-61227885D01*
X62254000Y-61227885D01*
X62258475Y-61243124D01*
X62259865Y-61244329D01*
X62267548Y-61246000D01*
X63339884Y-61246000D01*
X63355123Y-61241525D01*
X63356328Y-61240135D01*
X63357999Y-61232452D01*
X63357999Y-60702905D01*
X63357662Y-60696386D01*
X63347743Y-60600794D01*
X63344851Y-60587400D01*
X63293412Y-60433216D01*
X63287239Y-60420038D01*
X63201937Y-60282193D01*
X63192901Y-60270792D01*
X63078171Y-60156261D01*
X63066760Y-60147249D01*
X62928757Y-60062184D01*
X62915576Y-60056037D01*
X62761290Y-60004862D01*
X62747914Y-60001995D01*
X62653562Y-59992328D01*
X62647145Y-59992000D01*
X62272115Y-59992000D01*
X62256876Y-59996475D01*
X62255671Y-59997865D01*
X62254000Y-60005548D01*
X62254000Y-61227885D01*
X61746000Y-61227885D01*
X61746000Y-60010116D01*
X61741525Y-59994877D01*
X61740135Y-59993672D01*
X61732452Y-59992001D01*
X61352905Y-59992001D01*
X61346386Y-59992338D01*
X61250794Y-60002257D01*
X61237400Y-60005149D01*
X61083216Y-60056588D01*
X61070038Y-60062761D01*
X60932193Y-60148063D01*
X60920792Y-60157099D01*
X60806261Y-60271829D01*
X60797247Y-60283243D01*
X60711277Y-60422713D01*
X60658505Y-60470207D01*
X60588434Y-60481631D01*
X60523310Y-60453357D01*
X60512847Y-60443570D01*
X60492951Y-60422713D01*
X60403424Y-60328865D01*
X60218458Y-60191246D01*
X60213707Y-60188830D01*
X60213703Y-60188828D01*
X60068727Y-60115119D01*
X60012949Y-60086760D01*
X60007855Y-60085178D01*
X60007852Y-60085177D01*
X59797871Y-60019976D01*
X59792773Y-60018393D01*
X59787484Y-60017692D01*
X59569511Y-59988802D01*
X59569506Y-59988802D01*
X59564226Y-59988102D01*
X59558897Y-59988302D01*
X59558895Y-59988302D01*
X59460368Y-59992001D01*
X59333842Y-59996751D01*
X59328623Y-59997846D01*
X59308849Y-60001995D01*
X59108209Y-60044093D01*
X59103250Y-60046051D01*
X59103248Y-60046052D01*
X58898744Y-60126815D01*
X58898742Y-60126816D01*
X58893779Y-60128776D01*
X58889220Y-60131543D01*
X58889217Y-60131544D01*
X58790832Y-60191246D01*
X58696683Y-60248377D01*
X58692653Y-60251874D01*
X58599484Y-60332722D01*
X58522555Y-60399477D01*
X58519168Y-60403608D01*
X58379760Y-60573627D01*
X58379756Y-60573633D01*
X58376376Y-60577755D01*
X58373737Y-60582391D01*
X58373735Y-60582394D01*
X58288351Y-60732392D01*
X58262325Y-60778114D01*
X58183663Y-60994825D01*
X58182714Y-61000074D01*
X58182713Y-61000077D01*
X58143377Y-61217608D01*
X58143376Y-61217615D01*
X58142639Y-61221692D01*
X58141500Y-61245844D01*
X58141500Y-61707890D01*
X43792989Y-61707890D01*
X43798757Y-61704390D01*
X43798756Y-61704390D01*
X43803317Y-61701623D01*
X43843134Y-61667072D01*
X43973412Y-61554023D01*
X43973414Y-61554021D01*
X43977445Y-61550523D01*
X44044500Y-61468744D01*
X44120240Y-61376373D01*
X44120244Y-61376367D01*
X44123624Y-61372245D01*
X44131895Y-61357716D01*
X44235032Y-61176529D01*
X44237675Y-61171886D01*
X44316337Y-60955175D01*
X44348355Y-60778114D01*
X44356623Y-60732392D01*
X44356624Y-60732385D01*
X44357361Y-60728308D01*
X44358500Y-60704156D01*
X44358500Y-60292110D01*
X44349942Y-60191246D01*
X44344371Y-60125591D01*
X44344370Y-60125587D01*
X44343920Y-60120280D01*
X44342582Y-60115125D01*
X44342581Y-60115119D01*
X44287343Y-59902297D01*
X44287342Y-59902293D01*
X44286001Y-59897128D01*
X44191312Y-59686925D01*
X44062559Y-59495681D01*
X44027767Y-59459209D01*
X43974725Y-59403608D01*
X43903424Y-59328865D01*
X43718458Y-59191246D01*
X43713707Y-59188830D01*
X43713703Y-59188828D01*
X43552514Y-59106876D01*
X43512949Y-59086760D01*
X43507855Y-59085178D01*
X43507852Y-59085177D01*
X43297871Y-59019976D01*
X43292773Y-59018393D01*
X43278490Y-59016500D01*
X43069511Y-58988802D01*
X43069506Y-58988802D01*
X43064226Y-58988102D01*
X43058897Y-58988302D01*
X43058895Y-58988302D01*
X42949034Y-58992426D01*
X42833842Y-58996751D01*
X42828623Y-58997846D01*
X42806566Y-59002474D01*
X42608209Y-59044093D01*
X42603250Y-59046051D01*
X42603248Y-59046052D01*
X42398744Y-59126815D01*
X42398742Y-59126816D01*
X42393779Y-59128776D01*
X42389220Y-59131543D01*
X42389217Y-59131544D01*
X42290832Y-59191246D01*
X42196683Y-59248377D01*
X42192653Y-59251874D01*
X42099484Y-59332722D01*
X42022555Y-59399477D01*
X42019168Y-59403608D01*
X41879760Y-59573627D01*
X41879756Y-59573633D01*
X41876376Y-59577755D01*
X41858448Y-59609250D01*
X41807368Y-59658555D01*
X41737738Y-59672417D01*
X41671667Y-59646434D01*
X41644427Y-59617284D01*
X41565539Y-59500108D01*
X41562559Y-59495681D01*
X41527767Y-59459209D01*
X41474725Y-59403608D01*
X41403424Y-59328865D01*
X41218458Y-59191246D01*
X41213707Y-59188830D01*
X41213703Y-59188828D01*
X41052514Y-59106876D01*
X41012949Y-59086760D01*
X41007855Y-59085178D01*
X41007852Y-59085177D01*
X40797871Y-59019976D01*
X40792773Y-59018393D01*
X40778490Y-59016500D01*
X40569511Y-58988802D01*
X40569506Y-58988802D01*
X40564226Y-58988102D01*
X40558897Y-58988302D01*
X40558895Y-58988302D01*
X40449034Y-58992426D01*
X40333842Y-58996751D01*
X40328623Y-58997846D01*
X40306566Y-59002474D01*
X40108209Y-59044093D01*
X40103250Y-59046051D01*
X40103248Y-59046052D01*
X39898744Y-59126815D01*
X39898742Y-59126816D01*
X39893779Y-59128776D01*
X39889220Y-59131543D01*
X39889217Y-59131544D01*
X39790832Y-59191246D01*
X39696683Y-59248377D01*
X39692653Y-59251874D01*
X39599484Y-59332722D01*
X39522555Y-59399477D01*
X39493330Y-59435120D01*
X39434671Y-59475114D01*
X39363701Y-59477046D01*
X39302952Y-59440302D01*
X39288752Y-59421532D01*
X39202332Y-59281880D01*
X39198478Y-59275652D01*
X39073303Y-59150695D01*
X39067072Y-59146854D01*
X38928968Y-59061725D01*
X38928966Y-59061724D01*
X38922738Y-59057885D01*
X38824810Y-59025404D01*
X38761389Y-59004368D01*
X38761387Y-59004368D01*
X38754861Y-59002203D01*
X38748025Y-59001503D01*
X38748022Y-59001502D01*
X38704969Y-58997091D01*
X38650400Y-58991500D01*
X37349600Y-58991500D01*
X37346354Y-58991837D01*
X37346350Y-58991837D01*
X37250692Y-59001762D01*
X37250688Y-59001763D01*
X37243834Y-59002474D01*
X37237298Y-59004655D01*
X37237296Y-59004655D01*
X37171034Y-59026762D01*
X37076054Y-59058450D01*
X36925652Y-59151522D01*
X36800695Y-59276697D01*
X36796855Y-59282927D01*
X36796854Y-59282928D01*
X36722466Y-59403608D01*
X36707885Y-59427262D01*
X36686472Y-59491822D01*
X36656432Y-59582390D01*
X36652203Y-59595139D01*
X36651503Y-59601975D01*
X36651502Y-59601978D01*
X36649338Y-59623102D01*
X36641500Y-59699600D01*
X36641500Y-61250400D01*
X33687180Y-61250400D01*
X33687180Y-50860000D01*
X34796502Y-50860000D01*
X34816457Y-51088087D01*
X34875716Y-51309243D01*
X34878039Y-51314224D01*
X34878039Y-51314225D01*
X34970151Y-51511762D01*
X34970154Y-51511767D01*
X34972477Y-51516749D01*
X35103802Y-51704300D01*
X35265700Y-51866198D01*
X35270208Y-51869355D01*
X35270211Y-51869357D01*
X35328011Y-51909829D01*
X35453251Y-51997523D01*
X35458233Y-51999846D01*
X35458238Y-51999849D01*
X35606067Y-52068782D01*
X35660757Y-52094284D01*
X35666065Y-52095706D01*
X35666067Y-52095707D01*
X35876598Y-52152119D01*
X35876600Y-52152119D01*
X35881913Y-52153543D01*
X36110000Y-52173498D01*
X36338087Y-52153543D01*
X36343400Y-52152119D01*
X36343402Y-52152119D01*
X36553933Y-52095707D01*
X36553935Y-52095706D01*
X36559243Y-52094284D01*
X36613933Y-52068782D01*
X36761762Y-51999849D01*
X36761767Y-51999846D01*
X36766749Y-51997523D01*
X36891989Y-51909829D01*
X36949789Y-51869357D01*
X36949792Y-51869355D01*
X36954300Y-51866198D01*
X36973052Y-51847446D01*
X37035364Y-51813420D01*
X37106179Y-51818485D01*
X37151242Y-51847446D01*
X37696043Y-52392247D01*
X37703587Y-52400537D01*
X37707700Y-52407018D01*
X37713477Y-52412443D01*
X37757367Y-52453658D01*
X37760209Y-52456413D01*
X37779930Y-52476134D01*
X37783125Y-52478612D01*
X37792147Y-52486318D01*
X37824379Y-52516586D01*
X37831328Y-52520406D01*
X37842132Y-52526346D01*
X37858656Y-52537199D01*
X37874659Y-52549613D01*
X37915243Y-52567176D01*
X37925873Y-52572383D01*
X37964640Y-52593695D01*
X37972317Y-52595666D01*
X37972322Y-52595668D01*
X37984258Y-52598732D01*
X38002966Y-52605137D01*
X38021555Y-52613181D01*
X38029380Y-52614420D01*
X38029382Y-52614421D01*
X38065219Y-52620097D01*
X38076840Y-52622504D01*
X38108659Y-52630673D01*
X38119670Y-52633500D01*
X38139931Y-52633500D01*
X38159640Y-52635051D01*
X38179643Y-52638219D01*
X38187535Y-52637473D01*
X38192762Y-52636979D01*
X38223654Y-52634059D01*
X38235511Y-52633500D01*
X50131233Y-52633500D01*
X50142416Y-52634027D01*
X50149909Y-52635702D01*
X50157835Y-52635453D01*
X50157836Y-52635453D01*
X50217986Y-52633562D01*
X50221945Y-52633500D01*
X50249856Y-52633500D01*
X50253791Y-52633003D01*
X50253856Y-52632995D01*
X50265693Y-52632062D01*
X50297951Y-52631048D01*
X50301970Y-52630922D01*
X50309889Y-52630673D01*
X50329343Y-52625021D01*
X50348700Y-52621013D01*
X50360930Y-52619468D01*
X50360931Y-52619468D01*
X50368797Y-52618474D01*
X50376168Y-52615555D01*
X50376170Y-52615555D01*
X50409912Y-52602196D01*
X50421142Y-52598351D01*
X50455983Y-52588229D01*
X50455984Y-52588229D01*
X50463593Y-52586018D01*
X50470412Y-52581985D01*
X50470417Y-52581983D01*
X50481028Y-52575707D01*
X50498776Y-52567012D01*
X50517617Y-52559552D01*
X50537987Y-52544753D01*
X50553387Y-52533564D01*
X50563307Y-52527048D01*
X50594535Y-52508580D01*
X50594538Y-52508578D01*
X50601362Y-52504542D01*
X50615683Y-52490221D01*
X50630717Y-52477380D01*
X50632432Y-52476134D01*
X50647107Y-52465472D01*
X50675298Y-52431395D01*
X50683288Y-52422616D01*
X50936752Y-52169152D01*
X50999064Y-52135126D01*
X51058459Y-52136541D01*
X51116591Y-52152118D01*
X51116602Y-52152120D01*
X51121913Y-52153543D01*
X51350000Y-52173498D01*
X51578087Y-52153543D01*
X51583400Y-52152119D01*
X51583402Y-52152119D01*
X51793933Y-52095707D01*
X51793935Y-52095706D01*
X51799243Y-52094284D01*
X51853933Y-52068782D01*
X52001762Y-51999849D01*
X52001767Y-51999846D01*
X52006749Y-51997523D01*
X52131989Y-51909829D01*
X52189789Y-51869357D01*
X52189792Y-51869355D01*
X52194300Y-51866198D01*
X52356198Y-51704300D01*
X52487523Y-51516749D01*
X52489846Y-51511767D01*
X52489849Y-51511762D01*
X52505805Y-51477543D01*
X52552722Y-51424258D01*
X52620999Y-51404797D01*
X52688959Y-51425339D01*
X52734195Y-51477543D01*
X52750151Y-51511762D01*
X52750154Y-51511767D01*
X52752477Y-51516749D01*
X52883802Y-51704300D01*
X53045700Y-51866198D01*
X53050208Y-51869355D01*
X53050211Y-51869357D01*
X53108011Y-51909829D01*
X53233251Y-51997523D01*
X53238233Y-51999846D01*
X53238238Y-51999849D01*
X53386067Y-52068782D01*
X53440757Y-52094284D01*
X53446065Y-52095706D01*
X53446067Y-52095707D01*
X53656598Y-52152119D01*
X53656600Y-52152119D01*
X53661913Y-52153543D01*
X53890000Y-52173498D01*
X54118087Y-52153543D01*
X54123400Y-52152119D01*
X54123402Y-52152119D01*
X54333933Y-52095707D01*
X54333935Y-52095706D01*
X54339243Y-52094284D01*
X54393933Y-52068782D01*
X54541762Y-51999849D01*
X54541767Y-51999846D01*
X54546749Y-51997523D01*
X54671989Y-51909829D01*
X54729789Y-51869357D01*
X54729792Y-51869355D01*
X54734300Y-51866198D01*
X54896198Y-51704300D01*
X55027523Y-51516749D01*
X55029846Y-51511767D01*
X55029849Y-51511762D01*
X55121961Y-51314225D01*
X55121961Y-51314224D01*
X55124284Y-51309243D01*
X55183543Y-51088087D01*
X55203498Y-50860000D01*
X55183543Y-50631913D01*
X55124284Y-50410757D01*
X55045805Y-50242457D01*
X55029849Y-50208238D01*
X55029846Y-50208233D01*
X55027523Y-50203251D01*
X54896198Y-50015700D01*
X54734300Y-49853802D01*
X54729792Y-49850645D01*
X54729789Y-49850643D01*
X54651611Y-49795902D01*
X54546749Y-49722477D01*
X54541767Y-49720154D01*
X54541762Y-49720151D01*
X54344225Y-49628039D01*
X54344224Y-49628039D01*
X54339243Y-49625716D01*
X54333935Y-49624294D01*
X54333933Y-49624293D01*
X54123402Y-49567881D01*
X54123400Y-49567881D01*
X54118087Y-49566457D01*
X53890000Y-49546502D01*
X53661913Y-49566457D01*
X53656608Y-49567879D01*
X53656594Y-49567881D01*
X53598461Y-49583459D01*
X53527484Y-49581771D01*
X53476752Y-49550848D01*
X53082603Y-49156698D01*
X52683025Y-48757120D01*
X52649000Y-48694808D01*
X52646121Y-48668025D01*
X52646121Y-47088507D01*
X52666123Y-47020386D01*
X52678479Y-47004203D01*
X52739040Y-46936944D01*
X52834527Y-46771556D01*
X52893542Y-46589928D01*
X52913504Y-46400000D01*
X52893542Y-46210072D01*
X52834527Y-46028444D01*
X52739040Y-45863056D01*
X52676685Y-45793803D01*
X52615675Y-45726045D01*
X52615674Y-45726044D01*
X52611253Y-45721134D01*
X52456752Y-45608882D01*
X52450724Y-45606198D01*
X52450722Y-45606197D01*
X52288319Y-45533891D01*
X52288318Y-45533891D01*
X52282288Y-45531206D01*
X52188888Y-45511353D01*
X52101944Y-45492872D01*
X52101939Y-45492872D01*
X52095487Y-45491500D01*
X51904513Y-45491500D01*
X51898061Y-45492872D01*
X51898056Y-45492872D01*
X51811112Y-45511353D01*
X51717712Y-45531206D01*
X51711682Y-45533891D01*
X51711681Y-45533891D01*
X51549278Y-45606197D01*
X51549276Y-45606198D01*
X51543248Y-45608882D01*
X51388747Y-45721134D01*
X51384326Y-45726044D01*
X51384325Y-45726045D01*
X51323316Y-45793803D01*
X51260960Y-45863056D01*
X51165473Y-46028444D01*
X51106458Y-46210072D01*
X51086496Y-46400000D01*
X51106458Y-46589928D01*
X51165473Y-46771556D01*
X51260960Y-46936944D01*
X51346758Y-47032232D01*
X51377474Y-47096238D01*
X51379121Y-47116541D01*
X51379121Y-48903854D01*
X51378594Y-48915037D01*
X51376919Y-48922530D01*
X51377168Y-48930456D01*
X51377168Y-48930457D01*
X51379059Y-48990607D01*
X51379121Y-48994566D01*
X51379121Y-49022477D01*
X51379618Y-49026411D01*
X51379618Y-49026412D01*
X51379626Y-49026477D01*
X51380559Y-49038314D01*
X51381948Y-49082510D01*
X51387599Y-49101960D01*
X51391608Y-49121321D01*
X51394147Y-49141418D01*
X51397066Y-49148789D01*
X51397066Y-49148791D01*
X51410425Y-49182533D01*
X51414270Y-49193763D01*
X51426603Y-49236214D01*
X51430636Y-49243033D01*
X51430638Y-49243038D01*
X51436914Y-49253649D01*
X51445609Y-49271397D01*
X51453069Y-49290238D01*
X51457731Y-49296654D01*
X51457731Y-49296655D01*
X51479057Y-49326008D01*
X51485571Y-49335924D01*
X51499497Y-49359471D01*
X51516957Y-49428285D01*
X51494442Y-49495617D01*
X51439098Y-49540087D01*
X51380063Y-49549132D01*
X51355476Y-49546981D01*
X51355475Y-49546981D01*
X51350000Y-49546502D01*
X51121913Y-49566457D01*
X51116600Y-49567881D01*
X51116598Y-49567881D01*
X50906067Y-49624293D01*
X50906065Y-49624294D01*
X50900757Y-49625716D01*
X50895776Y-49628039D01*
X50895775Y-49628039D01*
X50698238Y-49720151D01*
X50698233Y-49720154D01*
X50693251Y-49722477D01*
X50588389Y-49795902D01*
X50510211Y-49850643D01*
X50510208Y-49850645D01*
X50505700Y-49853802D01*
X50343802Y-50015700D01*
X50212477Y-50203251D01*
X50210154Y-50208233D01*
X50210151Y-50208238D01*
X50194195Y-50242457D01*
X50147278Y-50295742D01*
X50079001Y-50315203D01*
X50011041Y-50294661D01*
X49965805Y-50242457D01*
X49949849Y-50208238D01*
X49949846Y-50208233D01*
X49947523Y-50203251D01*
X49816198Y-50015700D01*
X49654300Y-49853802D01*
X49649792Y-49850645D01*
X49649789Y-49850643D01*
X49571611Y-49795902D01*
X49466749Y-49722477D01*
X49461767Y-49720154D01*
X49461762Y-49720151D01*
X49264225Y-49628039D01*
X49264224Y-49628039D01*
X49259243Y-49625716D01*
X49253935Y-49624294D01*
X49253933Y-49624293D01*
X49043402Y-49567881D01*
X49043400Y-49567881D01*
X49038087Y-49566457D01*
X48810000Y-49546502D01*
X48581913Y-49566457D01*
X48576600Y-49567881D01*
X48576598Y-49567881D01*
X48366067Y-49624293D01*
X48366065Y-49624294D01*
X48360757Y-49625716D01*
X48355776Y-49628039D01*
X48355775Y-49628039D01*
X48158238Y-49720151D01*
X48158233Y-49720154D01*
X48153251Y-49722477D01*
X48048389Y-49795902D01*
X47970211Y-49850643D01*
X47970208Y-49850645D01*
X47965700Y-49853802D01*
X47803802Y-50015700D01*
X47672477Y-50203251D01*
X47670154Y-50208233D01*
X47670151Y-50208238D01*
X47654195Y-50242457D01*
X47607278Y-50295742D01*
X47539001Y-50315203D01*
X47471041Y-50294661D01*
X47425805Y-50242457D01*
X47409849Y-50208238D01*
X47409846Y-50208233D01*
X47407523Y-50203251D01*
X47276198Y-50015700D01*
X47114300Y-49853802D01*
X47109792Y-49850645D01*
X47109789Y-49850643D01*
X47031611Y-49795902D01*
X46926749Y-49722477D01*
X46921767Y-49720154D01*
X46921762Y-49720151D01*
X46724225Y-49628039D01*
X46724224Y-49628039D01*
X46719243Y-49625716D01*
X46713935Y-49624294D01*
X46713933Y-49624293D01*
X46503402Y-49567881D01*
X46503400Y-49567881D01*
X46498087Y-49566457D01*
X46270000Y-49546502D01*
X46041913Y-49566457D01*
X46036600Y-49567881D01*
X46036598Y-49567881D01*
X45826067Y-49624293D01*
X45826065Y-49624294D01*
X45820757Y-49625716D01*
X45815776Y-49628039D01*
X45815775Y-49628039D01*
X45618238Y-49720151D01*
X45618233Y-49720154D01*
X45613251Y-49722477D01*
X45508389Y-49795902D01*
X45430211Y-49850643D01*
X45430208Y-49850645D01*
X45425700Y-49853802D01*
X45263802Y-50015700D01*
X45132477Y-50203251D01*
X45130154Y-50208233D01*
X45130151Y-50208238D01*
X45114195Y-50242457D01*
X45067278Y-50295742D01*
X44999001Y-50315203D01*
X44931041Y-50294661D01*
X44885805Y-50242457D01*
X44869849Y-50208238D01*
X44869846Y-50208233D01*
X44867523Y-50203251D01*
X44736198Y-50015700D01*
X44574300Y-49853802D01*
X44569792Y-49850645D01*
X44569789Y-49850643D01*
X44491611Y-49795902D01*
X44386749Y-49722477D01*
X44381767Y-49720154D01*
X44381762Y-49720151D01*
X44184225Y-49628039D01*
X44184224Y-49628039D01*
X44179243Y-49625716D01*
X44173935Y-49624294D01*
X44173933Y-49624293D01*
X43963402Y-49567881D01*
X43963400Y-49567881D01*
X43958087Y-49566457D01*
X43730000Y-49546502D01*
X43501913Y-49566457D01*
X43496600Y-49567881D01*
X43496598Y-49567881D01*
X43286067Y-49624293D01*
X43286065Y-49624294D01*
X43280757Y-49625716D01*
X43275776Y-49628039D01*
X43275775Y-49628039D01*
X43078238Y-49720151D01*
X43078233Y-49720154D01*
X43073251Y-49722477D01*
X42968389Y-49795902D01*
X42890211Y-49850643D01*
X42890208Y-49850645D01*
X42885700Y-49853802D01*
X42723802Y-50015700D01*
X42592477Y-50203251D01*
X42590154Y-50208233D01*
X42590151Y-50208238D01*
X42574195Y-50242457D01*
X42527278Y-50295742D01*
X42459001Y-50315203D01*
X42391041Y-50294661D01*
X42345805Y-50242457D01*
X42329849Y-50208238D01*
X42329846Y-50208233D01*
X42327523Y-50203251D01*
X42196198Y-50015700D01*
X42034300Y-49853802D01*
X42029792Y-49850645D01*
X42029789Y-49850643D01*
X41951611Y-49795902D01*
X41846749Y-49722477D01*
X41841767Y-49720154D01*
X41841762Y-49720151D01*
X41644225Y-49628039D01*
X41644224Y-49628039D01*
X41639243Y-49625716D01*
X41633935Y-49624294D01*
X41633933Y-49624293D01*
X41423402Y-49567881D01*
X41423400Y-49567881D01*
X41418087Y-49566457D01*
X41190000Y-49546502D01*
X40961913Y-49566457D01*
X40956600Y-49567881D01*
X40956598Y-49567881D01*
X40746067Y-49624293D01*
X40746065Y-49624294D01*
X40740757Y-49625716D01*
X40735776Y-49628039D01*
X40735775Y-49628039D01*
X40538238Y-49720151D01*
X40538233Y-49720154D01*
X40533251Y-49722477D01*
X40428389Y-49795902D01*
X40350211Y-49850643D01*
X40350208Y-49850645D01*
X40345700Y-49853802D01*
X40183802Y-50015700D01*
X40052477Y-50203251D01*
X40050154Y-50208233D01*
X40050151Y-50208238D01*
X40034195Y-50242457D01*
X39987278Y-50295742D01*
X39919001Y-50315203D01*
X39851041Y-50294661D01*
X39805805Y-50242457D01*
X39789849Y-50208238D01*
X39789846Y-50208233D01*
X39787523Y-50203251D01*
X39656198Y-50015700D01*
X39494300Y-49853802D01*
X39489792Y-49850645D01*
X39489789Y-49850643D01*
X39411611Y-49795902D01*
X39306749Y-49722477D01*
X39301767Y-49720154D01*
X39301762Y-49720151D01*
X39104225Y-49628039D01*
X39104224Y-49628039D01*
X39099243Y-49625716D01*
X39093935Y-49624294D01*
X39093933Y-49624293D01*
X38883402Y-49567881D01*
X38883400Y-49567881D01*
X38878087Y-49566457D01*
X38650000Y-49546502D01*
X38421913Y-49566457D01*
X38317599Y-49594408D01*
X38246624Y-49592718D01*
X38187828Y-49552924D01*
X38159880Y-49487660D01*
X38158989Y-49472701D01*
X38158989Y-44974216D01*
X38178991Y-44906095D01*
X38191353Y-44889906D01*
X38234621Y-44841852D01*
X38234622Y-44841851D01*
X38239040Y-44836944D01*
X38334527Y-44671556D01*
X38393542Y-44489928D01*
X38395766Y-44468774D01*
X38412814Y-44306565D01*
X38413504Y-44300000D01*
X38393542Y-44110072D01*
X38334527Y-43928444D01*
X38239040Y-43763056D01*
X38111253Y-43621134D01*
X37956752Y-43508882D01*
X37950724Y-43506198D01*
X37950722Y-43506197D01*
X37788319Y-43433891D01*
X37788318Y-43433891D01*
X37782288Y-43431206D01*
X37688888Y-43411353D01*
X37601944Y-43392872D01*
X37601939Y-43392872D01*
X37595487Y-43391500D01*
X37404513Y-43391500D01*
X37398061Y-43392872D01*
X37398056Y-43392872D01*
X37311112Y-43411353D01*
X37217712Y-43431206D01*
X37211682Y-43433891D01*
X37211681Y-43433891D01*
X37049278Y-43506197D01*
X37049276Y-43506198D01*
X37043248Y-43508882D01*
X36888747Y-43621134D01*
X36760960Y-43763056D01*
X36665473Y-43928444D01*
X36606458Y-44110072D01*
X36586496Y-44300000D01*
X36587186Y-44306565D01*
X36604235Y-44468774D01*
X36606458Y-44489928D01*
X36665473Y-44671556D01*
X36760960Y-44836944D01*
X36765378Y-44841851D01*
X36765379Y-44841852D01*
X36859625Y-44946523D01*
X36890343Y-45010530D01*
X36891989Y-45030833D01*
X36891989Y-49583097D01*
X36871987Y-49651218D01*
X36818331Y-49697711D01*
X36748057Y-49707815D01*
X36712739Y-49697292D01*
X36564225Y-49628039D01*
X36564224Y-49628039D01*
X36559243Y-49625716D01*
X36553935Y-49624294D01*
X36553933Y-49624293D01*
X36343402Y-49567881D01*
X36343400Y-49567881D01*
X36338087Y-49566457D01*
X36110000Y-49546502D01*
X35881913Y-49566457D01*
X35876600Y-49567881D01*
X35876598Y-49567881D01*
X35666067Y-49624293D01*
X35666065Y-49624294D01*
X35660757Y-49625716D01*
X35655776Y-49628039D01*
X35655775Y-49628039D01*
X35458238Y-49720151D01*
X35458233Y-49720154D01*
X35453251Y-49722477D01*
X35348389Y-49795902D01*
X35270211Y-49850643D01*
X35270208Y-49850645D01*
X35265700Y-49853802D01*
X35103802Y-50015700D01*
X34972477Y-50203251D01*
X34970154Y-50208233D01*
X34970151Y-50208238D01*
X34954195Y-50242457D01*
X34875716Y-50410757D01*
X34816457Y-50631913D01*
X34796502Y-50860000D01*
X33687180Y-50860000D01*
X33687180Y-46831920D01*
X33688926Y-46811018D01*
X33691449Y-46796021D01*
X33691449Y-46796017D01*
X33692256Y-46791222D01*
X33692409Y-46778670D01*
X33690374Y-46764460D01*
X33689422Y-46755589D01*
X33675996Y-46567923D01*
X33675996Y-46567922D01*
X33675675Y-46563437D01*
X33655834Y-46472235D01*
X33630760Y-46356986D01*
X33629803Y-46352586D01*
X33607343Y-46292371D01*
X33555962Y-46154624D01*
X33555961Y-46154622D01*
X33554390Y-46150410D01*
X33552235Y-46146464D01*
X33552232Y-46146457D01*
X33453134Y-45964981D01*
X33453133Y-45964979D01*
X33450973Y-45961024D01*
X33382955Y-45870166D01*
X33324349Y-45791881D01*
X33324346Y-45791877D01*
X33321655Y-45788283D01*
X33169071Y-45635705D01*
X32996325Y-45506395D01*
X32806935Y-45402985D01*
X32802717Y-45401412D01*
X32802713Y-45401410D01*
X32722666Y-45371556D01*
X32604756Y-45327580D01*
X32393903Y-45281716D01*
X32219130Y-45269220D01*
X32207238Y-45267798D01*
X32191222Y-45265104D01*
X32184839Y-45265026D01*
X32183529Y-45265010D01*
X32183526Y-45265010D01*
X32178670Y-45264951D01*
X32173862Y-45265640D01*
X32173857Y-45265640D01*
X32151050Y-45268907D01*
X32133185Y-45270180D01*
X29228049Y-45270180D01*
X29208661Y-45268679D01*
X29193841Y-45266371D01*
X29193840Y-45266371D01*
X29184966Y-45264989D01*
X29176064Y-45266153D01*
X29176062Y-45266153D01*
X29175940Y-45266169D01*
X29145494Y-45266439D01*
X29083436Y-45259445D01*
X29055931Y-45253167D01*
X28978849Y-45226194D01*
X28953426Y-45213951D01*
X28915196Y-45189928D01*
X28884277Y-45170499D01*
X28862220Y-45152908D01*
X28804477Y-45095163D01*
X28786888Y-45073106D01*
X28743437Y-45003952D01*
X28731200Y-44978538D01*
X28704229Y-44901454D01*
X28697951Y-44873947D01*
X28691666Y-44818158D01*
X28690883Y-44802508D01*
X28690989Y-44793838D01*
X28692371Y-44784966D01*
X28688243Y-44753391D01*
X28687180Y-44737057D01*
X28687180Y-31426159D01*
X28707182Y-31358038D01*
X28760838Y-31311545D01*
X28831112Y-31301441D01*
X28895692Y-31330935D01*
X28922023Y-31362683D01*
X28944885Y-31401885D01*
X29010313Y-31514076D01*
X29220999Y-31796219D01*
X29223443Y-31798817D01*
X29223448Y-31798823D01*
X29454250Y-32044172D01*
X29462270Y-32052697D01*
X29562941Y-32137921D01*
X29724519Y-32274707D01*
X29731024Y-32280214D01*
X29733988Y-32282194D01*
X29733990Y-32282196D01*
X30000740Y-32460432D01*
X30023807Y-32475845D01*
X30026989Y-32477484D01*
X30026991Y-32477485D01*
X30333670Y-32635436D01*
X30333675Y-32635438D01*
X30336853Y-32637075D01*
X30340194Y-32638341D01*
X30340199Y-32638343D01*
X30533849Y-32711710D01*
X30666139Y-32761830D01*
X30669603Y-32762710D01*
X30669607Y-32762711D01*
X31003963Y-32847627D01*
X31003971Y-32847629D01*
X31007430Y-32848507D01*
X31161976Y-32869540D01*
X31353347Y-32895585D01*
X31353354Y-32895586D01*
X31356340Y-32895992D01*
X31471081Y-32900500D01*
X31689198Y-32900500D01*
X31830756Y-32892462D01*
X31947992Y-32885805D01*
X31947999Y-32885804D01*
X31951560Y-32885602D01*
X32089883Y-32861834D01*
X32295082Y-32826575D01*
X32295090Y-32826573D01*
X32298600Y-32825970D01*
X32302025Y-32824972D01*
X32302028Y-32824971D01*
X32633221Y-32728436D01*
X32636659Y-32727434D01*
X32674157Y-32711710D01*
X32958092Y-32592646D01*
X32961390Y-32591263D01*
X33135036Y-32494017D01*
X33265502Y-32420953D01*
X33265507Y-32420950D01*
X33268619Y-32419207D01*
X33271515Y-32417122D01*
X33271520Y-32417119D01*
X33433353Y-32300615D01*
X33554395Y-32213477D01*
X33562538Y-32206081D01*
X33812405Y-31979118D01*
X33812406Y-31979117D01*
X33815046Y-31976719D01*
X34047219Y-31711977D01*
X34056655Y-31698376D01*
X34148139Y-31566500D01*
X34247929Y-31422653D01*
X34263863Y-31393000D01*
X34364009Y-31206618D01*
X34414598Y-31112468D01*
X34545081Y-30785410D01*
X34637701Y-30445683D01*
X34680986Y-30164457D01*
X34690726Y-30101178D01*
X34690726Y-30101174D01*
X34691268Y-30097655D01*
X34693836Y-30032285D01*
X34704952Y-29749370D01*
X34704952Y-29749365D01*
X34705092Y-29745800D01*
X34685816Y-29486410D01*
X34679261Y-29398204D01*
X34679260Y-29398199D01*
X34678996Y-29394642D01*
X34613316Y-29048696D01*
X34508896Y-28712408D01*
X34487380Y-28663508D01*
X34368522Y-28393382D01*
X34368520Y-28393379D01*
X34367079Y-28390103D01*
X34189687Y-28085924D01*
X33979001Y-27803781D01*
X33976557Y-27801183D01*
X33976552Y-27801177D01*
X33740180Y-27549907D01*
X33740176Y-27549904D01*
X33737730Y-27547303D01*
X33584287Y-27417404D01*
X33471698Y-27322090D01*
X33471694Y-27322087D01*
X33468976Y-27319786D01*
X33432012Y-27295087D01*
X33179170Y-27126144D01*
X33179168Y-27126143D01*
X33176193Y-27124155D01*
X33134913Y-27102894D01*
X32984053Y-27025196D01*
X32932651Y-26976223D01*
X32915885Y-26907234D01*
X32939080Y-26840133D01*
X32994869Y-26796224D01*
X33041745Y-26787180D01*
X50512725Y-26787180D01*
X50580846Y-26807182D01*
G37*
G04 #@! TD.AperFunction*
G04 #@! TD*
M02*
