G04 #@! TF.GenerationSoftware,KiCad,Pcbnew,(6.0.4-0)*
G04 #@! TF.CreationDate,2022-04-11T19:30:25+03:00*
G04 #@! TF.ProjectId,rpi_motor_pcb,7270695f-6d6f-4746-9f72-5f7063622e6b,rev?*
G04 #@! TF.SameCoordinates,Original*
G04 #@! TF.FileFunction,Profile,NP*
%FSLAX46Y46*%
G04 Gerber Fmt 4.6, Leading zero omitted, Abs format (unit mm)*
G04 Created by KiCad (PCBNEW (6.0.4-0)) date 2022-04-11 19:30:25*
%MOMM*%
%LPD*%
G01*
G04 APERTURE LIST*
G04 #@! TA.AperFunction,Profile*
%ADD10C,0.100000*%
G04 #@! TD*
G04 APERTURE END LIST*
D10*
X29178680Y-62778680D02*
G75*
G03*
X28178680Y-63778680I20J-1000020D01*
G01*
X29178680Y-45778680D02*
X32178680Y-45778680D01*
X72178680Y-63278680D02*
X72178680Y-78278680D01*
X33178680Y-46778680D02*
X33178680Y-61778680D01*
X28178680Y-28778680D02*
X28178680Y-44778680D01*
X28178720Y-44778680D02*
G75*
G03*
X29178680Y-45778680I999980J-20D01*
G01*
X28178720Y-79278680D02*
G75*
G03*
X31178680Y-82278680I2999980J-20D01*
G01*
X90178680Y-82278680D02*
G75*
G03*
X93178680Y-79278680I20J2999980D01*
G01*
X28178680Y-63778680D02*
X28178680Y-79278680D01*
X31178680Y-26278680D02*
X90178680Y-26278680D01*
X93178715Y-28778673D02*
G75*
G03*
X90178680Y-26278680I-3000015J-550027D01*
G01*
X31178680Y-82278680D02*
X90178680Y-82278680D01*
X93178680Y-28778680D02*
X93178680Y-79278680D01*
X32178680Y-62778680D02*
G75*
G03*
X33178680Y-61778680I20J999980D01*
G01*
X74178680Y-63278680D02*
G75*
G03*
X72178680Y-63278680I-1000000J0D01*
G01*
X31178680Y-26278680D02*
G75*
G03*
X28178680Y-28778680I0J-3050000D01*
G01*
X29178680Y-62778680D02*
X32178680Y-62778680D01*
X72178680Y-78278680D02*
G75*
G03*
X74178680Y-78278680I1000000J0D01*
G01*
X74178680Y-63278680D02*
X74178680Y-78278680D01*
X33178720Y-46778680D02*
G75*
G03*
X32178680Y-45778680I-1000020J-20D01*
G01*
M02*
