M48
; DRILL file {KiCad (6.0.4-0)} date Monday, 11 April 2022, 19:30:25
; FORMAT={-:-/ absolute / metric / decimal}
; #@! TF.CreationDate,2022-04-11T19:30:25+03:00
; #@! TF.GenerationSoftware,Kicad,Pcbnew,(6.0.4-0)
; #@! TF.FileFunction,MixedPlating,1,2
FMAT,2
METRIC
; #@! TA.AperFunction,Plated,PTH,ViaDrill
T1C0.400
; #@! TA.AperFunction,Plated,PTH,ComponentDrill
T2C0.800
; #@! TA.AperFunction,Plated,PTH,ComponentDrill
T3C0.950
; #@! TA.AperFunction,Plated,PTH,ComponentDrill
T4C1.000
; #@! TA.AperFunction,NonPlated,NPTH,ComponentDrill
T5C2.750
%
G90
G05
T1
X34.6Y-45.0
X37.5Y-44.3
X38.1Y-34.7
X40.7Y-32.2
X48.5Y-35.8
X50.4Y-32.7
X52.0Y-46.4
X52.8Y-41.4
X57.9Y-37.9
X82.5Y-53.5
X87.224Y-48.6
T2
X36.11Y-38.16
X36.11Y-50.86
X38.65Y-38.16
X38.65Y-50.86
X41.19Y-38.16
X41.19Y-50.86
X43.73Y-38.16
X43.73Y-50.86
X46.27Y-38.16
X46.27Y-50.86
X48.81Y-38.16
X48.81Y-50.86
X51.35Y-38.16
X51.35Y-50.86
X53.89Y-38.16
X53.89Y-50.86
X67.11Y-38.16
X67.11Y-50.86
X69.65Y-38.16
X69.65Y-50.86
X72.19Y-38.16
X72.19Y-50.86
X74.73Y-38.16
X74.73Y-50.86
X77.27Y-38.16
X77.27Y-50.86
X79.81Y-38.16
X79.81Y-50.86
X82.35Y-38.16
X82.35Y-50.86
X84.89Y-38.16
X84.89Y-50.86
T3
X38.0Y-60.475
X40.5Y-60.475
X43.0Y-60.475
X78.0Y-60.5
X80.5Y-60.5
X83.0Y-60.5
T4
X36.5Y-28.46
X36.5Y-31.0
X39.04Y-28.46
X39.04Y-31.0
X41.58Y-28.46
X41.58Y-31.0
X44.12Y-28.46
X44.12Y-31.0
X46.66Y-28.46
X46.66Y-31.0
X49.2Y-28.46
X49.2Y-31.0
X51.74Y-28.46
X51.74Y-31.0
X54.28Y-28.46
X54.28Y-31.0
X56.82Y-28.46
X56.82Y-31.0
X59.36Y-28.46
X59.36Y-31.0
X59.5Y-61.5
X61.9Y-28.46
X61.9Y-31.0
X62.0Y-61.5
X64.44Y-28.46
X64.44Y-31.0
X66.98Y-28.46
X66.98Y-31.0
X69.52Y-28.46
X69.52Y-31.0
X72.06Y-28.46
X72.06Y-31.0
X74.6Y-28.46
X74.6Y-31.0
X77.14Y-28.46
X77.14Y-31.0
X79.68Y-28.46
X79.68Y-31.0
X82.22Y-28.46
X82.22Y-31.0
X84.76Y-28.46
X84.76Y-31.0
T5
X31.6Y-29.8
X31.6Y-78.8
X89.6Y-29.8
X89.6Y-78.8
T0
M30
