G04 #@! TF.GenerationSoftware,KiCad,Pcbnew,(6.0.4-0)*
G04 #@! TF.CreationDate,2022-04-11T19:30:25+03:00*
G04 #@! TF.ProjectId,rpi_motor_pcb,7270695f-6d6f-4746-9f72-5f7063622e6b,rev?*
G04 #@! TF.SameCoordinates,Original*
G04 #@! TF.FileFunction,Copper,L1,Top*
G04 #@! TF.FilePolarity,Positive*
%FSLAX46Y46*%
G04 Gerber Fmt 4.6, Leading zero omitted, Abs format (unit mm)*
G04 Created by KiCad (PCBNEW (6.0.4-0)) date 2022-04-11 19:30:25*
%MOMM*%
%LPD*%
G01*
G04 APERTURE LIST*
G04 Aperture macros list*
%AMRoundRect*
0 Rectangle with rounded corners*
0 $1 Rounding radius*
0 $2 $3 $4 $5 $6 $7 $8 $9 X,Y pos of 4 corners*
0 Add a 4 corners polygon primitive as box body*
4,1,4,$2,$3,$4,$5,$6,$7,$8,$9,$2,$3,0*
0 Add four circle primitives for the rounded corners*
1,1,$1+$1,$2,$3*
1,1,$1+$1,$4,$5*
1,1,$1+$1,$6,$7*
1,1,$1+$1,$8,$9*
0 Add four rect primitives between the rounded corners*
20,1,$1+$1,$2,$3,$4,$5,0*
20,1,$1+$1,$4,$5,$6,$7,0*
20,1,$1+$1,$6,$7,$8,$9,0*
20,1,$1+$1,$8,$9,$2,$3,0*%
G04 Aperture macros list end*
G04 #@! TA.AperFunction,ComponentPad*
%ADD10RoundRect,0.250000X-0.600000X-0.725000X0.600000X-0.725000X0.600000X0.725000X-0.600000X0.725000X0*%
G04 #@! TD*
G04 #@! TA.AperFunction,ComponentPad*
%ADD11O,1.700000X1.950000*%
G04 #@! TD*
G04 #@! TA.AperFunction,ComponentPad*
%ADD12RoundRect,0.250000X0.600000X0.750000X-0.600000X0.750000X-0.600000X-0.750000X0.600000X-0.750000X0*%
G04 #@! TD*
G04 #@! TA.AperFunction,ComponentPad*
%ADD13O,1.700000X2.000000*%
G04 #@! TD*
G04 #@! TA.AperFunction,ComponentPad*
%ADD14R,1.600000X1.600000*%
G04 #@! TD*
G04 #@! TA.AperFunction,ComponentPad*
%ADD15O,1.600000X1.600000*%
G04 #@! TD*
G04 #@! TA.AperFunction,ComponentPad*
%ADD16R,1.700000X1.700000*%
G04 #@! TD*
G04 #@! TA.AperFunction,ComponentPad*
%ADD17O,1.700000X1.700000*%
G04 #@! TD*
G04 #@! TA.AperFunction,ViaPad*
%ADD18C,0.800000*%
G04 #@! TD*
G04 #@! TA.AperFunction,Conductor*
%ADD19C,2.000000*%
G04 #@! TD*
G04 #@! TA.AperFunction,Conductor*
%ADD20C,0.250000*%
G04 #@! TD*
G04 APERTURE END LIST*
D10*
G04 #@! TO.P,J3,1,Pin_1*
G04 #@! TO.N,Net-(J1-Pad2)*
X38000000Y-60475000D03*
D11*
G04 #@! TO.P,J3,2,Pin_2*
G04 #@! TO.N,Net-(J1-Pad20)*
X40500000Y-60475000D03*
G04 #@! TO.P,J3,3,Pin_3*
G04 #@! TO.N,/Y+*
X43000000Y-60475000D03*
G04 #@! TD*
D12*
G04 #@! TO.P,J4,1,Pin_1*
G04 #@! TO.N,/Vmot*
X62000000Y-61500000D03*
D13*
G04 #@! TO.P,J4,2,Pin_2*
G04 #@! TO.N,Net-(A1-Pad1)*
X59500000Y-61500000D03*
G04 #@! TD*
D14*
G04 #@! TO.P,A2,1,GND*
G04 #@! TO.N,Net-(A1-Pad1)*
X84890000Y-38160000D03*
D15*
G04 #@! TO.P,A2,2,VDD*
G04 #@! TO.N,Net-(J1-Pad2)*
X82350000Y-38160000D03*
G04 #@! TO.P,A2,3,1B*
G04 #@! TO.N,unconnected-(A2-Pad3)*
X79810000Y-38160000D03*
G04 #@! TO.P,A2,4,1A*
G04 #@! TO.N,unconnected-(A2-Pad4)*
X77270000Y-38160000D03*
G04 #@! TO.P,A2,5,2A*
G04 #@! TO.N,unconnected-(A2-Pad5)*
X74730000Y-38160000D03*
G04 #@! TO.P,A2,6,2B*
G04 #@! TO.N,unconnected-(A2-Pad6)*
X72190000Y-38160000D03*
G04 #@! TO.P,A2,7,GND*
G04 #@! TO.N,Net-(A1-Pad1)*
X69650000Y-38160000D03*
G04 #@! TO.P,A2,8,VMOT*
G04 #@! TO.N,/Vmot*
X67110000Y-38160000D03*
G04 #@! TO.P,A2,9,~{ENABLE}*
G04 #@! TO.N,/MotY En*
X67110000Y-50860000D03*
G04 #@! TO.P,A2,10,MS1*
G04 #@! TO.N,unconnected-(A2-Pad10)*
X69650000Y-50860000D03*
G04 #@! TO.P,A2,11,MS2*
G04 #@! TO.N,unconnected-(A2-Pad11)*
X72190000Y-50860000D03*
G04 #@! TO.P,A2,12,MS3*
G04 #@! TO.N,unconnected-(A2-Pad12)*
X74730000Y-50860000D03*
G04 #@! TO.P,A2,13,~{RESET}*
G04 #@! TO.N,unconnected-(A2-Pad13)*
X77270000Y-50860000D03*
G04 #@! TO.P,A2,14,~{SLEEP}*
G04 #@! TO.N,unconnected-(A2-Pad14)*
X79810000Y-50860000D03*
G04 #@! TO.P,A2,15,STEP*
G04 #@! TO.N,/MotY Step*
X82350000Y-50860000D03*
G04 #@! TO.P,A2,16,DIR*
G04 #@! TO.N,/MotY DIR*
X84890000Y-50860000D03*
G04 #@! TD*
D14*
G04 #@! TO.P,A1,1,GND*
G04 #@! TO.N,Net-(A1-Pad1)*
X53890000Y-38160000D03*
D15*
G04 #@! TO.P,A1,2,VDD*
G04 #@! TO.N,Net-(J1-Pad2)*
X51350000Y-38160000D03*
G04 #@! TO.P,A1,3,1B*
G04 #@! TO.N,unconnected-(A1-Pad3)*
X48810000Y-38160000D03*
G04 #@! TO.P,A1,4,1A*
G04 #@! TO.N,unconnected-(A1-Pad4)*
X46270000Y-38160000D03*
G04 #@! TO.P,A1,5,2A*
G04 #@! TO.N,unconnected-(A1-Pad5)*
X43730000Y-38160000D03*
G04 #@! TO.P,A1,6,2B*
G04 #@! TO.N,unconnected-(A1-Pad6)*
X41190000Y-38160000D03*
G04 #@! TO.P,A1,7,GND*
G04 #@! TO.N,Net-(A1-Pad1)*
X38650000Y-38160000D03*
G04 #@! TO.P,A1,8,VMOT*
G04 #@! TO.N,/Vmot*
X36110000Y-38160000D03*
G04 #@! TO.P,A1,9,~{ENABLE}*
G04 #@! TO.N,/MotX En*
X36110000Y-50860000D03*
G04 #@! TO.P,A1,10,MS1*
G04 #@! TO.N,unconnected-(A1-Pad10)*
X38650000Y-50860000D03*
G04 #@! TO.P,A1,11,MS2*
G04 #@! TO.N,unconnected-(A1-Pad11)*
X41190000Y-50860000D03*
G04 #@! TO.P,A1,12,MS3*
G04 #@! TO.N,unconnected-(A1-Pad12)*
X43730000Y-50860000D03*
G04 #@! TO.P,A1,13,~{RESET}*
G04 #@! TO.N,unconnected-(A1-Pad13)*
X46270000Y-50860000D03*
G04 #@! TO.P,A1,14,~{SLEEP}*
G04 #@! TO.N,unconnected-(A1-Pad14)*
X48810000Y-50860000D03*
G04 #@! TO.P,A1,15,STEP*
G04 #@! TO.N,/MotX Step*
X51350000Y-50860000D03*
G04 #@! TO.P,A1,16,DIR*
G04 #@! TO.N,/MotX DIR*
X53890000Y-50860000D03*
G04 #@! TD*
D10*
G04 #@! TO.P,J2,1,Pin_1*
G04 #@! TO.N,Net-(J1-Pad2)*
X78000000Y-60500000D03*
D11*
G04 #@! TO.P,J2,2,Pin_2*
G04 #@! TO.N,Net-(J1-Pad20)*
X80500000Y-60500000D03*
G04 #@! TO.P,J2,3,Pin_3*
G04 #@! TO.N,/X+*
X83000000Y-60500000D03*
G04 #@! TD*
D16*
G04 #@! TO.P,J1,1,3V3*
G04 #@! TO.N,unconnected-(J1-Pad1)*
X36500000Y-31000000D03*
D17*
G04 #@! TO.P,J1,2,5V*
G04 #@! TO.N,Net-(J1-Pad2)*
X36500000Y-28460000D03*
G04 #@! TO.P,J1,3,SDA/GPIO2*
G04 #@! TO.N,unconnected-(J1-Pad3)*
X39040000Y-31000000D03*
G04 #@! TO.P,J1,4,5V*
G04 #@! TO.N,Net-(J1-Pad2)*
X39040000Y-28460000D03*
G04 #@! TO.P,J1,5,SCL/GPIO3*
G04 #@! TO.N,unconnected-(J1-Pad5)*
X41580000Y-31000000D03*
G04 #@! TO.P,J1,6,GND*
G04 #@! TO.N,Net-(J1-Pad20)*
X41580000Y-28460000D03*
G04 #@! TO.P,J1,7,GCLK0/GPIO4*
G04 #@! TO.N,unconnected-(J1-Pad7)*
X44120000Y-31000000D03*
G04 #@! TO.P,J1,8,GPIO14/TXD*
G04 #@! TO.N,unconnected-(J1-Pad8)*
X44120000Y-28460000D03*
G04 #@! TO.P,J1,9,GND*
G04 #@! TO.N,Net-(J1-Pad20)*
X46660000Y-31000000D03*
G04 #@! TO.P,J1,10,GPIO15/RXD*
G04 #@! TO.N,unconnected-(J1-Pad10)*
X46660000Y-28460000D03*
G04 #@! TO.P,J1,11,GPIO17*
G04 #@! TO.N,/MotX Step*
X49200000Y-31000000D03*
G04 #@! TO.P,J1,12,GPIO18/PWM0*
G04 #@! TO.N,unconnected-(J1-Pad12)*
X49200000Y-28460000D03*
G04 #@! TO.P,J1,13,GPIO27*
G04 #@! TO.N,unconnected-(J1-Pad13)*
X51740000Y-31000000D03*
G04 #@! TO.P,J1,14,GND*
G04 #@! TO.N,Net-(J1-Pad20)*
X51740000Y-28460000D03*
G04 #@! TO.P,J1,15,GPIO22*
G04 #@! TO.N,/MotX DIR*
X54280000Y-31000000D03*
G04 #@! TO.P,J1,16,GPIO23*
G04 #@! TO.N,/MotX En*
X54280000Y-28460000D03*
G04 #@! TO.P,J1,17,3V3*
G04 #@! TO.N,unconnected-(J1-Pad17)*
X56820000Y-31000000D03*
G04 #@! TO.P,J1,18,GPIO24*
G04 #@! TO.N,/MotY DIR*
X56820000Y-28460000D03*
G04 #@! TO.P,J1,19,MOSI0/GPIO10*
G04 #@! TO.N,unconnected-(J1-Pad19)*
X59360000Y-31000000D03*
G04 #@! TO.P,J1,20,GND*
G04 #@! TO.N,Net-(J1-Pad20)*
X59360000Y-28460000D03*
G04 #@! TO.P,J1,21,MISO0/GPIO9*
G04 #@! TO.N,unconnected-(J1-Pad21)*
X61900000Y-31000000D03*
G04 #@! TO.P,J1,22,GPIO25*
G04 #@! TO.N,/MotY Step*
X61900000Y-28460000D03*
G04 #@! TO.P,J1,23,SCLK0/GPIO11*
G04 #@! TO.N,unconnected-(J1-Pad23)*
X64440000Y-31000000D03*
G04 #@! TO.P,J1,24,~{CE0}/GPIO8*
G04 #@! TO.N,unconnected-(J1-Pad24)*
X64440000Y-28460000D03*
G04 #@! TO.P,J1,25,GND*
G04 #@! TO.N,Net-(J1-Pad20)*
X66980000Y-31000000D03*
G04 #@! TO.P,J1,26,~{CE1}/GPIO7*
G04 #@! TO.N,unconnected-(J1-Pad26)*
X66980000Y-28460000D03*
G04 #@! TO.P,J1,27,ID_SD/GPIO0*
G04 #@! TO.N,unconnected-(J1-Pad27)*
X69520000Y-31000000D03*
G04 #@! TO.P,J1,28,ID_SC/GPIO1*
G04 #@! TO.N,unconnected-(J1-Pad28)*
X69520000Y-28460000D03*
G04 #@! TO.P,J1,29,GCLK1/GPIO5*
G04 #@! TO.N,unconnected-(J1-Pad29)*
X72060000Y-31000000D03*
G04 #@! TO.P,J1,30,GND*
G04 #@! TO.N,Net-(J1-Pad20)*
X72060000Y-28460000D03*
G04 #@! TO.P,J1,31,GCLK2/GPIO6*
G04 #@! TO.N,unconnected-(J1-Pad31)*
X74600000Y-31000000D03*
G04 #@! TO.P,J1,32,PWM0/GPIO12*
G04 #@! TO.N,/MotY En*
X74600000Y-28460000D03*
G04 #@! TO.P,J1,33,PWM1/GPIO13*
G04 #@! TO.N,unconnected-(J1-Pad33)*
X77140000Y-31000000D03*
G04 #@! TO.P,J1,34,GND*
G04 #@! TO.N,Net-(J1-Pad20)*
X77140000Y-28460000D03*
G04 #@! TO.P,J1,35,GPIO19/MISO1*
G04 #@! TO.N,unconnected-(J1-Pad35)*
X79680000Y-31000000D03*
G04 #@! TO.P,J1,36,GPIO16*
G04 #@! TO.N,unconnected-(J1-Pad36)*
X79680000Y-28460000D03*
G04 #@! TO.P,J1,37,GPIO26*
G04 #@! TO.N,unconnected-(J1-Pad37)*
X82220000Y-31000000D03*
G04 #@! TO.P,J1,38,GPIO20/MOSI1*
G04 #@! TO.N,/X+*
X82220000Y-28460000D03*
G04 #@! TO.P,J1,39,GND*
G04 #@! TO.N,Net-(J1-Pad20)*
X84760000Y-31000000D03*
G04 #@! TO.P,J1,40,GPIO21/SCLK1*
G04 #@! TO.N,/Y+*
X84760000Y-28460000D03*
G04 #@! TD*
D18*
G04 #@! TO.N,/MotX En*
X48500000Y-35800000D03*
X34600000Y-45000000D03*
X50400000Y-32700000D03*
G04 #@! TO.N,/MotX Step*
X37500000Y-44300000D03*
X38100000Y-34700000D03*
G04 #@! TO.N,/MotX DIR*
X52000000Y-46400000D03*
X52800000Y-41400000D03*
X57900000Y-37900000D03*
G04 #@! TO.N,/MotY En*
X82500000Y-53500000D03*
G04 #@! TO.N,/X+*
X87224500Y-48600000D03*
G04 #@! TO.N,Net-(J1-Pad20)*
X40700000Y-32200000D03*
G04 #@! TD*
D19*
G04 #@! TO.N,Net-(A1-Pad1)*
X84890000Y-36890000D02*
X83000000Y-35000000D01*
X62500000Y-37000000D02*
X62500000Y-40770000D01*
X53890000Y-38160000D02*
X59500000Y-43770000D01*
X64500000Y-35000000D02*
X62500000Y-37000000D01*
X83000000Y-35000000D02*
X64500000Y-35000000D01*
X62500000Y-40770000D02*
X59500000Y-43770000D01*
X84890000Y-38160000D02*
X84890000Y-36890000D01*
X59500000Y-43770000D02*
X59500000Y-61500000D01*
D20*
G04 #@! TO.N,/MotX En*
X50400000Y-32700000D02*
X48900000Y-34200000D01*
X34600000Y-45000000D02*
X36110000Y-46510000D01*
X48900000Y-34200000D02*
X48900000Y-35300000D01*
X48900000Y-35400000D02*
X48500000Y-35800000D01*
X36110000Y-46510000D02*
X36110000Y-50860000D01*
X48900000Y-35300000D02*
X48900000Y-35400000D01*
G04 #@! TO.N,/MotX Step*
X37500000Y-44300000D02*
X37500000Y-35300000D01*
X37500000Y-35300000D02*
X38100000Y-34700000D01*
G04 #@! TO.N,/MotX DIR*
X52000000Y-46400000D02*
X52000000Y-42200000D01*
X57900000Y-34620000D02*
X54280000Y-31000000D01*
X52000000Y-42200000D02*
X52800000Y-41400000D01*
X57900000Y-37900000D02*
X57900000Y-34620000D01*
G04 #@! TO.N,/MotY En*
X82500000Y-53500000D02*
X69750000Y-53500000D01*
X69750000Y-53500000D02*
X67110000Y-50860000D01*
G04 #@! TO.N,/MotY Step*
X86214520Y-36341366D02*
X86214520Y-46995480D01*
X83548634Y-33675480D02*
X86214520Y-36341366D01*
X63265489Y-29825489D02*
X63265489Y-31486499D01*
X61900000Y-28460000D02*
X63265489Y-29825489D01*
X86214520Y-46995480D02*
X82350000Y-50860000D01*
X65454470Y-33675480D02*
X83548634Y-33675480D01*
X63265489Y-31486499D02*
X65454470Y-33675480D01*
G04 #@! TO.N,/X+*
X83585489Y-29825489D02*
X83585489Y-32985489D01*
X82220000Y-28460000D02*
X83585489Y-29825489D01*
X83585489Y-32985489D02*
X87224500Y-36624500D01*
X87224500Y-36624500D02*
X87224500Y-48600000D01*
G04 #@! TO.N,/Y+*
X72000000Y-62100000D02*
X69000000Y-65100000D01*
X79174520Y-61462973D02*
X78537493Y-62100000D01*
X69000000Y-65100000D02*
X47625000Y-65100000D01*
X79174520Y-59537027D02*
X79174520Y-61462973D01*
X87400000Y-51311547D02*
X79174520Y-59537027D01*
X87949011Y-50762536D02*
X87949011Y-32749011D01*
X47625000Y-65100000D02*
X43000000Y-60475000D01*
X87400000Y-51311547D02*
X87949011Y-50762536D01*
X84760000Y-28460000D02*
X85934511Y-29634511D01*
X85934511Y-30734511D02*
X85934511Y-29634511D01*
X87949011Y-32749011D02*
X85934511Y-30734511D01*
X78537493Y-62100000D02*
X72000000Y-62100000D01*
G04 #@! TO.N,Net-(J1-Pad20)*
X48025489Y-29634511D02*
X50565489Y-29634511D01*
X45294511Y-27973501D02*
X45294511Y-29634511D01*
X40065489Y-32834511D02*
X40700000Y-32200000D01*
X40500000Y-60475000D02*
X40065489Y-60040489D01*
X45294511Y-29634511D02*
X46660000Y-31000000D01*
X40065489Y-60040489D02*
X40065489Y-32834511D01*
X50565489Y-29634511D02*
X51740000Y-28460000D01*
X41580000Y-28460000D02*
X42754511Y-27285489D01*
X46660000Y-31000000D02*
X48025489Y-29634511D01*
X42754511Y-27285489D02*
X44606499Y-27285489D01*
X44606499Y-27285489D02*
X45294511Y-27973501D01*
G04 #@! TO.N,Net-(J1-Pad2)*
X71500000Y-59900000D02*
X77400000Y-59900000D01*
X42600000Y-58938018D02*
X44838018Y-58938018D01*
X50225489Y-37035489D02*
X51350000Y-38160000D01*
X77400000Y-59900000D02*
X78000000Y-60500000D01*
X39299520Y-61774520D02*
X38000000Y-60475000D01*
X51350000Y-38160000D02*
X42600000Y-46910000D01*
X44838018Y-58938018D02*
X49700000Y-63800000D01*
X48035489Y-37035489D02*
X50225489Y-37035489D01*
X39040000Y-28460000D02*
X40405489Y-29825489D01*
X70900000Y-61300000D02*
X70900000Y-60500000D01*
X40405489Y-29825489D02*
X42066499Y-29825489D01*
X42600000Y-58938018D02*
X41674520Y-59863498D01*
X41674520Y-61086502D02*
X40986502Y-61774520D01*
X49700000Y-63800000D02*
X68400000Y-63800000D01*
X68400000Y-63800000D02*
X70900000Y-61300000D01*
X42066499Y-29825489D02*
X42754511Y-30513501D01*
X42600000Y-46910000D02*
X42600000Y-58938018D01*
X36500000Y-28460000D02*
X39040000Y-28460000D01*
X42754511Y-30513501D02*
X42754511Y-31754511D01*
X41674520Y-59863498D02*
X41674520Y-61086502D01*
X40986502Y-61774520D02*
X39299520Y-61774520D01*
X70900000Y-60500000D02*
X71500000Y-59900000D01*
X42754511Y-31754511D02*
X48035489Y-37035489D01*
G04 #@! TD*
M02*
