solid OpenSCAD_Model
  facet normal 0.052354 0.998629 0
    outer loop
      vertex -0.261321 -2.4863 5.72205e-07
      vertex -0.261321 -2.4863 6.35
      vertex 0 -2.5 5.72205e-07
    endloop
  endfacet
  facet normal 0 0 -1
    outer loop
      vertex -0.261321 -2.4863 5.72205e-07
      vertex 0 -2.5 5.72205e-07
      vertex 0 -5 5.72205e-07
    endloop
  endfacet
  facet normal 0.052354 0.998629 0
    outer loop
      vertex -0.261321 -2.4863 6.35
      vertex 0 -2.5 6.35
      vertex 0 -2.5 5.72205e-07
    endloop
  endfacet
  facet normal 0 0 1
    outer loop
      vertex -0.261321 -2.4863 6.35
      vertex 0 -5 6.35
      vertex 0 -2.5 6.35
    endloop
  endfacet
  facet normal 0.052354 -0.998629 0
    outer loop
      vertex -0.261321 2.4863 5.72205e-07
      vertex 0 2.5 5.72205e-07
      vertex 0 2.5 6.35
    endloop
  endfacet
  facet normal 0.052354 -0.998629 0
    outer loop
      vertex -0.261321 2.4863 5.72205e-07
      vertex 0 2.5 6.35
      vertex -0.261321 2.4863 6.35
    endloop
  endfacet
  facet normal 0 0 -1
    outer loop
      vertex -0.261321 2.4863 5.72205e-07
      vertex 0 5 5.72205e-07
      vertex 0 2.5 5.72205e-07
    endloop
  endfacet
  facet normal 0 0 1
    outer loop
      vertex -0.261321 2.4863 6.35
      vertex 0 2.5 6.35
      vertex 0 5 6.35
    endloop
  endfacet
  facet normal 0.156413 0.987692 0
    outer loop
      vertex -0.519779 -2.44537 5.72205e-07
      vertex -0.519779 -2.44537 6.35
      vertex -0.261321 -2.4863 5.72205e-07
    endloop
  endfacet
  facet normal 0.156413 0.987692 0
    outer loop
      vertex -0.519779 -2.44537 6.35
      vertex -0.261321 -2.4863 6.35
      vertex -0.261321 -2.4863 5.72205e-07
    endloop
  endfacet
  facet normal 0.156413 -0.987692 0
    outer loop
      vertex -0.519779 2.44537 5.72205e-07
      vertex -0.261321 2.4863 5.72205e-07
      vertex -0.261321 2.4863 6.35
    endloop
  endfacet
  facet normal 0.156413 -0.987692 0
    outer loop
      vertex -0.519779 2.44537 5.72205e-07
      vertex -0.261321 2.4863 6.35
      vertex -0.519779 2.44537 6.35
    endloop
  endfacet
  facet normal 0 0 -1
    outer loop
      vertex -0.522642 -4.97261 5.72205e-07
      vertex -0.261321 -2.4863 5.72205e-07
      vertex 0 -5 5.72205e-07
    endloop
  endfacet
  facet normal 0 0 -1
    outer loop
      vertex -0.522642 -4.97261 5.72205e-07
      vertex -0.519779 -2.44537 5.72205e-07
      vertex -0.261321 -2.4863 5.72205e-07
    endloop
  endfacet
  facet normal -0.052335 -0.99863 0
    outer loop
      vertex -0.522642 -4.97261 5.72205e-07
      vertex 0 -5 5.72205e-07
      vertex 0 -5 6.35
    endloop
  endfacet
  facet normal -0.052335 -0.99863 0
    outer loop
      vertex -0.522642 -4.97261 5.72205e-07
      vertex 0 -5 6.35
      vertex -0.522642 -4.97261 6.35
    endloop
  endfacet
  facet normal 0 0 1
    outer loop
      vertex -0.522642 -4.97261 6.35
      vertex -0.261321 -2.4863 6.35
      vertex -0.519779 -2.44537 6.35
    endloop
  endfacet
  facet normal 0 0 1
    outer loop
      vertex -0.522642 -4.97261 6.35
      vertex 0 -5 6.35
      vertex -0.261321 -2.4863 6.35
    endloop
  endfacet
  facet normal 0 0 -1
    outer loop
      vertex -0.522642 4.97261 5.72205e-07
      vertex -0.261321 2.4863 5.72205e-07
      vertex -0.519779 2.44537 5.72205e-07
    endloop
  endfacet
  facet normal -0.052335 0.99863 0
    outer loop
      vertex -0.522642 4.97261 5.72205e-07
      vertex -0.522642 4.97261 6.35
      vertex 0 5 5.72205e-07
    endloop
  endfacet
  facet normal 0 0 -1
    outer loop
      vertex -0.522642 4.97261 5.72205e-07
      vertex 0 5 5.72205e-07
      vertex -0.261321 2.4863 5.72205e-07
    endloop
  endfacet
  facet normal 0 0 1
    outer loop
      vertex -0.522642 4.97261 6.35
      vertex -0.261321 2.4863 6.35
      vertex 0 5 6.35
    endloop
  endfacet
  facet normal 0 0 1
    outer loop
      vertex -0.522642 4.97261 6.35
      vertex -0.519779 2.44537 6.35
      vertex -0.261321 2.4863 6.35
    endloop
  endfacet
  facet normal -0.052335 0.99863 0
    outer loop
      vertex -0.522642 4.97261 6.35
      vertex 0 5 6.35
      vertex 0 5 5.72205e-07
    endloop
  endfacet
  facet normal 0.258827 0.965924 0
    outer loop
      vertex -0.772542 -2.37764 5.72205e-07
      vertex -0.772542 -2.37764 6.35
      vertex -0.519779 -2.44537 5.72205e-07
    endloop
  endfacet
  facet normal 0.258827 0.965924 0
    outer loop
      vertex -0.772542 -2.37764 6.35
      vertex -0.519779 -2.44537 6.35
      vertex -0.519779 -2.44537 5.72205e-07
    endloop
  endfacet
  facet normal 0.258827 -0.965924 0
    outer loop
      vertex -0.772542 2.37764 5.72205e-07
      vertex -0.519779 2.44537 5.72205e-07
      vertex -0.519779 2.44537 6.35
    endloop
  endfacet
  facet normal 0.258827 -0.965924 0
    outer loop
      vertex -0.772542 2.37764 5.72205e-07
      vertex -0.519779 2.44537 6.35
      vertex -0.772542 2.37764 6.35
    endloop
  endfacet
  facet normal 0.358377 0.933577 0
    outer loop
      vertex -1.01684 -2.28386 5.72205e-07
      vertex -1.01684 -2.28386 6.35
      vertex -0.772542 -2.37764 5.72205e-07
    endloop
  endfacet
  facet normal 0.358377 0.933577 0
    outer loop
      vertex -1.01684 -2.28386 6.35
      vertex -0.772542 -2.37764 6.35
      vertex -0.772542 -2.37764 5.72205e-07
    endloop
  endfacet
  facet normal 0.358377 -0.933577 0
    outer loop
      vertex -1.01684 2.28386 5.72205e-07
      vertex -0.772542 2.37764 5.72205e-07
      vertex -0.772542 2.37764 6.35
    endloop
  endfacet
  facet normal 0.358377 -0.933577 0
    outer loop
      vertex -1.01684 2.28386 5.72205e-07
      vertex -0.772542 2.37764 6.35
      vertex -1.01684 2.28386 6.35
    endloop
  endfacet
  facet normal 0 0 -1
    outer loop
      vertex -1.03956 -4.89074 5.72205e-07
      vertex -0.519779 -2.44537 5.72205e-07
      vertex -0.522642 -4.97261 5.72205e-07
    endloop
  endfacet
  facet normal -0.156431 -0.987689 0
    outer loop
      vertex -1.03956 -4.89074 5.72205e-07
      vertex -0.522642 -4.97261 5.72205e-07
      vertex -0.522642 -4.97261 6.35
    endloop
  endfacet
  facet normal -0.156431 -0.987689 0
    outer loop
      vertex -1.03956 -4.89074 5.72205e-07
      vertex -0.522642 -4.97261 6.35
      vertex -1.03956 -4.89074 6.35
    endloop
  endfacet
  facet normal 0 0 -1
    outer loop
      vertex -1.03956 -4.89074 5.72205e-07
      vertex -0.772542 -2.37764 5.72205e-07
      vertex -0.519779 -2.44537 5.72205e-07
    endloop
  endfacet
  facet normal 0 0 1
    outer loop
      vertex -1.03956 -4.89074 6.35
      vertex -0.519779 -2.44537 6.35
      vertex -0.772542 -2.37764 6.35
    endloop
  endfacet
  facet normal 0 0 1
    outer loop
      vertex -1.03956 -4.89074 6.35
      vertex -0.522642 -4.97261 6.35
      vertex -0.519779 -2.44537 6.35
    endloop
  endfacet
  facet normal 0 0 -1
    outer loop
      vertex -1.03956 4.89074 5.72205e-07
      vertex -0.519779 2.44537 5.72205e-07
      vertex -0.772542 2.37764 5.72205e-07
    endloop
  endfacet
  facet normal 0 0 -1
    outer loop
      vertex -1.03956 4.89074 5.72205e-07
      vertex -0.522642 4.97261 5.72205e-07
      vertex -0.519779 2.44537 5.72205e-07
    endloop
  endfacet
  facet normal -0.156431 0.987689 0
    outer loop
      vertex -1.03956 4.89074 5.72205e-07
      vertex -1.03956 4.89074 6.35
      vertex -0.522642 4.97261 5.72205e-07
    endloop
  endfacet
  facet normal 0 0 1
    outer loop
      vertex -1.03956 4.89074 6.35
      vertex -0.519779 2.44537 6.35
      vertex -0.522642 4.97261 6.35
    endloop
  endfacet
  facet normal -0.156431 0.987689 0
    outer loop
      vertex -1.03956 4.89074 6.35
      vertex -0.522642 4.97261 6.35
      vertex -0.522642 4.97261 5.72205e-07
    endloop
  endfacet
  facet normal 0 0 1
    outer loop
      vertex -1.03956 4.89074 6.35
      vertex -0.772542 2.37764 6.35
      vertex -0.519779 2.44537 6.35
    endloop
  endfacet
  facet normal 0.453988 0.891008 0
    outer loop
      vertex -1.25 -2.16506 5.72205e-07
      vertex -1.25 -2.16506 6.35
      vertex -1.01684 -2.28386 5.72205e-07
    endloop
  endfacet
  facet normal 0.453988 0.891008 0
    outer loop
      vertex -1.25 -2.16506 6.35
      vertex -1.01684 -2.28386 6.35
      vertex -1.01684 -2.28386 5.72205e-07
    endloop
  endfacet
  facet normal 0.453988 -0.891008 0
    outer loop
      vertex -1.25 2.16506 5.72205e-07
      vertex -1.01684 2.28386 5.72205e-07
      vertex -1.01684 2.28386 6.35
    endloop
  endfacet
  facet normal 0.453988 -0.891008 0
    outer loop
      vertex -1.25 2.16506 5.72205e-07
      vertex -1.01684 2.28386 6.35
      vertex -1.25 2.16506 6.35
    endloop
  endfacet
  facet normal 0.544642 0.838669 0
    outer loop
      vertex -1.46946 -2.02254 5.72205e-07
      vertex -1.46946 -2.02254 6.35
      vertex -1.25 -2.16506 5.72205e-07
    endloop
  endfacet
  facet normal 0.544642 0.838669 0
    outer loop
      vertex -1.46946 -2.02254 6.35
      vertex -1.25 -2.16506 6.35
      vertex -1.25 -2.16506 5.72205e-07
    endloop
  endfacet
  facet normal 0.544642 -0.838669 0
    outer loop
      vertex -1.46946 2.02254 5.72205e-07
      vertex -1.25 2.16506 5.72205e-07
      vertex -1.25 2.16506 6.35
    endloop
  endfacet
  facet normal 0.544642 -0.838669 0
    outer loop
      vertex -1.46946 2.02254 5.72205e-07
      vertex -1.25 2.16506 6.35
      vertex -1.46946 2.02254 6.35
    endloop
  endfacet
  facet normal 0 0 -1
    outer loop
      vertex -1.54508 -4.75528 5.72205e-07
      vertex -0.772542 -2.37764 5.72205e-07
      vertex -1.03956 -4.89074 5.72205e-07
    endloop
  endfacet
  facet normal 0 0 -1
    outer loop
      vertex -1.54508 -4.75528 5.72205e-07
      vertex -1.01684 -2.28386 5.72205e-07
      vertex -0.772542 -2.37764 5.72205e-07
    endloop
  endfacet
  facet normal -0.25883 -0.965923 0
    outer loop
      vertex -1.54508 -4.75528 5.72205e-07
      vertex -1.03956 -4.89074 5.72205e-07
      vertex -1.03956 -4.89074 6.35
    endloop
  endfacet
  facet normal -0.25883 -0.965923 0
    outer loop
      vertex -1.54508 -4.75528 5.72205e-07
      vertex -1.03956 -4.89074 6.35
      vertex -1.54508 -4.75528 6.35
    endloop
  endfacet
  facet normal 0 0 1
    outer loop
      vertex -1.54508 -4.75528 6.35
      vertex -0.772542 -2.37764 6.35
      vertex -1.01684 -2.28386 6.35
    endloop
  endfacet
  facet normal 0 0 1
    outer loop
      vertex -1.54508 -4.75528 6.35
      vertex -1.03956 -4.89074 6.35
      vertex -0.772542 -2.37764 6.35
    endloop
  endfacet
  facet normal 0 0 -1
    outer loop
      vertex -1.54508 4.75528 5.72205e-07
      vertex -0.772542 2.37764 5.72205e-07
      vertex -1.01684 2.28386 5.72205e-07
    endloop
  endfacet
  facet normal 0 0 -1
    outer loop
      vertex -1.54508 4.75528 5.72205e-07
      vertex -1.03956 4.89074 5.72205e-07
      vertex -0.772542 2.37764 5.72205e-07
    endloop
  endfacet
  facet normal -0.25883 0.965923 0
    outer loop
      vertex -1.54508 4.75528 5.72205e-07
      vertex -1.54508 4.75528 6.35
      vertex -1.03956 4.89074 5.72205e-07
    endloop
  endfacet
  facet normal 0 0 1
    outer loop
      vertex -1.54508 4.75528 6.35
      vertex -0.772542 2.37764 6.35
      vertex -1.03956 4.89074 6.35
    endloop
  endfacet
  facet normal 0 0 1
    outer loop
      vertex -1.54508 4.75528 6.35
      vertex -1.01684 2.28386 6.35
      vertex -0.772542 2.37764 6.35
    endloop
  endfacet
  facet normal -0.25883 0.965923 0
    outer loop
      vertex -1.54508 4.75528 6.35
      vertex -1.03956 4.89074 6.35
      vertex -1.03956 4.89074 5.72205e-07
    endloop
  endfacet
  facet normal 0.629307 0.777157 0
    outer loop
      vertex -1.67283 -1.85786 5.72205e-07
      vertex -1.67283 -1.85786 6.35
      vertex -1.46946 -2.02254 5.72205e-07
    endloop
  endfacet
  facet normal 0.629307 0.777157 0
    outer loop
      vertex -1.67283 -1.85786 6.35
      vertex -1.46946 -2.02254 6.35
      vertex -1.46946 -2.02254 5.72205e-07
    endloop
  endfacet
  facet normal 0.629307 -0.777157 0
    outer loop
      vertex -1.67283 1.85786 5.72205e-07
      vertex -1.46946 2.02254 5.72205e-07
      vertex -1.46946 2.02254 6.35
    endloop
  endfacet
  facet normal 0.629307 -0.777157 0
    outer loop
      vertex -1.67283 1.85786 5.72205e-07
      vertex -1.46946 2.02254 6.35
      vertex -1.67283 1.85786 6.35
    endloop
  endfacet
  facet normal 0.707107 0.707107 0
    outer loop
      vertex -1.85786 -1.67283 5.72205e-07
      vertex -1.67283 -1.85786 6.35
      vertex -1.67283 -1.85786 5.72205e-07
    endloop
  endfacet
  facet normal 0.707107 0.707107 0
    outer loop
      vertex -1.85786 -1.67283 5.72205e-07
      vertex -1.85786 -1.67283 6.35
      vertex -1.67283 -1.85786 6.35
    endloop
  endfacet
  facet normal 0.707107 -0.707107 0
    outer loop
      vertex -1.85786 1.67283 5.72205e-07
      vertex -1.67283 1.85786 5.72205e-07
      vertex -1.85786 1.67283 6.35
    endloop
  endfacet
  facet normal 0.707107 -0.707107 0
    outer loop
      vertex -1.85786 1.67283 6.35
      vertex -1.67283 1.85786 5.72205e-07
      vertex -1.67283 1.85786 6.35
    endloop
  endfacet
  facet normal 0.777157 0.629307 0
    outer loop
      vertex -2.02254 -1.46946 5.72205e-07
      vertex -1.85786 -1.67283 6.35
      vertex -1.85786 -1.67283 5.72205e-07
    endloop
  endfacet
  facet normal 0.777157 0.629307 0
    outer loop
      vertex -2.02254 -1.46946 5.72205e-07
      vertex -2.02254 -1.46946 6.35
      vertex -1.85786 -1.67283 6.35
    endloop
  endfacet
  facet normal 0.777157 -0.629307 0
    outer loop
      vertex -2.02254 1.46946 5.72205e-07
      vertex -1.85786 1.67283 5.72205e-07
      vertex -2.02254 1.46946 6.35
    endloop
  endfacet
  facet normal 0.777157 -0.629307 0
    outer loop
      vertex -2.02254 1.46946 6.35
      vertex -1.85786 1.67283 5.72205e-07
      vertex -1.85786 1.67283 6.35
    endloop
  endfacet
  facet normal 0 0 -1
    outer loop
      vertex -2.03368 -4.56773 5.72205e-07
      vertex -1.01684 -2.28386 5.72205e-07
      vertex -1.54508 -4.75528 5.72205e-07
    endloop
  endfacet
  facet normal 0 0 -1
    outer loop
      vertex -2.03368 -4.56773 5.72205e-07
      vertex -1.25 -2.16506 5.72205e-07
      vertex -1.01684 -2.28386 5.72205e-07
    endloop
  endfacet
  facet normal -0.358358 -0.933584 0
    outer loop
      vertex -2.03368 -4.56773 5.72205e-07
      vertex -1.54508 -4.75528 5.72205e-07
      vertex -1.54508 -4.75528 6.35
    endloop
  endfacet
  facet normal -0.358358 -0.933584 0
    outer loop
      vertex -2.03368 -4.56773 5.72205e-07
      vertex -1.54508 -4.75528 6.35
      vertex -2.03368 -4.56773 6.35
    endloop
  endfacet
  facet normal 0 0 1
    outer loop
      vertex -2.03368 -4.56773 6.35
      vertex -1.01684 -2.28386 6.35
      vertex -1.25 -2.16506 6.35
    endloop
  endfacet
  facet normal 0 0 1
    outer loop
      vertex -2.03368 -4.56773 6.35
      vertex -1.54508 -4.75528 6.35
      vertex -1.01684 -2.28386 6.35
    endloop
  endfacet
  facet normal 0 0 -1
    outer loop
      vertex -2.03368 4.56773 5.72205e-07
      vertex -1.01684 2.28386 5.72205e-07
      vertex -1.25 2.16506 5.72205e-07
    endloop
  endfacet
  facet normal 0 0 -1
    outer loop
      vertex -2.03368 4.56773 5.72205e-07
      vertex -1.54508 4.75528 5.72205e-07
      vertex -1.01684 2.28386 5.72205e-07
    endloop
  endfacet
  facet normal -0.358358 0.933584 0
    outer loop
      vertex -2.03368 4.56773 5.72205e-07
      vertex -2.03368 4.56773 6.35
      vertex -1.54508 4.75528 5.72205e-07
    endloop
  endfacet
  facet normal 0 0 1
    outer loop
      vertex -2.03368 4.56773 6.35
      vertex -1.01684 2.28386 6.35
      vertex -1.54508 4.75528 6.35
    endloop
  endfacet
  facet normal 0 0 1
    outer loop
      vertex -2.03368 4.56773 6.35
      vertex -1.25 2.16506 6.35
      vertex -1.01684 2.28386 6.35
    endloop
  endfacet
  facet normal -0.358358 0.933584 0
    outer loop
      vertex -2.03368 4.56773 6.35
      vertex -1.54508 4.75528 6.35
      vertex -1.54508 4.75528 5.72205e-07
    endloop
  endfacet
  facet normal 0.838669 0.544642 0
    outer loop
      vertex -2.16506 -1.25 5.72205e-07
      vertex -2.02254 -1.46946 6.35
      vertex -2.02254 -1.46946 5.72205e-07
    endloop
  endfacet
  facet normal 0.838669 0.544642 0
    outer loop
      vertex -2.16506 -1.25 5.72205e-07
      vertex -2.16506 -1.25 6.35
      vertex -2.02254 -1.46946 6.35
    endloop
  endfacet
  facet normal 0.838669 -0.544642 0
    outer loop
      vertex -2.16506 1.25 5.72205e-07
      vertex -2.02254 1.46946 5.72205e-07
      vertex -2.16506 1.25 6.35
    endloop
  endfacet
  facet normal 0.838669 -0.544642 0
    outer loop
      vertex -2.16506 1.25 6.35
      vertex -2.02254 1.46946 5.72205e-07
      vertex -2.02254 1.46946 6.35
    endloop
  endfacet
  facet normal 0.891008 0.453988 0
    outer loop
      vertex -2.28386 -1.01684 5.72205e-07
      vertex -2.16506 -1.25 6.35
      vertex -2.16506 -1.25 5.72205e-07
    endloop
  endfacet
  facet normal 0.891008 0.453988 0
    outer loop
      vertex -2.28386 -1.01684 5.72205e-07
      vertex -2.28386 -1.01684 6.35
      vertex -2.16506 -1.25 6.35
    endloop
  endfacet
  facet normal 0.891008 -0.453988 0
    outer loop
      vertex -2.28386 1.01684 5.72205e-07
      vertex -2.16506 1.25 5.72205e-07
      vertex -2.28386 1.01684 6.35
    endloop
  endfacet
  facet normal 0.891008 -0.453988 0
    outer loop
      vertex -2.28386 1.01684 6.35
      vertex -2.16506 1.25 5.72205e-07
      vertex -2.16506 1.25 6.35
    endloop
  endfacet
  facet normal 0.933577 0.358377 0
    outer loop
      vertex -2.37764 -0.772542 5.72205e-07
      vertex -2.28386 -1.01684 6.35
      vertex -2.28386 -1.01684 5.72205e-07
    endloop
  endfacet
  facet normal 0.933577 0.358377 0
    outer loop
      vertex -2.37764 -0.772542 5.72205e-07
      vertex -2.37764 -0.772542 6.35
      vertex -2.28386 -1.01684 6.35
    endloop
  endfacet
  facet normal 0.933577 -0.358377 0
    outer loop
      vertex -2.37764 0.772542 5.72205e-07
      vertex -2.28386 1.01684 5.72205e-07
      vertex -2.37764 0.772542 6.35
    endloop
  endfacet
  facet normal 0.933577 -0.358377 0
    outer loop
      vertex -2.37764 0.772542 6.35
      vertex -2.28386 1.01684 5.72205e-07
      vertex -2.28386 1.01684 6.35
    endloop
  endfacet
  facet normal 0.965924 0.258827 0
    outer loop
      vertex -2.44537 -0.519779 5.72205e-07
      vertex -2.37764 -0.772542 6.35
      vertex -2.37764 -0.772542 5.72205e-07
    endloop
  endfacet
  facet normal 0.965924 0.258827 0
    outer loop
      vertex -2.44537 -0.519779 5.72205e-07
      vertex -2.44537 -0.519779 6.35
      vertex -2.37764 -0.772542 6.35
    endloop
  endfacet
  facet normal 0.965924 -0.258827 0
    outer loop
      vertex -2.44537 0.519779 5.72205e-07
      vertex -2.37764 0.772542 5.72205e-07
      vertex -2.44537 0.519779 6.35
    endloop
  endfacet
  facet normal 0.965924 -0.258827 0
    outer loop
      vertex -2.44537 0.519779 6.35
      vertex -2.37764 0.772542 5.72205e-07
      vertex -2.37764 0.772542 6.35
    endloop
  endfacet
  facet normal 0.987692 0.156413 0
    outer loop
      vertex -2.4863 -0.261321 5.72205e-07
      vertex -2.44537 -0.519779 6.35
      vertex -2.44537 -0.519779 5.72205e-07
    endloop
  endfacet
  facet normal 0.987692 0.156413 0
    outer loop
      vertex -2.4863 -0.261321 5.72205e-07
      vertex -2.4863 -0.261321 6.35
      vertex -2.44537 -0.519779 6.35
    endloop
  endfacet
  facet normal 0.987692 -0.156413 0
    outer loop
      vertex -2.4863 0.261321 5.72205e-07
      vertex -2.44537 0.519779 5.72205e-07
      vertex -2.4863 0.261321 6.35
    endloop
  endfacet
  facet normal 0.987692 -0.156413 0
    outer loop
      vertex -2.4863 0.261321 6.35
      vertex -2.44537 0.519779 5.72205e-07
      vertex -2.44537 0.519779 6.35
    endloop
  endfacet
  facet normal 0 0 -1
    outer loop
      vertex -2.5 -4.33013 5.72205e-07
      vertex -1.25 -2.16506 5.72205e-07
      vertex -2.03368 -4.56773 5.72205e-07
    endloop
  endfacet
  facet normal 0 0 -1
    outer loop
      vertex -2.5 -4.33013 5.72205e-07
      vertex -1.46946 -2.02254 5.72205e-07
      vertex -1.25 -2.16506 5.72205e-07
    endloop
  endfacet
  facet normal -0.453988 -0.891008 0
    outer loop
      vertex -2.5 -4.33013 5.72205e-07
      vertex -2.03368 -4.56773 5.72205e-07
      vertex -2.03368 -4.56773 6.35
    endloop
  endfacet
  facet normal -0.453988 -0.891008 0
    outer loop
      vertex -2.5 -4.33013 5.72205e-07
      vertex -2.03368 -4.56773 6.35
      vertex -2.5 -4.33013 6.35
    endloop
  endfacet
  facet normal 0 0 1
    outer loop
      vertex -2.5 -4.33013 6.35
      vertex -1.25 -2.16506 6.35
      vertex -1.46946 -2.02254 6.35
    endloop
  endfacet
  facet normal 0 0 1
    outer loop
      vertex -2.5 -4.33013 6.35
      vertex -1.46946 -2.02254 6.35
      vertex -1.67283 -1.85786 6.35
    endloop
  endfacet
  facet normal 0 0 1
    outer loop
      vertex -2.5 -4.33013 6.35
      vertex -1.67283 -1.85786 6.35
      vertex -1.85786 -1.67283 6.35
    endloop
  endfacet
  facet normal 0 0 1
    outer loop
      vertex -2.5 -4.33013 6.35
      vertex -1.85786 -1.67283 6.35
      vertex -2.02254 -1.46946 6.35
    endloop
  endfacet
  facet normal 0 0 1
    outer loop
      vertex -2.5 -4.33013 6.35
      vertex -2.02254 -1.46946 6.35
      vertex -2.16506 -1.25 6.35
    endloop
  endfacet
  facet normal 0 0 1
    outer loop
      vertex -2.5 -4.33013 6.35
      vertex -2.03368 -4.56773 6.35
      vertex -1.25 -2.16506 6.35
    endloop
  endfacet
  facet normal 0 0 1
    outer loop
      vertex -2.5 -4.33013 6.35
      vertex -2.16506 -1.25 6.35
      vertex -2.28386 -1.01684 6.35
    endloop
  endfacet
  facet normal 0 0 1
    outer loop
      vertex -2.5 -4.33013 6.35
      vertex -2.28386 -1.01684 6.35
      vertex -2.37764 -0.772542 6.35
    endloop
  endfacet
  facet normal 0 0 1
    outer loop
      vertex -2.5 -4.33013 6.35
      vertex -2.37764 -0.772542 6.35
      vertex -2.44537 -0.519779 6.35
    endloop
  endfacet
  facet normal 0 0 1
    outer loop
      vertex -2.5 -4.33013 6.35
      vertex -2.44537 -0.519779 6.35
      vertex -2.4863 -0.261321 6.35
    endloop
  endfacet
  facet normal 0 0 1
    outer loop
      vertex -2.5 -4.33013 6.35
      vertex -2.4863 -0.261321 6.35
      vertex -2.5 0 6.35
    endloop
  endfacet
  facet normal 0.998629 0.052354 0
    outer loop
      vertex -2.5 0 5.72205e-07
      vertex -2.4863 -0.261321 6.35
      vertex -2.4863 -0.261321 5.72205e-07
    endloop
  endfacet
  facet normal 0.998629 -0.052354 0
    outer loop
      vertex -2.5 0 5.72205e-07
      vertex -2.4863 0.261321 5.72205e-07
      vertex -2.5 0 6.35
    endloop
  endfacet
  facet normal 0.998629 0.052354 0
    outer loop
      vertex -2.5 0 5.72205e-07
      vertex -2.5 0 6.35
      vertex -2.4863 -0.261321 6.35
    endloop
  endfacet
  facet normal 0 0 -1
    outer loop
      vertex -2.5 0 5.72205e-07
      vertex -2.5 4.33013 5.72205e-07
      vertex -2.4863 0.261321 5.72205e-07
    endloop
  endfacet
  facet normal 0.998629 -0.052354 0
    outer loop
      vertex -2.5 0 6.35
      vertex -2.4863 0.261321 5.72205e-07
      vertex -2.4863 0.261321 6.35
    endloop
  endfacet
  facet normal 0 0 -1
    outer loop
      vertex -2.5 4.33013 5.72205e-07
      vertex -1.25 2.16506 5.72205e-07
      vertex -1.46946 2.02254 5.72205e-07
    endloop
  endfacet
  facet normal 0 0 -1
    outer loop
      vertex -2.5 4.33013 5.72205e-07
      vertex -1.46946 2.02254 5.72205e-07
      vertex -1.67283 1.85786 5.72205e-07
    endloop
  endfacet
  facet normal 0 0 -1
    outer loop
      vertex -2.5 4.33013 5.72205e-07
      vertex -1.67283 1.85786 5.72205e-07
      vertex -1.85786 1.67283 5.72205e-07
    endloop
  endfacet
  facet normal 0 0 -1
    outer loop
      vertex -2.5 4.33013 5.72205e-07
      vertex -1.85786 1.67283 5.72205e-07
      vertex -2.02254 1.46946 5.72205e-07
    endloop
  endfacet
  facet normal 0 0 -1
    outer loop
      vertex -2.5 4.33013 5.72205e-07
      vertex -2.02254 1.46946 5.72205e-07
      vertex -2.16506 1.25 5.72205e-07
    endloop
  endfacet
  facet normal 0 0 -1
    outer loop
      vertex -2.5 4.33013 5.72205e-07
      vertex -2.03368 4.56773 5.72205e-07
      vertex -1.25 2.16506 5.72205e-07
    endloop
  endfacet
  facet normal 0 0 -1
    outer loop
      vertex -2.5 4.33013 5.72205e-07
      vertex -2.16506 1.25 5.72205e-07
      vertex -2.28386 1.01684 5.72205e-07
    endloop
  endfacet
  facet normal 0 0 -1
    outer loop
      vertex -2.5 4.33013 5.72205e-07
      vertex -2.28386 1.01684 5.72205e-07
      vertex -2.37764 0.772542 5.72205e-07
    endloop
  endfacet
  facet normal 0 0 -1
    outer loop
      vertex -2.5 4.33013 5.72205e-07
      vertex -2.37764 0.772542 5.72205e-07
      vertex -2.44537 0.519779 5.72205e-07
    endloop
  endfacet
  facet normal 0 0 -1
    outer loop
      vertex -2.5 4.33013 5.72205e-07
      vertex -2.44537 0.519779 5.72205e-07
      vertex -2.4863 0.261321 5.72205e-07
    endloop
  endfacet
  facet normal -0.453988 0.891008 0
    outer loop
      vertex -2.5 4.33013 5.72205e-07
      vertex -2.5 4.33013 6.35
      vertex -2.03368 4.56773 5.72205e-07
    endloop
  endfacet
  facet normal 0 0 1
    outer loop
      vertex -2.5 4.33013 6.35
      vertex -1.25 2.16506 6.35
      vertex -2.03368 4.56773 6.35
    endloop
  endfacet
  facet normal 0 0 1
    outer loop
      vertex -2.5 4.33013 6.35
      vertex -1.46946 2.02254 6.35
      vertex -1.25 2.16506 6.35
    endloop
  endfacet
  facet normal -0.453988 0.891008 0
    outer loop
      vertex -2.5 4.33013 6.35
      vertex -2.03368 4.56773 6.35
      vertex -2.03368 4.56773 5.72205e-07
    endloop
  endfacet
  facet normal 0 0 -1
    outer loop
      vertex -2.93893 -4.04508 5.72205e-07
      vertex -1.46946 -2.02254 5.72205e-07
      vertex -2.5 -4.33013 5.72205e-07
    endloop
  endfacet
  facet normal 0 0 -1
    outer loop
      vertex -2.93893 -4.04508 5.72205e-07
      vertex -1.67283 -1.85786 5.72205e-07
      vertex -1.46946 -2.02254 5.72205e-07
    endloop
  endfacet
  facet normal -0.544646 -0.838666 0
    outer loop
      vertex -2.93893 -4.04508 5.72205e-07
      vertex -2.5 -4.33013 5.72205e-07
      vertex -2.5 -4.33013 6.35
    endloop
  endfacet
  facet normal -0.544646 -0.838666 0
    outer loop
      vertex -2.93893 -4.04508 5.72205e-07
      vertex -2.5 -4.33013 6.35
      vertex -2.93893 -4.04508 6.35
    endloop
  endfacet
  facet normal 0 0 1
    outer loop
      vertex -2.93893 -4.04508 6.35
      vertex -2.5 -4.33013 6.35
      vertex -2.5 0 6.35
    endloop
  endfacet
  facet normal 0 0 -1
    outer loop
      vertex -2.93893 4.04508 5.72205e-07
      vertex -2.5 4.33013 5.72205e-07
      vertex -2.5 0 5.72205e-07
    endloop
  endfacet
  facet normal -0.544646 0.838666 0
    outer loop
      vertex -2.93893 4.04508 5.72205e-07
      vertex -2.93893 4.04508 6.35
      vertex -2.5 4.33013 5.72205e-07
    endloop
  endfacet
  facet normal 0 0 1
    outer loop
      vertex -2.93893 4.04508 6.35
      vertex -1.46946 2.02254 6.35
      vertex -2.5 4.33013 6.35
    endloop
  endfacet
  facet normal 0 0 1
    outer loop
      vertex -2.93893 4.04508 6.35
      vertex -1.67283 1.85786 6.35
      vertex -1.46946 2.02254 6.35
    endloop
  endfacet
  facet normal -0.544646 0.838666 0
    outer loop
      vertex -2.93893 4.04508 6.35
      vertex -2.5 4.33013 6.35
      vertex -2.5 4.33013 5.72205e-07
    endloop
  endfacet
  facet normal 0 0 -1
    outer loop
      vertex -3.34565 -3.71572 5.72205e-07
      vertex -1.67283 -1.85786 5.72205e-07
      vertex -2.93893 -4.04508 5.72205e-07
    endloop
  endfacet
  facet normal 0 0 -1
    outer loop
      vertex -3.34565 -3.71572 5.72205e-07
      vertex -1.85786 -1.67283 5.72205e-07
      vertex -1.67283 -1.85786 5.72205e-07
    endloop
  endfacet
  facet normal -0.629326 -0.777142 0
    outer loop
      vertex -3.34565 -3.71572 5.72205e-07
      vertex -2.93893 -4.04508 5.72205e-07
      vertex -2.93893 -4.04508 6.35
    endloop
  endfacet
  facet normal -0.629326 -0.777142 0
    outer loop
      vertex -3.34565 -3.71572 5.72205e-07
      vertex -2.93893 -4.04508 6.35
      vertex -3.34565 -3.71572 6.35
    endloop
  endfacet
  facet normal 0 0 1
    outer loop
      vertex -3.34565 -3.71572 6.35
      vertex -2.93893 -4.04508 6.35
      vertex -2.5 0 6.35
    endloop
  endfacet
  facet normal 0 0 -1
    outer loop
      vertex -3.34565 3.71572 5.72205e-07
      vertex -2.93893 4.04508 5.72205e-07
      vertex -2.5 0 5.72205e-07
    endloop
  endfacet
  facet normal -0.629326 0.777142 0
    outer loop
      vertex -3.34565 3.71572 5.72205e-07
      vertex -3.34565 3.71572 6.35
      vertex -2.93893 4.04508 5.72205e-07
    endloop
  endfacet
  facet normal 0 0 1
    outer loop
      vertex -3.34565 3.71572 6.35
      vertex -1.67283 1.85786 6.35
      vertex -2.93893 4.04508 6.35
    endloop
  endfacet
  facet normal 0 0 1
    outer loop
      vertex -3.34565 3.71572 6.35
      vertex -1.85786 1.67283 6.35
      vertex -1.67283 1.85786 6.35
    endloop
  endfacet
  facet normal -0.629326 0.777142 0
    outer loop
      vertex -3.34565 3.71572 6.35
      vertex -2.93893 4.04508 6.35
      vertex -2.93893 4.04508 5.72205e-07
    endloop
  endfacet
  facet normal 0 0 -1
    outer loop
      vertex -3.71572 -3.34565 5.72205e-07
      vertex -1.85786 -1.67283 5.72205e-07
      vertex -3.34565 -3.71572 5.72205e-07
    endloop
  endfacet
  facet normal 0 0 -1
    outer loop
      vertex -3.71572 -3.34565 5.72205e-07
      vertex -2.02254 -1.46946 5.72205e-07
      vertex -1.85786 -1.67283 5.72205e-07
    endloop
  endfacet
  facet normal -0.707107 -0.707107 0
    outer loop
      vertex -3.71572 -3.34565 5.72205e-07
      vertex -3.34565 -3.71572 5.72205e-07
      vertex -3.71572 -3.34565 6.35
    endloop
  endfacet
  facet normal -0.707107 -0.707107 0
    outer loop
      vertex -3.71572 -3.34565 6.35
      vertex -3.34565 -3.71572 5.72205e-07
      vertex -3.34565 -3.71572 6.35
    endloop
  endfacet
  facet normal 0 0 1
    outer loop
      vertex -3.71572 -3.34565 6.35
      vertex -3.34565 -3.71572 6.35
      vertex -2.5 0 6.35
    endloop
  endfacet
  facet normal 0 0 -1
    outer loop
      vertex -3.71572 3.34565 5.72205e-07
      vertex -3.34565 3.71572 5.72205e-07
      vertex -2.5 0 5.72205e-07
    endloop
  endfacet
  facet normal -0.707107 0.707107 0
    outer loop
      vertex -3.71572 3.34565 5.72205e-07
      vertex -3.34565 3.71572 6.35
      vertex -3.34565 3.71572 5.72205e-07
    endloop
  endfacet
  facet normal -0.707107 0.707107 0
    outer loop
      vertex -3.71572 3.34565 5.72205e-07
      vertex -3.71572 3.34565 6.35
      vertex -3.34565 3.71572 6.35
    endloop
  endfacet
  facet normal 0 0 1
    outer loop
      vertex -3.71572 3.34565 6.35
      vertex -1.85786 1.67283 6.35
      vertex -3.34565 3.71572 6.35
    endloop
  endfacet
  facet normal 0 0 1
    outer loop
      vertex -3.71572 3.34565 6.35
      vertex -2.02254 1.46946 6.35
      vertex -1.85786 1.67283 6.35
    endloop
  endfacet
  facet normal 0 0 -1
    outer loop
      vertex -4.04508 -2.93893 5.72205e-07
      vertex -2.02254 -1.46946 5.72205e-07
      vertex -3.71572 -3.34565 5.72205e-07
    endloop
  endfacet
  facet normal 0 0 -1
    outer loop
      vertex -4.04508 -2.93893 5.72205e-07
      vertex -2.16506 -1.25 5.72205e-07
      vertex -2.02254 -1.46946 5.72205e-07
    endloop
  endfacet
  facet normal -0.777142 -0.629326 0
    outer loop
      vertex -4.04508 -2.93893 5.72205e-07
      vertex -3.71572 -3.34565 5.72205e-07
      vertex -4.04508 -2.93893 6.35
    endloop
  endfacet
  facet normal -0.777142 -0.629326 0
    outer loop
      vertex -4.04508 -2.93893 6.35
      vertex -3.71572 -3.34565 5.72205e-07
      vertex -3.71572 -3.34565 6.35
    endloop
  endfacet
  facet normal 0 0 1
    outer loop
      vertex -4.04508 -2.93893 6.35
      vertex -3.71572 -3.34565 6.35
      vertex -2.5 0 6.35
    endloop
  endfacet
  facet normal 0 0 -1
    outer loop
      vertex -4.04508 2.93893 5.72205e-07
      vertex -3.71572 3.34565 5.72205e-07
      vertex -2.5 0 5.72205e-07
    endloop
  endfacet
  facet normal -0.777142 0.629326 0
    outer loop
      vertex -4.04508 2.93893 5.72205e-07
      vertex -3.71572 3.34565 6.35
      vertex -3.71572 3.34565 5.72205e-07
    endloop
  endfacet
  facet normal -0.777142 0.629326 0
    outer loop
      vertex -4.04508 2.93893 5.72205e-07
      vertex -4.04508 2.93893 6.35
      vertex -3.71572 3.34565 6.35
    endloop
  endfacet
  facet normal 0 0 1
    outer loop
      vertex -4.04508 2.93893 6.35
      vertex -2.02254 1.46946 6.35
      vertex -3.71572 3.34565 6.35
    endloop
  endfacet
  facet normal 0 0 1
    outer loop
      vertex -4.04508 2.93893 6.35
      vertex -2.16506 1.25 6.35
      vertex -2.02254 1.46946 6.35
    endloop
  endfacet
  facet normal 0 0 -1
    outer loop
      vertex -4.33013 -2.5 5.72205e-07
      vertex -2.16506 -1.25 5.72205e-07
      vertex -4.04508 -2.93893 5.72205e-07
    endloop
  endfacet
  facet normal 0 0 -1
    outer loop
      vertex -4.33013 -2.5 5.72205e-07
      vertex -2.28386 -1.01684 5.72205e-07
      vertex -2.16506 -1.25 5.72205e-07
    endloop
  endfacet
  facet normal -0.838666 -0.544646 0
    outer loop
      vertex -4.33013 -2.5 5.72205e-07
      vertex -4.04508 -2.93893 5.72205e-07
      vertex -4.33013 -2.5 6.35
    endloop
  endfacet
  facet normal -0.838666 -0.544646 0
    outer loop
      vertex -4.33013 -2.5 6.35
      vertex -4.04508 -2.93893 5.72205e-07
      vertex -4.04508 -2.93893 6.35
    endloop
  endfacet
  facet normal 0 0 1
    outer loop
      vertex -4.33013 -2.5 6.35
      vertex -4.04508 -2.93893 6.35
      vertex -2.5 0 6.35
    endloop
  endfacet
  facet normal 0 0 -1
    outer loop
      vertex -4.33013 2.5 5.72205e-07
      vertex -4.04508 2.93893 5.72205e-07
      vertex -2.5 0 5.72205e-07
    endloop
  endfacet
  facet normal -0.838666 0.544646 0
    outer loop
      vertex -4.33013 2.5 5.72205e-07
      vertex -4.04508 2.93893 6.35
      vertex -4.04508 2.93893 5.72205e-07
    endloop
  endfacet
  facet normal -0.838666 0.544646 0
    outer loop
      vertex -4.33013 2.5 5.72205e-07
      vertex -4.33013 2.5 6.35
      vertex -4.04508 2.93893 6.35
    endloop
  endfacet
  facet normal 0 0 1
    outer loop
      vertex -4.33013 2.5 6.35
      vertex -2.16506 1.25 6.35
      vertex -4.04508 2.93893 6.35
    endloop
  endfacet
  facet normal 0 0 1
    outer loop
      vertex -4.33013 2.5 6.35
      vertex -2.28386 1.01684 6.35
      vertex -2.16506 1.25 6.35
    endloop
  endfacet
  facet normal 0 0 -1
    outer loop
      vertex -4.56773 -2.03368 5.72205e-07
      vertex -2.28386 -1.01684 5.72205e-07
      vertex -4.33013 -2.5 5.72205e-07
    endloop
  endfacet
  facet normal 0 0 -1
    outer loop
      vertex -4.56773 -2.03368 5.72205e-07
      vertex -2.37764 -0.772542 5.72205e-07
      vertex -2.28386 -1.01684 5.72205e-07
    endloop
  endfacet
  facet normal -0.891008 -0.453988 0
    outer loop
      vertex -4.56773 -2.03368 5.72205e-07
      vertex -4.33013 -2.5 5.72205e-07
      vertex -4.56773 -2.03368 6.35
    endloop
  endfacet
  facet normal -0.891008 -0.453988 0
    outer loop
      vertex -4.56773 -2.03368 6.35
      vertex -4.33013 -2.5 5.72205e-07
      vertex -4.33013 -2.5 6.35
    endloop
  endfacet
  facet normal 0 0 1
    outer loop
      vertex -4.56773 -2.03368 6.35
      vertex -4.33013 -2.5 6.35
      vertex -2.5 0 6.35
    endloop
  endfacet
  facet normal 0 0 -1
    outer loop
      vertex -4.56773 2.03368 5.72205e-07
      vertex -4.33013 2.5 5.72205e-07
      vertex -2.5 0 5.72205e-07
    endloop
  endfacet
  facet normal -0.891008 0.453988 0
    outer loop
      vertex -4.56773 2.03368 5.72205e-07
      vertex -4.33013 2.5 6.35
      vertex -4.33013 2.5 5.72205e-07
    endloop
  endfacet
  facet normal -0.891008 0.453988 0
    outer loop
      vertex -4.56773 2.03368 5.72205e-07
      vertex -4.56773 2.03368 6.35
      vertex -4.33013 2.5 6.35
    endloop
  endfacet
  facet normal 0 0 1
    outer loop
      vertex -4.56773 2.03368 6.35
      vertex -2.28386 1.01684 6.35
      vertex -4.33013 2.5 6.35
    endloop
  endfacet
  facet normal 0 0 1
    outer loop
      vertex -4.56773 2.03368 6.35
      vertex -2.37764 0.772542 6.35
      vertex -2.28386 1.01684 6.35
    endloop
  endfacet
  facet normal 0 0 -1
    outer loop
      vertex -4.75528 -1.54508 5.72205e-07
      vertex -2.37764 -0.772542 5.72205e-07
      vertex -4.56773 -2.03368 5.72205e-07
    endloop
  endfacet
  facet normal 0 0 -1
    outer loop
      vertex -4.75528 -1.54508 5.72205e-07
      vertex -2.44537 -0.519779 5.72205e-07
      vertex -2.37764 -0.772542 5.72205e-07
    endloop
  endfacet
  facet normal -0.933584 -0.358358 0
    outer loop
      vertex -4.75528 -1.54508 5.72205e-07
      vertex -4.56773 -2.03368 5.72205e-07
      vertex -4.75528 -1.54508 6.35
    endloop
  endfacet
  facet normal -0.933584 -0.358358 0
    outer loop
      vertex -4.75528 -1.54508 6.35
      vertex -4.56773 -2.03368 5.72205e-07
      vertex -4.56773 -2.03368 6.35
    endloop
  endfacet
  facet normal 0 0 1
    outer loop
      vertex -4.75528 -1.54508 6.35
      vertex -4.56773 -2.03368 6.35
      vertex -2.5 0 6.35
    endloop
  endfacet
  facet normal 0 0 -1
    outer loop
      vertex -4.75528 1.54508 5.72205e-07
      vertex -4.56773 2.03368 5.72205e-07
      vertex -2.5 0 5.72205e-07
    endloop
  endfacet
  facet normal -0.933584 0.358358 0
    outer loop
      vertex -4.75528 1.54508 5.72205e-07
      vertex -4.56773 2.03368 6.35
      vertex -4.56773 2.03368 5.72205e-07
    endloop
  endfacet
  facet normal -0.933584 0.358358 0
    outer loop
      vertex -4.75528 1.54508 5.72205e-07
      vertex -4.75528 1.54508 6.35
      vertex -4.56773 2.03368 6.35
    endloop
  endfacet
  facet normal 0 0 1
    outer loop
      vertex -4.75528 1.54508 6.35
      vertex -2.37764 0.772542 6.35
      vertex -4.56773 2.03368 6.35
    endloop
  endfacet
  facet normal 0 0 1
    outer loop
      vertex -4.75528 1.54508 6.35
      vertex -2.44537 0.519779 6.35
      vertex -2.37764 0.772542 6.35
    endloop
  endfacet
  facet normal 0 0 -1
    outer loop
      vertex -4.89074 -1.03956 5.72205e-07
      vertex -2.44537 -0.519779 5.72205e-07
      vertex -4.75528 -1.54508 5.72205e-07
    endloop
  endfacet
  facet normal 0 0 -1
    outer loop
      vertex -4.89074 -1.03956 5.72205e-07
      vertex -2.4863 -0.261321 5.72205e-07
      vertex -2.44537 -0.519779 5.72205e-07
    endloop
  endfacet
  facet normal -0.965923 -0.25883 0
    outer loop
      vertex -4.89074 -1.03956 5.72205e-07
      vertex -4.75528 -1.54508 5.72205e-07
      vertex -4.89074 -1.03956 6.35
    endloop
  endfacet
  facet normal -0.965923 -0.25883 0
    outer loop
      vertex -4.89074 -1.03956 6.35
      vertex -4.75528 -1.54508 5.72205e-07
      vertex -4.75528 -1.54508 6.35
    endloop
  endfacet
  facet normal 0 0 1
    outer loop
      vertex -4.89074 -1.03956 6.35
      vertex -4.75528 -1.54508 6.35
      vertex -2.5 0 6.35
    endloop
  endfacet
  facet normal 0 0 -1
    outer loop
      vertex -4.89074 1.03956 5.72205e-07
      vertex -4.75528 1.54508 5.72205e-07
      vertex -2.5 0 5.72205e-07
    endloop
  endfacet
  facet normal -0.965923 0.25883 0
    outer loop
      vertex -4.89074 1.03956 5.72205e-07
      vertex -4.75528 1.54508 6.35
      vertex -4.75528 1.54508 5.72205e-07
    endloop
  endfacet
  facet normal -0.965923 0.25883 0
    outer loop
      vertex -4.89074 1.03956 5.72205e-07
      vertex -4.89074 1.03956 6.35
      vertex -4.75528 1.54508 6.35
    endloop
  endfacet
  facet normal 0 0 1
    outer loop
      vertex -4.89074 1.03956 6.35
      vertex -2.44537 0.519779 6.35
      vertex -4.75528 1.54508 6.35
    endloop
  endfacet
  facet normal 0 0 1
    outer loop
      vertex -4.89074 1.03956 6.35
      vertex -2.4863 0.261321 6.35
      vertex -2.44537 0.519779 6.35
    endloop
  endfacet
  facet normal 0 0 -1
    outer loop
      vertex -4.97261 -0.522642 5.72205e-07
      vertex -2.4863 -0.261321 5.72205e-07
      vertex -4.89074 -1.03956 5.72205e-07
    endloop
  endfacet
  facet normal 0 0 -1
    outer loop
      vertex -4.97261 -0.522642 5.72205e-07
      vertex -2.5 0 5.72205e-07
      vertex -2.4863 -0.261321 5.72205e-07
    endloop
  endfacet
  facet normal -0.987689 -0.156431 0
    outer loop
      vertex -4.97261 -0.522642 5.72205e-07
      vertex -4.89074 -1.03956 5.72205e-07
      vertex -4.97261 -0.522642 6.35
    endloop
  endfacet
  facet normal -0.987689 -0.156431 0
    outer loop
      vertex -4.97261 -0.522642 6.35
      vertex -4.89074 -1.03956 5.72205e-07
      vertex -4.89074 -1.03956 6.35
    endloop
  endfacet
  facet normal 0 0 1
    outer loop
      vertex -4.97261 -0.522642 6.35
      vertex -4.89074 -1.03956 6.35
      vertex -2.5 0 6.35
    endloop
  endfacet
  facet normal 0 0 -1
    outer loop
      vertex -4.97261 0.522642 5.72205e-07
      vertex -4.89074 1.03956 5.72205e-07
      vertex -2.5 0 5.72205e-07
    endloop
  endfacet
  facet normal -0.987689 0.156431 0
    outer loop
      vertex -4.97261 0.522642 5.72205e-07
      vertex -4.89074 1.03956 6.35
      vertex -4.89074 1.03956 5.72205e-07
    endloop
  endfacet
  facet normal -0.987689 0.156431 0
    outer loop
      vertex -4.97261 0.522642 5.72205e-07
      vertex -4.97261 0.522642 6.35
      vertex -4.89074 1.03956 6.35
    endloop
  endfacet
  facet normal 0 0 1
    outer loop
      vertex -4.97261 0.522642 6.35
      vertex -2.4863 0.261321 6.35
      vertex -4.89074 1.03956 6.35
    endloop
  endfacet
  facet normal 0 0 1
    outer loop
      vertex -4.97261 0.522642 6.35
      vertex -2.5 0 6.35
      vertex -2.4863 0.261321 6.35
    endloop
  endfacet
  facet normal 0 0 -1
    outer loop
      vertex -5 0 5.72205e-07
      vertex -2.5 0 5.72205e-07
      vertex -4.97261 -0.522642 5.72205e-07
    endloop
  endfacet
  facet normal -0.99863 -0.052335 0
    outer loop
      vertex -5 0 5.72205e-07
      vertex -4.97261 -0.522642 5.72205e-07
      vertex -5 0 6.35
    endloop
  endfacet
  facet normal 0 0 -1
    outer loop
      vertex -5 0 5.72205e-07
      vertex -4.97261 0.522642 5.72205e-07
      vertex -2.5 0 5.72205e-07
    endloop
  endfacet
  facet normal -0.99863 0.052335 0
    outer loop
      vertex -5 0 5.72205e-07
      vertex -4.97261 0.522642 6.35
      vertex -4.97261 0.522642 5.72205e-07
    endloop
  endfacet
  facet normal -0.99863 0.052335 0
    outer loop
      vertex -5 0 5.72205e-07
      vertex -5 0 6.35
      vertex -4.97261 0.522642 6.35
    endloop
  endfacet
  facet normal 0 0 1
    outer loop
      vertex -5 0 6.35
      vertex -2.5 0 6.35
      vertex -4.97261 0.522642 6.35
    endloop
  endfacet
  facet normal -0.99863 -0.052335 0
    outer loop
      vertex -5 0 6.35
      vertex -4.97261 -0.522642 5.72205e-07
      vertex -4.97261 -0.522642 6.35
    endloop
  endfacet
  facet normal 0 0 1
    outer loop
      vertex -5 0 6.35
      vertex -4.97261 -0.522642 6.35
      vertex -2.5 0 6.35
    endloop
  endfacet
  facet normal -0.052354 0.998629 0
    outer loop
      vertex 0 -2.5 5.72205e-07
      vertex 0 -2.5 6.35
      vertex 0.261321 -2.4863 5.72205e-07
    endloop
  endfacet
  facet normal -0.052354 0.998629 0
    outer loop
      vertex 0 -2.5 6.35
      vertex 0.261321 -2.4863 6.35
      vertex 0.261321 -2.4863 5.72205e-07
    endloop
  endfacet
  facet normal 0 0 1
    outer loop
      vertex 0 -2.5 6.35
      vertex 0.522642 -4.97261 6.35
      vertex 0.261321 -2.4863 6.35
    endloop
  endfacet
  facet normal 0 0 -1
    outer loop
      vertex 0 -5 5.72205e-07
      vertex 0 -2.5 5.72205e-07
      vertex 0.261321 -2.4863 5.72205e-07
    endloop
  endfacet
  facet normal 0 0 -1
    outer loop
      vertex 0 -5 5.72205e-07
      vertex 0.261321 -2.4863 5.72205e-07
      vertex 0.522642 -4.97261 5.72205e-07
    endloop
  endfacet
  facet normal 0.052335 -0.99863 0
    outer loop
      vertex 0 -5 5.72205e-07
      vertex 0.522642 -4.97261 5.72205e-07
      vertex 0.522642 -4.97261 6.35
    endloop
  endfacet
  facet normal 0.052335 -0.99863 0
    outer loop
      vertex 0 -5 5.72205e-07
      vertex 0.522642 -4.97261 6.35
      vertex 0 -5 6.35
    endloop
  endfacet
  facet normal 0 0 1
    outer loop
      vertex 0 -5 6.35
      vertex 0.522642 -4.97261 6.35
      vertex 0 -2.5 6.35
    endloop
  endfacet
  facet normal 0 0 -1
    outer loop
      vertex 0 2.5 5.72205e-07
      vertex 0 5 5.72205e-07
      vertex 0.522642 4.97261 5.72205e-07
    endloop
  endfacet
  facet normal -0.052354 -0.998629 0
    outer loop
      vertex 0 2.5 5.72205e-07
      vertex 0.261321 2.4863 5.72205e-07
      vertex 0.261321 2.4863 6.35
    endloop
  endfacet
  facet normal -0.052354 -0.998629 0
    outer loop
      vertex 0 2.5 5.72205e-07
      vertex 0.261321 2.4863 6.35
      vertex 0 2.5 6.35
    endloop
  endfacet
  facet normal 0 0 -1
    outer loop
      vertex 0 2.5 5.72205e-07
      vertex 0.522642 4.97261 5.72205e-07
      vertex 0.261321 2.4863 5.72205e-07
    endloop
  endfacet
  facet normal 0 0 1
    outer loop
      vertex 0 2.5 6.35
      vertex 0.261321 2.4863 6.35
      vertex 0 5 6.35
    endloop
  endfacet
  facet normal 0.052335 0.99863 0
    outer loop
      vertex 0 5 5.72205e-07
      vertex 0 5 6.35
      vertex 0.522642 4.97261 5.72205e-07
    endloop
  endfacet
  facet normal 0 0 1
    outer loop
      vertex 0 5 6.35
      vertex 0.261321 2.4863 6.35
      vertex 0.522642 4.97261 6.35
    endloop
  endfacet
  facet normal 0.052335 0.99863 0
    outer loop
      vertex 0 5 6.35
      vertex 0.522642 4.97261 6.35
      vertex 0.522642 4.97261 5.72205e-07
    endloop
  endfacet
  facet normal -0.156413 0.987692 0
    outer loop
      vertex 0.261321 -2.4863 5.72205e-07
      vertex 0.261321 -2.4863 6.35
      vertex 0.519779 -2.44537 5.72205e-07
    endloop
  endfacet
  facet normal 0 0 -1
    outer loop
      vertex 0.261321 -2.4863 5.72205e-07
      vertex 0.519779 -2.44537 5.72205e-07
      vertex 0.522642 -4.97261 5.72205e-07
    endloop
  endfacet
  facet normal -0.156413 0.987692 0
    outer loop
      vertex 0.261321 -2.4863 6.35
      vertex 0.519779 -2.44537 6.35
      vertex 0.519779 -2.44537 5.72205e-07
    endloop
  endfacet
  facet normal 0 0 1
    outer loop
      vertex 0.261321 -2.4863 6.35
      vertex 0.522642 -4.97261 6.35
      vertex 0.519779 -2.44537 6.35
    endloop
  endfacet
  facet normal -0.156413 -0.987692 0
    outer loop
      vertex 0.261321 2.4863 5.72205e-07
      vertex 0.519779 2.44537 5.72205e-07
      vertex 0.519779 2.44537 6.35
    endloop
  endfacet
  facet normal -0.156413 -0.987692 0
    outer loop
      vertex 0.261321 2.4863 5.72205e-07
      vertex 0.519779 2.44537 6.35
      vertex 0.261321 2.4863 6.35
    endloop
  endfacet
  facet normal 0 0 -1
    outer loop
      vertex 0.261321 2.4863 5.72205e-07
      vertex 0.522642 4.97261 5.72205e-07
      vertex 0.519779 2.44537 5.72205e-07
    endloop
  endfacet
  facet normal 0 0 1
    outer loop
      vertex 0.261321 2.4863 6.35
      vertex 0.519779 2.44537 6.35
      vertex 0.522642 4.97261 6.35
    endloop
  endfacet
  facet normal -0.258827 0.965924 0
    outer loop
      vertex 0.519779 -2.44537 5.72205e-07
      vertex 0.519779 -2.44537 6.35
      vertex 0.772542 -2.37764 5.72205e-07
    endloop
  endfacet
  facet normal 0 0 -1
    outer loop
      vertex 0.519779 -2.44537 5.72205e-07
      vertex 0.772542 -2.37764 5.72205e-07
      vertex 1.03956 -4.89074 5.72205e-07
    endloop
  endfacet
  facet normal 0 0 -1
    outer loop
      vertex 0.519779 -2.44537 5.72205e-07
      vertex 1.03956 -4.89074 5.72205e-07
      vertex 0.522642 -4.97261 5.72205e-07
    endloop
  endfacet
  facet normal 0 0 1
    outer loop
      vertex 0.519779 -2.44537 6.35
      vertex 0.522642 -4.97261 6.35
      vertex 1.03956 -4.89074 6.35
    endloop
  endfacet
  facet normal -0.258827 0.965924 0
    outer loop
      vertex 0.519779 -2.44537 6.35
      vertex 0.772542 -2.37764 6.35
      vertex 0.772542 -2.37764 5.72205e-07
    endloop
  endfacet
  facet normal 0 0 1
    outer loop
      vertex 0.519779 -2.44537 6.35
      vertex 1.03956 -4.89074 6.35
      vertex 0.772542 -2.37764 6.35
    endloop
  endfacet
  facet normal 0 0 -1
    outer loop
      vertex 0.519779 2.44537 5.72205e-07
      vertex 0.522642 4.97261 5.72205e-07
      vertex 1.03956 4.89074 5.72205e-07
    endloop
  endfacet
  facet normal -0.258827 -0.965924 0
    outer loop
      vertex 0.519779 2.44537 5.72205e-07
      vertex 0.772542 2.37764 5.72205e-07
      vertex 0.772542 2.37764 6.35
    endloop
  endfacet
  facet normal -0.258827 -0.965924 0
    outer loop
      vertex 0.519779 2.44537 5.72205e-07
      vertex 0.772542 2.37764 6.35
      vertex 0.519779 2.44537 6.35
    endloop
  endfacet
  facet normal 0 0 -1
    outer loop
      vertex 0.519779 2.44537 5.72205e-07
      vertex 1.03956 4.89074 5.72205e-07
      vertex 0.772542 2.37764 5.72205e-07
    endloop
  endfacet
  facet normal 0 0 1
    outer loop
      vertex 0.519779 2.44537 6.35
      vertex 0.772542 2.37764 6.35
      vertex 1.03956 4.89074 6.35
    endloop
  endfacet
  facet normal 0 0 1
    outer loop
      vertex 0.519779 2.44537 6.35
      vertex 1.03956 4.89074 6.35
      vertex 0.522642 4.97261 6.35
    endloop
  endfacet
  facet normal 0.156431 -0.987689 0
    outer loop
      vertex 0.522642 -4.97261 5.72205e-07
      vertex 1.03956 -4.89074 5.72205e-07
      vertex 1.03956 -4.89074 6.35
    endloop
  endfacet
  facet normal 0.156431 -0.987689 0
    outer loop
      vertex 0.522642 -4.97261 5.72205e-07
      vertex 1.03956 -4.89074 6.35
      vertex 0.522642 -4.97261 6.35
    endloop
  endfacet
  facet normal 0.156431 0.987689 0
    outer loop
      vertex 0.522642 4.97261 5.72205e-07
      vertex 0.522642 4.97261 6.35
      vertex 1.03956 4.89074 5.72205e-07
    endloop
  endfacet
  facet normal 0.156431 0.987689 0
    outer loop
      vertex 0.522642 4.97261 6.35
      vertex 1.03956 4.89074 6.35
      vertex 1.03956 4.89074 5.72205e-07
    endloop
  endfacet
  facet normal -0.358377 0.933577 0
    outer loop
      vertex 0.772542 -2.37764 5.72205e-07
      vertex 0.772542 -2.37764 6.35
      vertex 1.01684 -2.28386 5.72205e-07
    endloop
  endfacet
  facet normal 0 0 -1
    outer loop
      vertex 0.772542 -2.37764 5.72205e-07
      vertex 1.01684 -2.28386 5.72205e-07
      vertex 1.54508 -4.75528 5.72205e-07
    endloop
  endfacet
  facet normal 0 0 -1
    outer loop
      vertex 0.772542 -2.37764 5.72205e-07
      vertex 1.54508 -4.75528 5.72205e-07
      vertex 1.03956 -4.89074 5.72205e-07
    endloop
  endfacet
  facet normal -0.358377 0.933577 0
    outer loop
      vertex 0.772542 -2.37764 6.35
      vertex 1.01684 -2.28386 6.35
      vertex 1.01684 -2.28386 5.72205e-07
    endloop
  endfacet
  facet normal 0 0 1
    outer loop
      vertex 0.772542 -2.37764 6.35
      vertex 1.03956 -4.89074 6.35
      vertex 1.54508 -4.75528 6.35
    endloop
  endfacet
  facet normal 0 0 1
    outer loop
      vertex 0.772542 -2.37764 6.35
      vertex 1.54508 -4.75528 6.35
      vertex 1.01684 -2.28386 6.35
    endloop
  endfacet
  facet normal -0.358377 -0.933577 0
    outer loop
      vertex 0.772542 2.37764 5.72205e-07
      vertex 1.01684 2.28386 5.72205e-07
      vertex 1.01684 2.28386 6.35
    endloop
  endfacet
  facet normal -0.358377 -0.933577 0
    outer loop
      vertex 0.772542 2.37764 5.72205e-07
      vertex 1.01684 2.28386 6.35
      vertex 0.772542 2.37764 6.35
    endloop
  endfacet
  facet normal 0 0 -1
    outer loop
      vertex 0.772542 2.37764 5.72205e-07
      vertex 1.03956 4.89074 5.72205e-07
      vertex 1.54508 4.75528 5.72205e-07
    endloop
  endfacet
  facet normal 0 0 -1
    outer loop
      vertex 0.772542 2.37764 5.72205e-07
      vertex 1.54508 4.75528 5.72205e-07
      vertex 1.01684 2.28386 5.72205e-07
    endloop
  endfacet
  facet normal 0 0 1
    outer loop
      vertex 0.772542 2.37764 6.35
      vertex 1.01684 2.28386 6.35
      vertex 1.54508 4.75528 6.35
    endloop
  endfacet
  facet normal 0 0 1
    outer loop
      vertex 0.772542 2.37764 6.35
      vertex 1.54508 4.75528 6.35
      vertex 1.03956 4.89074 6.35
    endloop
  endfacet
  facet normal -0.453988 0.891008 0
    outer loop
      vertex 1.01684 -2.28386 5.72205e-07
      vertex 1.01684 -2.28386 6.35
      vertex 1.25 -2.16506 5.72205e-07
    endloop
  endfacet
  facet normal 0 0 -1
    outer loop
      vertex 1.01684 -2.28386 5.72205e-07
      vertex 1.25 -2.16506 5.72205e-07
      vertex 2.03368 -4.56773 5.72205e-07
    endloop
  endfacet
  facet normal 0 0 -1
    outer loop
      vertex 1.01684 -2.28386 5.72205e-07
      vertex 2.03368 -4.56773 5.72205e-07
      vertex 1.54508 -4.75528 5.72205e-07
    endloop
  endfacet
  facet normal -0.453988 0.891008 0
    outer loop
      vertex 1.01684 -2.28386 6.35
      vertex 1.25 -2.16506 6.35
      vertex 1.25 -2.16506 5.72205e-07
    endloop
  endfacet
  facet normal 0 0 1
    outer loop
      vertex 1.01684 -2.28386 6.35
      vertex 1.54508 -4.75528 6.35
      vertex 2.03368 -4.56773 6.35
    endloop
  endfacet
  facet normal 0 0 1
    outer loop
      vertex 1.01684 -2.28386 6.35
      vertex 2.03368 -4.56773 6.35
      vertex 1.25 -2.16506 6.35
    endloop
  endfacet
  facet normal -0.453988 -0.891008 0
    outer loop
      vertex 1.01684 2.28386 5.72205e-07
      vertex 1.25 2.16506 5.72205e-07
      vertex 1.25 2.16506 6.35
    endloop
  endfacet
  facet normal -0.453988 -0.891008 0
    outer loop
      vertex 1.01684 2.28386 5.72205e-07
      vertex 1.25 2.16506 6.35
      vertex 1.01684 2.28386 6.35
    endloop
  endfacet
  facet normal 0 0 -1
    outer loop
      vertex 1.01684 2.28386 5.72205e-07
      vertex 1.54508 4.75528 5.72205e-07
      vertex 2.03368 4.56773 5.72205e-07
    endloop
  endfacet
  facet normal 0 0 -1
    outer loop
      vertex 1.01684 2.28386 5.72205e-07
      vertex 2.03368 4.56773 5.72205e-07
      vertex 1.25 2.16506 5.72205e-07
    endloop
  endfacet
  facet normal 0 0 1
    outer loop
      vertex 1.01684 2.28386 6.35
      vertex 1.25 2.16506 6.35
      vertex 2.03368 4.56773 6.35
    endloop
  endfacet
  facet normal 0 0 1
    outer loop
      vertex 1.01684 2.28386 6.35
      vertex 2.03368 4.56773 6.35
      vertex 1.54508 4.75528 6.35
    endloop
  endfacet
  facet normal 0.25883 -0.965923 0
    outer loop
      vertex 1.03956 -4.89074 5.72205e-07
      vertex 1.54508 -4.75528 5.72205e-07
      vertex 1.54508 -4.75528 6.35
    endloop
  endfacet
  facet normal 0.25883 -0.965923 0
    outer loop
      vertex 1.03956 -4.89074 5.72205e-07
      vertex 1.54508 -4.75528 6.35
      vertex 1.03956 -4.89074 6.35
    endloop
  endfacet
  facet normal 0.25883 0.965923 0
    outer loop
      vertex 1.03956 4.89074 5.72205e-07
      vertex 1.03956 4.89074 6.35
      vertex 1.54508 4.75528 5.72205e-07
    endloop
  endfacet
  facet normal 0.25883 0.965923 0
    outer loop
      vertex 1.03956 4.89074 6.35
      vertex 1.54508 4.75528 6.35
      vertex 1.54508 4.75528 5.72205e-07
    endloop
  endfacet
  facet normal -0.544642 0.838669 0
    outer loop
      vertex 1.25 -2.16506 5.72205e-07
      vertex 1.25 -2.16506 6.35
      vertex 1.46946 -2.02254 5.72205e-07
    endloop
  endfacet
  facet normal 0 0 -1
    outer loop
      vertex 1.25 -2.16506 5.72205e-07
      vertex 1.46946 -2.02254 5.72205e-07
      vertex 2.5 -4.33013 5.72205e-07
    endloop
  endfacet
  facet normal 0 0 -1
    outer loop
      vertex 1.25 -2.16506 5.72205e-07
      vertex 2.5 -4.33013 5.72205e-07
      vertex 2.03368 -4.56773 5.72205e-07
    endloop
  endfacet
  facet normal -0.544642 0.838669 0
    outer loop
      vertex 1.25 -2.16506 6.35
      vertex 1.46946 -2.02254 6.35
      vertex 1.46946 -2.02254 5.72205e-07
    endloop
  endfacet
  facet normal 0 0 1
    outer loop
      vertex 1.25 -2.16506 6.35
      vertex 2.03368 -4.56773 6.35
      vertex 2.5 -4.33013 6.35
    endloop
  endfacet
  facet normal 0 0 1
    outer loop
      vertex 1.25 -2.16506 6.35
      vertex 2.5 -4.33013 6.35
      vertex 1.46946 -2.02254 6.35
    endloop
  endfacet
  facet normal -0.544642 -0.838669 0
    outer loop
      vertex 1.25 2.16506 5.72205e-07
      vertex 1.46946 2.02254 5.72205e-07
      vertex 1.46946 2.02254 6.35
    endloop
  endfacet
  facet normal -0.544642 -0.838669 0
    outer loop
      vertex 1.25 2.16506 5.72205e-07
      vertex 1.46946 2.02254 6.35
      vertex 1.25 2.16506 6.35
    endloop
  endfacet
  facet normal 0 0 -1
    outer loop
      vertex 1.25 2.16506 5.72205e-07
      vertex 2.03368 4.56773 5.72205e-07
      vertex 2.5 4.33013 5.72205e-07
    endloop
  endfacet
  facet normal 0 0 -1
    outer loop
      vertex 1.25 2.16506 5.72205e-07
      vertex 2.5 4.33013 5.72205e-07
      vertex 1.46946 2.02254 5.72205e-07
    endloop
  endfacet
  facet normal 0 0 1
    outer loop
      vertex 1.25 2.16506 6.35
      vertex 1.46946 2.02254 6.35
      vertex 2.5 4.33013 6.35
    endloop
  endfacet
  facet normal 0 0 1
    outer loop
      vertex 1.25 2.16506 6.35
      vertex 2.5 4.33013 6.35
      vertex 2.03368 4.56773 6.35
    endloop
  endfacet
  facet normal -0.629307 0.777157 0
    outer loop
      vertex 1.46946 -2.02254 5.72205e-07
      vertex 1.46946 -2.02254 6.35
      vertex 1.67283 -1.85786 5.72205e-07
    endloop
  endfacet
  facet normal 0 0 -1
    outer loop
      vertex 1.46946 -2.02254 5.72205e-07
      vertex 1.67283 -1.85786 5.72205e-07
      vertex 2.93893 -4.04508 5.72205e-07
    endloop
  endfacet
  facet normal 0 0 -1
    outer loop
      vertex 1.46946 -2.02254 5.72205e-07
      vertex 2.93893 -4.04508 5.72205e-07
      vertex 2.5 -4.33013 5.72205e-07
    endloop
  endfacet
  facet normal -0.629307 0.777157 0
    outer loop
      vertex 1.46946 -2.02254 6.35
      vertex 1.67283 -1.85786 6.35
      vertex 1.67283 -1.85786 5.72205e-07
    endloop
  endfacet
  facet normal 0 0 1
    outer loop
      vertex 1.46946 -2.02254 6.35
      vertex 2.5 -4.33013 6.35
      vertex 2.93893 -4.04508 6.35
    endloop
  endfacet
  facet normal 0 0 1
    outer loop
      vertex 1.46946 -2.02254 6.35
      vertex 2.93893 -4.04508 6.35
      vertex 1.67283 -1.85786 6.35
    endloop
  endfacet
  facet normal -0.629307 -0.777157 0
    outer loop
      vertex 1.46946 2.02254 5.72205e-07
      vertex 1.67283 1.85786 5.72205e-07
      vertex 1.67283 1.85786 6.35
    endloop
  endfacet
  facet normal -0.629307 -0.777157 0
    outer loop
      vertex 1.46946 2.02254 5.72205e-07
      vertex 1.67283 1.85786 6.35
      vertex 1.46946 2.02254 6.35
    endloop
  endfacet
  facet normal 0 0 -1
    outer loop
      vertex 1.46946 2.02254 5.72205e-07
      vertex 2.5 4.33013 5.72205e-07
      vertex 2.93893 4.04508 5.72205e-07
    endloop
  endfacet
  facet normal 0 0 -1
    outer loop
      vertex 1.46946 2.02254 5.72205e-07
      vertex 2.93893 4.04508 5.72205e-07
      vertex 1.67283 1.85786 5.72205e-07
    endloop
  endfacet
  facet normal 0 0 1
    outer loop
      vertex 1.46946 2.02254 6.35
      vertex 1.67283 1.85786 6.35
      vertex 2.93893 4.04508 6.35
    endloop
  endfacet
  facet normal 0 0 1
    outer loop
      vertex 1.46946 2.02254 6.35
      vertex 2.93893 4.04508 6.35
      vertex 2.5 4.33013 6.35
    endloop
  endfacet
  facet normal 0.358358 -0.933584 0
    outer loop
      vertex 1.54508 -4.75528 5.72205e-07
      vertex 2.03368 -4.56773 5.72205e-07
      vertex 2.03368 -4.56773 6.35
    endloop
  endfacet
  facet normal 0.358358 -0.933584 0
    outer loop
      vertex 1.54508 -4.75528 5.72205e-07
      vertex 2.03368 -4.56773 6.35
      vertex 1.54508 -4.75528 6.35
    endloop
  endfacet
  facet normal 0.358358 0.933584 0
    outer loop
      vertex 1.54508 4.75528 5.72205e-07
      vertex 1.54508 4.75528 6.35
      vertex 2.03368 4.56773 5.72205e-07
    endloop
  endfacet
  facet normal 0.358358 0.933584 0
    outer loop
      vertex 1.54508 4.75528 6.35
      vertex 2.03368 4.56773 6.35
      vertex 2.03368 4.56773 5.72205e-07
    endloop
  endfacet
  facet normal -0.707107 0.707107 0
    outer loop
      vertex 1.67283 -1.85786 5.72205e-07
      vertex 1.67283 -1.85786 6.35
      vertex 1.85786 -1.67283 6.35
    endloop
  endfacet
  facet normal 0 0 -1
    outer loop
      vertex 1.67283 -1.85786 5.72205e-07
      vertex 1.85786 -1.67283 5.72205e-07
      vertex 2.93893 -4.04508 5.72205e-07
    endloop
  endfacet
  facet normal -0.707107 0.707107 0
    outer loop
      vertex 1.67283 -1.85786 5.72205e-07
      vertex 1.85786 -1.67283 6.35
      vertex 1.85786 -1.67283 5.72205e-07
    endloop
  endfacet
  facet normal 0 0 1
    outer loop
      vertex 1.67283 -1.85786 6.35
      vertex 2.93893 -4.04508 6.35
      vertex 3.34565 -3.71572 6.35
    endloop
  endfacet
  facet normal 0 0 1
    outer loop
      vertex 1.67283 -1.85786 6.35
      vertex 3.34565 -3.71572 6.35
      vertex 1.85786 -1.67283 6.35
    endloop
  endfacet
  facet normal -0.707107 -0.707107 0
    outer loop
      vertex 1.67283 1.85786 5.72205e-07
      vertex 1.85786 1.67283 5.72205e-07
      vertex 1.67283 1.85786 6.35
    endloop
  endfacet
  facet normal 0 0 -1
    outer loop
      vertex 1.67283 1.85786 5.72205e-07
      vertex 2.93893 4.04508 5.72205e-07
      vertex 3.34565 3.71572 5.72205e-07
    endloop
  endfacet
  facet normal 0 0 -1
    outer loop
      vertex 1.67283 1.85786 5.72205e-07
      vertex 3.34565 3.71572 5.72205e-07
      vertex 1.85786 1.67283 5.72205e-07
    endloop
  endfacet
  facet normal -0.707107 -0.707107 0
    outer loop
      vertex 1.67283 1.85786 6.35
      vertex 1.85786 1.67283 5.72205e-07
      vertex 1.85786 1.67283 6.35
    endloop
  endfacet
  facet normal 0 0 1
    outer loop
      vertex 1.67283 1.85786 6.35
      vertex 1.85786 1.67283 6.35
      vertex 2.93893 4.04508 6.35
    endloop
  endfacet
  facet normal -0.777157 0.629307 0
    outer loop
      vertex 1.85786 -1.67283 5.72205e-07
      vertex 1.85786 -1.67283 6.35
      vertex 2.02254 -1.46946 6.35
    endloop
  endfacet
  facet normal 0 0 -1
    outer loop
      vertex 1.85786 -1.67283 5.72205e-07
      vertex 2.02254 -1.46946 5.72205e-07
      vertex 2.93893 -4.04508 5.72205e-07
    endloop
  endfacet
  facet normal -0.777157 0.629307 0
    outer loop
      vertex 1.85786 -1.67283 5.72205e-07
      vertex 2.02254 -1.46946 6.35
      vertex 2.02254 -1.46946 5.72205e-07
    endloop
  endfacet
  facet normal 0 0 1
    outer loop
      vertex 1.85786 -1.67283 6.35
      vertex 3.34565 -3.71572 6.35
      vertex 3.71572 -3.34565 6.35
    endloop
  endfacet
  facet normal 0 0 1
    outer loop
      vertex 1.85786 -1.67283 6.35
      vertex 3.71572 -3.34565 6.35
      vertex 2.02254 -1.46946 6.35
    endloop
  endfacet
  facet normal -0.777157 -0.629307 0
    outer loop
      vertex 1.85786 1.67283 5.72205e-07
      vertex 2.02254 1.46946 5.72205e-07
      vertex 1.85786 1.67283 6.35
    endloop
  endfacet
  facet normal 0 0 -1
    outer loop
      vertex 1.85786 1.67283 5.72205e-07
      vertex 3.34565 3.71572 5.72205e-07
      vertex 3.71572 3.34565 5.72205e-07
    endloop
  endfacet
  facet normal 0 0 -1
    outer loop
      vertex 1.85786 1.67283 5.72205e-07
      vertex 3.71572 3.34565 5.72205e-07
      vertex 2.02254 1.46946 5.72205e-07
    endloop
  endfacet
  facet normal -0.777157 -0.629307 0
    outer loop
      vertex 1.85786 1.67283 6.35
      vertex 2.02254 1.46946 5.72205e-07
      vertex 2.02254 1.46946 6.35
    endloop
  endfacet
  facet normal 0 0 1
    outer loop
      vertex 1.85786 1.67283 6.35
      vertex 2.02254 1.46946 6.35
      vertex 2.93893 4.04508 6.35
    endloop
  endfacet
  facet normal -0.838669 0.544642 0
    outer loop
      vertex 2.02254 -1.46946 5.72205e-07
      vertex 2.02254 -1.46946 6.35
      vertex 2.16506 -1.25 6.35
    endloop
  endfacet
  facet normal 0 0 -1
    outer loop
      vertex 2.02254 -1.46946 5.72205e-07
      vertex 2.16506 -1.25 5.72205e-07
      vertex 2.93893 -4.04508 5.72205e-07
    endloop
  endfacet
  facet normal -0.838669 0.544642 0
    outer loop
      vertex 2.02254 -1.46946 5.72205e-07
      vertex 2.16506 -1.25 6.35
      vertex 2.16506 -1.25 5.72205e-07
    endloop
  endfacet
  facet normal 0 0 1
    outer loop
      vertex 2.02254 -1.46946 6.35
      vertex 3.71572 -3.34565 6.35
      vertex 4.04508 -2.93893 6.35
    endloop
  endfacet
  facet normal 0 0 1
    outer loop
      vertex 2.02254 -1.46946 6.35
      vertex 4.04508 -2.93893 6.35
      vertex 2.16506 -1.25 6.35
    endloop
  endfacet
  facet normal -0.838669 -0.544642 0
    outer loop
      vertex 2.02254 1.46946 5.72205e-07
      vertex 2.16506 1.25 5.72205e-07
      vertex 2.02254 1.46946 6.35
    endloop
  endfacet
  facet normal 0 0 -1
    outer loop
      vertex 2.02254 1.46946 5.72205e-07
      vertex 3.71572 3.34565 5.72205e-07
      vertex 4.04508 2.93893 5.72205e-07
    endloop
  endfacet
  facet normal 0 0 -1
    outer loop
      vertex 2.02254 1.46946 5.72205e-07
      vertex 4.04508 2.93893 5.72205e-07
      vertex 2.16506 1.25 5.72205e-07
    endloop
  endfacet
  facet normal -0.838669 -0.544642 0
    outer loop
      vertex 2.02254 1.46946 6.35
      vertex 2.16506 1.25 5.72205e-07
      vertex 2.16506 1.25 6.35
    endloop
  endfacet
  facet normal 0 0 1
    outer loop
      vertex 2.02254 1.46946 6.35
      vertex 2.16506 1.25 6.35
      vertex 2.93893 4.04508 6.35
    endloop
  endfacet
  facet normal 0.453988 -0.891008 0
    outer loop
      vertex 2.03368 -4.56773 5.72205e-07
      vertex 2.5 -4.33013 5.72205e-07
      vertex 2.5 -4.33013 6.35
    endloop
  endfacet
  facet normal 0.453988 -0.891008 0
    outer loop
      vertex 2.03368 -4.56773 5.72205e-07
      vertex 2.5 -4.33013 6.35
      vertex 2.03368 -4.56773 6.35
    endloop
  endfacet
  facet normal 0.453988 0.891008 0
    outer loop
      vertex 2.03368 4.56773 5.72205e-07
      vertex 2.03368 4.56773 6.35
      vertex 2.5 4.33013 5.72205e-07
    endloop
  endfacet
  facet normal 0.453988 0.891008 0
    outer loop
      vertex 2.03368 4.56773 6.35
      vertex 2.5 4.33013 6.35
      vertex 2.5 4.33013 5.72205e-07
    endloop
  endfacet
  facet normal -0.891008 0.453988 0
    outer loop
      vertex 2.16506 -1.25 5.72205e-07
      vertex 2.16506 -1.25 6.35
      vertex 2.28386 -1.01684 6.35
    endloop
  endfacet
  facet normal 0 0 -1
    outer loop
      vertex 2.16506 -1.25 5.72205e-07
      vertex 2.28386 -1.01684 5.72205e-07
      vertex 2.93893 -4.04508 5.72205e-07
    endloop
  endfacet
  facet normal -0.891008 0.453988 0
    outer loop
      vertex 2.16506 -1.25 5.72205e-07
      vertex 2.28386 -1.01684 6.35
      vertex 2.28386 -1.01684 5.72205e-07
    endloop
  endfacet
  facet normal 0 0 1
    outer loop
      vertex 2.16506 -1.25 6.35
      vertex 4.04508 -2.93893 6.35
      vertex 4.33013 -2.5 6.35
    endloop
  endfacet
  facet normal 0 0 1
    outer loop
      vertex 2.16506 -1.25 6.35
      vertex 4.33013 -2.5 6.35
      vertex 2.28386 -1.01684 6.35
    endloop
  endfacet
  facet normal -0.891008 -0.453988 0
    outer loop
      vertex 2.16506 1.25 5.72205e-07
      vertex 2.28386 1.01684 5.72205e-07
      vertex 2.16506 1.25 6.35
    endloop
  endfacet
  facet normal 0 0 -1
    outer loop
      vertex 2.16506 1.25 5.72205e-07
      vertex 4.04508 2.93893 5.72205e-07
      vertex 4.33013 2.5 5.72205e-07
    endloop
  endfacet
  facet normal 0 0 -1
    outer loop
      vertex 2.16506 1.25 5.72205e-07
      vertex 4.33013 2.5 5.72205e-07
      vertex 2.28386 1.01684 5.72205e-07
    endloop
  endfacet
  facet normal -0.891008 -0.453988 0
    outer loop
      vertex 2.16506 1.25 6.35
      vertex 2.28386 1.01684 5.72205e-07
      vertex 2.28386 1.01684 6.35
    endloop
  endfacet
  facet normal 0 0 1
    outer loop
      vertex 2.16506 1.25 6.35
      vertex 2.28386 1.01684 6.35
      vertex 2.93893 4.04508 6.35
    endloop
  endfacet
  facet normal -0.933577 0.358377 0
    outer loop
      vertex 2.28386 -1.01684 5.72205e-07
      vertex 2.28386 -1.01684 6.35
      vertex 2.37764 -0.772542 6.35
    endloop
  endfacet
  facet normal 0 0 -1
    outer loop
      vertex 2.28386 -1.01684 5.72205e-07
      vertex 2.37764 -0.772542 5.72205e-07
      vertex 2.93893 -4.04508 5.72205e-07
    endloop
  endfacet
  facet normal -0.933577 0.358377 0
    outer loop
      vertex 2.28386 -1.01684 5.72205e-07
      vertex 2.37764 -0.772542 6.35
      vertex 2.37764 -0.772542 5.72205e-07
    endloop
  endfacet
  facet normal 0 0 1
    outer loop
      vertex 2.28386 -1.01684 6.35
      vertex 4.33013 -2.5 6.35
      vertex 4.56773 -2.03368 6.35
    endloop
  endfacet
  facet normal 0 0 1
    outer loop
      vertex 2.28386 -1.01684 6.35
      vertex 4.56773 -2.03368 6.35
      vertex 2.37764 -0.772542 6.35
    endloop
  endfacet
  facet normal -0.933577 -0.358377 0
    outer loop
      vertex 2.28386 1.01684 5.72205e-07
      vertex 2.37764 0.772542 5.72205e-07
      vertex 2.28386 1.01684 6.35
    endloop
  endfacet
  facet normal 0 0 -1
    outer loop
      vertex 2.28386 1.01684 5.72205e-07
      vertex 4.33013 2.5 5.72205e-07
      vertex 4.56773 2.03368 5.72205e-07
    endloop
  endfacet
  facet normal 0 0 -1
    outer loop
      vertex 2.28386 1.01684 5.72205e-07
      vertex 4.56773 2.03368 5.72205e-07
      vertex 2.37764 0.772542 5.72205e-07
    endloop
  endfacet
  facet normal -0.933577 -0.358377 0
    outer loop
      vertex 2.28386 1.01684 6.35
      vertex 2.37764 0.772542 5.72205e-07
      vertex 2.37764 0.772542 6.35
    endloop
  endfacet
  facet normal 0 0 1
    outer loop
      vertex 2.28386 1.01684 6.35
      vertex 2.37764 0.772542 6.35
      vertex 2.93893 4.04508 6.35
    endloop
  endfacet
  facet normal -0.965924 0.258827 0
    outer loop
      vertex 2.37764 -0.772542 5.72205e-07
      vertex 2.37764 -0.772542 6.35
      vertex 2.44537 -0.519779 6.35
    endloop
  endfacet
  facet normal 0 0 -1
    outer loop
      vertex 2.37764 -0.772542 5.72205e-07
      vertex 2.44537 -0.519779 5.72205e-07
      vertex 2.93893 -4.04508 5.72205e-07
    endloop
  endfacet
  facet normal -0.965924 0.258827 0
    outer loop
      vertex 2.37764 -0.772542 5.72205e-07
      vertex 2.44537 -0.519779 6.35
      vertex 2.44537 -0.519779 5.72205e-07
    endloop
  endfacet
  facet normal 0 0 1
    outer loop
      vertex 2.37764 -0.772542 6.35
      vertex 4.56773 -2.03368 6.35
      vertex 4.75528 -1.54508 6.35
    endloop
  endfacet
  facet normal 0 0 1
    outer loop
      vertex 2.37764 -0.772542 6.35
      vertex 4.75528 -1.54508 6.35
      vertex 2.44537 -0.519779 6.35
    endloop
  endfacet
  facet normal -0.965924 -0.258827 0
    outer loop
      vertex 2.37764 0.772542 5.72205e-07
      vertex 2.44537 0.519779 5.72205e-07
      vertex 2.37764 0.772542 6.35
    endloop
  endfacet
  facet normal 0 0 -1
    outer loop
      vertex 2.37764 0.772542 5.72205e-07
      vertex 4.56773 2.03368 5.72205e-07
      vertex 4.75528 1.54508 5.72205e-07
    endloop
  endfacet
  facet normal 0 0 -1
    outer loop
      vertex 2.37764 0.772542 5.72205e-07
      vertex 4.75528 1.54508 5.72205e-07
      vertex 2.44537 0.519779 5.72205e-07
    endloop
  endfacet
  facet normal -0.965924 -0.258827 0
    outer loop
      vertex 2.37764 0.772542 6.35
      vertex 2.44537 0.519779 5.72205e-07
      vertex 2.44537 0.519779 6.35
    endloop
  endfacet
  facet normal 0 0 1
    outer loop
      vertex 2.37764 0.772542 6.35
      vertex 2.44537 0.519779 6.35
      vertex 2.93893 4.04508 6.35
    endloop
  endfacet
  facet normal -0.987692 0.156413 0
    outer loop
      vertex 2.44537 -0.519779 5.72205e-07
      vertex 2.44537 -0.519779 6.35
      vertex 2.4863 -0.261321 6.35
    endloop
  endfacet
  facet normal 0 0 -1
    outer loop
      vertex 2.44537 -0.519779 5.72205e-07
      vertex 2.4863 -0.261321 5.72205e-07
      vertex 2.93893 -4.04508 5.72205e-07
    endloop
  endfacet
  facet normal -0.987692 0.156413 0
    outer loop
      vertex 2.44537 -0.519779 5.72205e-07
      vertex 2.4863 -0.261321 6.35
      vertex 2.4863 -0.261321 5.72205e-07
    endloop
  endfacet
  facet normal 0 0 1
    outer loop
      vertex 2.44537 -0.519779 6.35
      vertex 4.75528 -1.54508 6.35
      vertex 4.89074 -1.03956 6.35
    endloop
  endfacet
  facet normal 0 0 1
    outer loop
      vertex 2.44537 -0.519779 6.35
      vertex 4.89074 -1.03956 6.35
      vertex 2.4863 -0.261321 6.35
    endloop
  endfacet
  facet normal -0.987692 -0.156413 0
    outer loop
      vertex 2.44537 0.519779 5.72205e-07
      vertex 2.4863 0.261321 5.72205e-07
      vertex 2.44537 0.519779 6.35
    endloop
  endfacet
  facet normal 0 0 -1
    outer loop
      vertex 2.44537 0.519779 5.72205e-07
      vertex 4.75528 1.54508 5.72205e-07
      vertex 4.89074 1.03956 5.72205e-07
    endloop
  endfacet
  facet normal 0 0 -1
    outer loop
      vertex 2.44537 0.519779 5.72205e-07
      vertex 4.89074 1.03956 5.72205e-07
      vertex 2.4863 0.261321 5.72205e-07
    endloop
  endfacet
  facet normal -0.987692 -0.156413 0
    outer loop
      vertex 2.44537 0.519779 6.35
      vertex 2.4863 0.261321 5.72205e-07
      vertex 2.4863 0.261321 6.35
    endloop
  endfacet
  facet normal 0 0 1
    outer loop
      vertex 2.44537 0.519779 6.35
      vertex 2.4863 0.261321 6.35
      vertex 2.93893 4.04508 6.35
    endloop
  endfacet
  facet normal -0.998629 0.052354 0
    outer loop
      vertex 2.4863 -0.261321 5.72205e-07
      vertex 2.4863 -0.261321 6.35
      vertex 2.5 0 6.35
    endloop
  endfacet
  facet normal 0 0 -1
    outer loop
      vertex 2.4863 -0.261321 5.72205e-07
      vertex 2.5 0 5.72205e-07
      vertex 4.97261 -0.522642 5.72205e-07
    endloop
  endfacet
  facet normal -0.998629 0.052354 0
    outer loop
      vertex 2.4863 -0.261321 5.72205e-07
      vertex 2.5 0 6.35
      vertex 2.5 0 5.72205e-07
    endloop
  endfacet
  facet normal 0 0 -1
    outer loop
      vertex 2.4863 -0.261321 5.72205e-07
      vertex 3.34565 -3.71572 5.72205e-07
      vertex 2.93893 -4.04508 5.72205e-07
    endloop
  endfacet
  facet normal 0 0 -1
    outer loop
      vertex 2.4863 -0.261321 5.72205e-07
      vertex 3.71572 -3.34565 5.72205e-07
      vertex 3.34565 -3.71572 5.72205e-07
    endloop
  endfacet
  facet normal 0 0 -1
    outer loop
      vertex 2.4863 -0.261321 5.72205e-07
      vertex 4.04508 -2.93893 5.72205e-07
      vertex 3.71572 -3.34565 5.72205e-07
    endloop
  endfacet
  facet normal 0 0 -1
    outer loop
      vertex 2.4863 -0.261321 5.72205e-07
      vertex 4.33013 -2.5 5.72205e-07
      vertex 4.04508 -2.93893 5.72205e-07
    endloop
  endfacet
  facet normal 0 0 -1
    outer loop
      vertex 2.4863 -0.261321 5.72205e-07
      vertex 4.56773 -2.03368 5.72205e-07
      vertex 4.33013 -2.5 5.72205e-07
    endloop
  endfacet
  facet normal 0 0 -1
    outer loop
      vertex 2.4863 -0.261321 5.72205e-07
      vertex 4.75528 -1.54508 5.72205e-07
      vertex 4.56773 -2.03368 5.72205e-07
    endloop
  endfacet
  facet normal 0 0 -1
    outer loop
      vertex 2.4863 -0.261321 5.72205e-07
      vertex 4.89074 -1.03956 5.72205e-07
      vertex 4.75528 -1.54508 5.72205e-07
    endloop
  endfacet
  facet normal 0 0 -1
    outer loop
      vertex 2.4863 -0.261321 5.72205e-07
      vertex 4.97261 -0.522642 5.72205e-07
      vertex 4.89074 -1.03956 5.72205e-07
    endloop
  endfacet
  facet normal 0 0 1
    outer loop
      vertex 2.4863 -0.261321 6.35
      vertex 4.89074 -1.03956 6.35
      vertex 4.97261 -0.522642 6.35
    endloop
  endfacet
  facet normal 0 0 1
    outer loop
      vertex 2.4863 -0.261321 6.35
      vertex 4.97261 -0.522642 6.35
      vertex 2.5 0 6.35
    endloop
  endfacet
  facet normal -0.998629 -0.052354 0
    outer loop
      vertex 2.4863 0.261321 5.72205e-07
      vertex 2.5 0 5.72205e-07
      vertex 2.4863 0.261321 6.35
    endloop
  endfacet
  facet normal 0 0 -1
    outer loop
      vertex 2.4863 0.261321 5.72205e-07
      vertex 4.89074 1.03956 5.72205e-07
      vertex 4.97261 0.522642 5.72205e-07
    endloop
  endfacet
  facet normal 0 0 -1
    outer loop
      vertex 2.4863 0.261321 5.72205e-07
      vertex 4.97261 0.522642 5.72205e-07
      vertex 2.5 0 5.72205e-07
    endloop
  endfacet
  facet normal -0.998629 -0.052354 0
    outer loop
      vertex 2.4863 0.261321 6.35
      vertex 2.5 0 5.72205e-07
      vertex 2.5 0 6.35
    endloop
  endfacet
  facet normal 0 0 1
    outer loop
      vertex 2.4863 0.261321 6.35
      vertex 2.5 0 6.35
      vertex 4.97261 0.522642 6.35
    endloop
  endfacet
  facet normal 0 0 1
    outer loop
      vertex 2.4863 0.261321 6.35
      vertex 3.34565 3.71572 6.35
      vertex 2.93893 4.04508 6.35
    endloop
  endfacet
  facet normal 0 0 1
    outer loop
      vertex 2.4863 0.261321 6.35
      vertex 3.71572 3.34565 6.35
      vertex 3.34565 3.71572 6.35
    endloop
  endfacet
  facet normal 0 0 1
    outer loop
      vertex 2.4863 0.261321 6.35
      vertex 4.04508 2.93893 6.35
      vertex 3.71572 3.34565 6.35
    endloop
  endfacet
  facet normal 0 0 1
    outer loop
      vertex 2.4863 0.261321 6.35
      vertex 4.33013 2.5 6.35
      vertex 4.04508 2.93893 6.35
    endloop
  endfacet
  facet normal 0 0 1
    outer loop
      vertex 2.4863 0.261321 6.35
      vertex 4.56773 2.03368 6.35
      vertex 4.33013 2.5 6.35
    endloop
  endfacet
  facet normal 0 0 1
    outer loop
      vertex 2.4863 0.261321 6.35
      vertex 4.75528 1.54508 6.35
      vertex 4.56773 2.03368 6.35
    endloop
  endfacet
  facet normal 0 0 1
    outer loop
      vertex 2.4863 0.261321 6.35
      vertex 4.89074 1.03956 6.35
      vertex 4.75528 1.54508 6.35
    endloop
  endfacet
  facet normal 0 0 1
    outer loop
      vertex 2.4863 0.261321 6.35
      vertex 4.97261 0.522642 6.35
      vertex 4.89074 1.03956 6.35
    endloop
  endfacet
  facet normal 0.544646 -0.838666 0
    outer loop
      vertex 2.5 -4.33013 5.72205e-07
      vertex 2.93893 -4.04508 5.72205e-07
      vertex 2.93893 -4.04508 6.35
    endloop
  endfacet
  facet normal 0.544646 -0.838666 0
    outer loop
      vertex 2.5 -4.33013 5.72205e-07
      vertex 2.93893 -4.04508 6.35
      vertex 2.5 -4.33013 6.35
    endloop
  endfacet
  facet normal 0 0 -1
    outer loop
      vertex 2.5 0 5.72205e-07
      vertex 4.97261 0.522642 5.72205e-07
      vertex 5 0 5.72205e-07
    endloop
  endfacet
  facet normal 0 0 -1
    outer loop
      vertex 2.5 0 5.72205e-07
      vertex 5 0 5.72205e-07
      vertex 4.97261 -0.522642 5.72205e-07
    endloop
  endfacet
  facet normal 0 0 1
    outer loop
      vertex 2.5 0 6.35
      vertex 4.97261 -0.522642 6.35
      vertex 5 0 6.35
    endloop
  endfacet
  facet normal 0 0 1
    outer loop
      vertex 2.5 0 6.35
      vertex 5 0 6.35
      vertex 4.97261 0.522642 6.35
    endloop
  endfacet
  facet normal 0.544646 0.838666 0
    outer loop
      vertex 2.5 4.33013 5.72205e-07
      vertex 2.5 4.33013 6.35
      vertex 2.93893 4.04508 5.72205e-07
    endloop
  endfacet
  facet normal 0.544646 0.838666 0
    outer loop
      vertex 2.5 4.33013 6.35
      vertex 2.93893 4.04508 6.35
      vertex 2.93893 4.04508 5.72205e-07
    endloop
  endfacet
  facet normal 0.629326 -0.777142 0
    outer loop
      vertex 2.93893 -4.04508 5.72205e-07
      vertex 3.34565 -3.71572 5.72205e-07
      vertex 3.34565 -3.71572 6.35
    endloop
  endfacet
  facet normal 0.629326 -0.777142 0
    outer loop
      vertex 2.93893 -4.04508 5.72205e-07
      vertex 3.34565 -3.71572 6.35
      vertex 2.93893 -4.04508 6.35
    endloop
  endfacet
  facet normal 0.629326 0.777142 0
    outer loop
      vertex 2.93893 4.04508 5.72205e-07
      vertex 2.93893 4.04508 6.35
      vertex 3.34565 3.71572 5.72205e-07
    endloop
  endfacet
  facet normal 0.629326 0.777142 0
    outer loop
      vertex 2.93893 4.04508 6.35
      vertex 3.34565 3.71572 6.35
      vertex 3.34565 3.71572 5.72205e-07
    endloop
  endfacet
  facet normal 0.707107 -0.707107 0
    outer loop
      vertex 3.34565 -3.71572 5.72205e-07
      vertex 3.71572 -3.34565 5.72205e-07
      vertex 3.34565 -3.71572 6.35
    endloop
  endfacet
  facet normal 0.707107 -0.707107 0
    outer loop
      vertex 3.34565 -3.71572 6.35
      vertex 3.71572 -3.34565 5.72205e-07
      vertex 3.71572 -3.34565 6.35
    endloop
  endfacet
  facet normal 0.707107 0.707107 0
    outer loop
      vertex 3.34565 3.71572 5.72205e-07
      vertex 3.34565 3.71572 6.35
      vertex 3.71572 3.34565 6.35
    endloop
  endfacet
  facet normal 0.707107 0.707107 0
    outer loop
      vertex 3.34565 3.71572 5.72205e-07
      vertex 3.71572 3.34565 6.35
      vertex 3.71572 3.34565 5.72205e-07
    endloop
  endfacet
  facet normal 0.777142 -0.629326 0
    outer loop
      vertex 3.71572 -3.34565 5.72205e-07
      vertex 4.04508 -2.93893 5.72205e-07
      vertex 3.71572 -3.34565 6.35
    endloop
  endfacet
  facet normal 0.777142 -0.629326 0
    outer loop
      vertex 3.71572 -3.34565 6.35
      vertex 4.04508 -2.93893 5.72205e-07
      vertex 4.04508 -2.93893 6.35
    endloop
  endfacet
  facet normal 0.777142 0.629326 0
    outer loop
      vertex 3.71572 3.34565 5.72205e-07
      vertex 3.71572 3.34565 6.35
      vertex 4.04508 2.93893 6.35
    endloop
  endfacet
  facet normal 0.777142 0.629326 0
    outer loop
      vertex 3.71572 3.34565 5.72205e-07
      vertex 4.04508 2.93893 6.35
      vertex 4.04508 2.93893 5.72205e-07
    endloop
  endfacet
  facet normal 0.838666 -0.544646 0
    outer loop
      vertex 4.04508 -2.93893 5.72205e-07
      vertex 4.33013 -2.5 5.72205e-07
      vertex 4.04508 -2.93893 6.35
    endloop
  endfacet
  facet normal 0.838666 -0.544646 0
    outer loop
      vertex 4.04508 -2.93893 6.35
      vertex 4.33013 -2.5 5.72205e-07
      vertex 4.33013 -2.5 6.35
    endloop
  endfacet
  facet normal 0.838666 0.544646 0
    outer loop
      vertex 4.04508 2.93893 5.72205e-07
      vertex 4.04508 2.93893 6.35
      vertex 4.33013 2.5 6.35
    endloop
  endfacet
  facet normal 0.838666 0.544646 0
    outer loop
      vertex 4.04508 2.93893 5.72205e-07
      vertex 4.33013 2.5 6.35
      vertex 4.33013 2.5 5.72205e-07
    endloop
  endfacet
  facet normal 0.891008 -0.453988 0
    outer loop
      vertex 4.33013 -2.5 5.72205e-07
      vertex 4.56773 -2.03368 5.72205e-07
      vertex 4.33013 -2.5 6.35
    endloop
  endfacet
  facet normal 0.891008 -0.453988 0
    outer loop
      vertex 4.33013 -2.5 6.35
      vertex 4.56773 -2.03368 5.72205e-07
      vertex 4.56773 -2.03368 6.35
    endloop
  endfacet
  facet normal 0.891008 0.453988 0
    outer loop
      vertex 4.33013 2.5 5.72205e-07
      vertex 4.33013 2.5 6.35
      vertex 4.56773 2.03368 6.35
    endloop
  endfacet
  facet normal 0.891008 0.453988 0
    outer loop
      vertex 4.33013 2.5 5.72205e-07
      vertex 4.56773 2.03368 6.35
      vertex 4.56773 2.03368 5.72205e-07
    endloop
  endfacet
  facet normal 0.933584 -0.358358 0
    outer loop
      vertex 4.56773 -2.03368 5.72205e-07
      vertex 4.75528 -1.54508 5.72205e-07
      vertex 4.56773 -2.03368 6.35
    endloop
  endfacet
  facet normal 0.933584 -0.358358 0
    outer loop
      vertex 4.56773 -2.03368 6.35
      vertex 4.75528 -1.54508 5.72205e-07
      vertex 4.75528 -1.54508 6.35
    endloop
  endfacet
  facet normal 0.933584 0.358358 0
    outer loop
      vertex 4.56773 2.03368 5.72205e-07
      vertex 4.56773 2.03368 6.35
      vertex 4.75528 1.54508 6.35
    endloop
  endfacet
  facet normal 0.933584 0.358358 0
    outer loop
      vertex 4.56773 2.03368 5.72205e-07
      vertex 4.75528 1.54508 6.35
      vertex 4.75528 1.54508 5.72205e-07
    endloop
  endfacet
  facet normal 0.965923 -0.25883 0
    outer loop
      vertex 4.75528 -1.54508 5.72205e-07
      vertex 4.89074 -1.03956 5.72205e-07
      vertex 4.75528 -1.54508 6.35
    endloop
  endfacet
  facet normal 0.965923 -0.25883 0
    outer loop
      vertex 4.75528 -1.54508 6.35
      vertex 4.89074 -1.03956 5.72205e-07
      vertex 4.89074 -1.03956 6.35
    endloop
  endfacet
  facet normal 0.965923 0.25883 0
    outer loop
      vertex 4.75528 1.54508 5.72205e-07
      vertex 4.75528 1.54508 6.35
      vertex 4.89074 1.03956 6.35
    endloop
  endfacet
  facet normal 0.965923 0.25883 0
    outer loop
      vertex 4.75528 1.54508 5.72205e-07
      vertex 4.89074 1.03956 6.35
      vertex 4.89074 1.03956 5.72205e-07
    endloop
  endfacet
  facet normal 0.987689 -0.156431 0
    outer loop
      vertex 4.89074 -1.03956 5.72205e-07
      vertex 4.97261 -0.522642 5.72205e-07
      vertex 4.89074 -1.03956 6.35
    endloop
  endfacet
  facet normal 0.987689 -0.156431 0
    outer loop
      vertex 4.89074 -1.03956 6.35
      vertex 4.97261 -0.522642 5.72205e-07
      vertex 4.97261 -0.522642 6.35
    endloop
  endfacet
  facet normal 0.987689 0.156431 0
    outer loop
      vertex 4.89074 1.03956 5.72205e-07
      vertex 4.89074 1.03956 6.35
      vertex 4.97261 0.522642 6.35
    endloop
  endfacet
  facet normal 0.987689 0.156431 0
    outer loop
      vertex 4.89074 1.03956 5.72205e-07
      vertex 4.97261 0.522642 6.35
      vertex 4.97261 0.522642 5.72205e-07
    endloop
  endfacet
  facet normal 0.99863 -0.052335 0
    outer loop
      vertex 4.97261 -0.522642 5.72205e-07
      vertex 5 0 5.72205e-07
      vertex 4.97261 -0.522642 6.35
    endloop
  endfacet
  facet normal 0.99863 -0.052335 0
    outer loop
      vertex 4.97261 -0.522642 6.35
      vertex 5 0 5.72205e-07
      vertex 5 0 6.35
    endloop
  endfacet
  facet normal 0.99863 0.052335 0
    outer loop
      vertex 4.97261 0.522642 5.72205e-07
      vertex 4.97261 0.522642 6.35
      vertex 5 0 6.35
    endloop
  endfacet
  facet normal 0.99863 0.052335 0
    outer loop
      vertex 4.97261 0.522642 5.72205e-07
      vertex 5 0 6.35
      vertex 5 0 5.72205e-07
    endloop
  endfacet
endsolid OpenSCAD_Model
